<svg width="17" height="21" viewBox="0 0 17 21" fill="none" xmlns="http://www.w3.org/2000/svg">
<path d="M15.4132 18.2292C14.5486 19.5208 13.632 20.8333 12.2361 20.8333C10.8403 20.8333 10.3924 20.0104 8.80906 20.0104C7.22573 20.0104 6.72573 20.8125 5.40281 20.8646C4.0799 20.9167 3.00698 19.4583 2.17365 18.1979C0.392397 15.625 -0.951353 10.9062 0.861147 7.69792C1.285 6.93349 1.89879 6.29127 2.64327 5.83327C3.38774 5.37528 4.23773 5.11698 5.11115 5.08333C6.44448 5.08333 7.71531 5.98958 8.53823 5.98958C9.36115 5.98958 10.8924 4.875 12.507 5.04167C13.2574 5.07049 13.9908 5.27378 14.6489 5.63541C15.3071 5.99704 15.8719 6.50705 16.2986 7.125C15.6226 7.54578 15.0632 8.12977 14.6718 8.82327C14.2805 9.51677 14.0698 10.2975 14.0591 11.0937C14.0705 11.9841 14.3405 12.8519 14.8361 13.5917C15.3317 14.3314 16.0316 14.9112 16.8507 15.2604C16.5147 16.3066 16.0307 17.2993 15.4132 18.2083M9.46531 1.5625C10.2546 0.676721 11.3474 0.119172 12.5278 0C12.6336 1.2018 12.259 2.39656 11.4861 3.32292C11.1192 3.7989 10.6447 4.18113 10.1015 4.43825C9.55829 4.69537 8.96187 4.82006 8.36115 4.80208C8.32215 4.21594 8.39964 3.62787 8.58916 3.07184C8.77867 2.5158 9.07646 2.00282 9.46531 1.5625Z" fill="black"/>
</svg>
