<svg width="17" height="17" viewBox="0 0 15 15" fill="none" xmlns="http://www.w3.org/2000/svg">
<path d="M1.25 7.5C1.25 5.14298 1.25 3.96447 1.98223 3.23223C2.71447 2.5 3.89298 2.5 6.25 2.5H8.75C11.107 2.5 12.2856 2.5 13.0177 3.23223C13.75 3.96447 13.75 5.14298 13.75 7.5V8.75C13.75 11.107 13.75 12.2856 13.0177 13.0177C12.2856 13.75 11.107 13.75 8.75 13.75H6.25C3.89298 13.75 2.71447 13.75 1.98223 13.0177C1.25 12.2856 1.25 11.107 1.25 8.75V7.5Z" stroke="black"/>
<path d="M4.375 2.5V1.5625" stroke="black" stroke-linecap="round"/>
<path d="M10.625 2.5V1.5625" stroke="black" stroke-linecap="round"/>
<path d="M1.5625 5.625H13.4375" stroke="black" stroke-linecap="round"/>
<path d="M11.25 10.625C11.25 10.9702 10.9702 11.25 10.625 11.25C10.2798 11.25 10 10.9702 10 10.625C10 10.2798 10.2798 10 10.625 10C10.9702 10 11.25 10.2798 11.25 10.625Z" fill="black"/>
<path d="M11.25 8.125C11.25 8.47019 10.9702 8.75 10.625 8.75C10.2798 8.75 10 8.47019 10 8.125C10 7.77981 10.2798 7.5 10.625 7.5C10.9702 7.5 11.25 7.77981 11.25 8.125Z" fill="black"/>
<path d="M8.125 10.625C8.125 10.9702 7.84519 11.25 7.5 11.25C7.15481 11.25 6.875 10.9702 6.875 10.625C6.875 10.2798 7.15481 10 7.5 10C7.84519 10 8.125 10.2798 8.125 10.625Z" fill="black"/>
<path d="M8.125 8.125C8.125 8.47019 7.84519 8.75 7.5 8.75C7.15481 8.75 6.875 8.47019 6.875 8.125C6.875 7.77981 7.15481 7.5 7.5 7.5C7.84519 7.5 8.125 7.77981 8.125 8.125Z" fill="black"/>
<path d="M5 10.625C5 10.9702 4.72018 11.25 4.375 11.25C4.02983 11.25 3.75 10.9702 3.75 10.625C3.75 10.2798 4.02983 10 4.375 10C4.72018 10 5 10.2798 5 10.625Z" fill="black"/>
<path d="M5 8.125C5 8.47019 4.72018 8.75 4.375 8.75C4.02983 8.75 3.75 8.47019 3.75 8.125C3.75 7.77981 4.02983 7.5 4.375 7.5C4.72018 7.5 5 7.77981 5 8.125Z" fill="black"/>
</svg>
