<svg width="35" height="35" viewBox="0 0 20 20" fill="none" xmlns="http://www.w3.org/2000/svg">
<g clip-path="url(#clip0_979_258)">
<path d="M11.5247 15.8332C11.4002 15.8337 11.2772 15.8062 11.1647 15.7528C11.0523 15.6995 10.9532 15.6216 10.8747 15.5249L6.84973 10.5249C6.72716 10.3758 6.66016 10.1888 6.66016 9.99574C6.66016 9.80272 6.72716 9.61568 6.84973 9.46657L11.0164 4.46657C11.1578 4.29639 11.3611 4.18937 11.5815 4.16905C11.8018 4.14874 12.0212 4.21679 12.1914 4.35824C12.3616 4.49969 12.4686 4.70295 12.4889 4.9233C12.5092 5.14366 12.4412 5.36306 12.2997 5.53324L8.57473 9.9999L12.1747 14.4666C12.2766 14.5889 12.3414 14.7378 12.3613 14.8958C12.3812 15.0538 12.3554 15.2141 12.287 15.3579C12.2186 15.5017 12.1105 15.6228 11.9754 15.7071C11.8403 15.7913 11.6839 15.8351 11.5247 15.8332Z" fill="black"/>
</g>
<defs>
<clipPath id="clip0_979_258">
<rect width="20" height="20" fill="white"/>
</clipPath>
</defs>
</svg>
