<svg width="25" height="25" viewBox="0 0 25 25" fill="none" xmlns="http://www.w3.org/2000/svg">
<path d="M5.46875 11.7188H21.0938C21.301 11.7188 21.4997 11.8241 21.6462 12.0116C21.7927 12.1992 21.875 12.4535 21.875 12.7188C21.875 12.984 21.7927 13.2383 21.6462 13.4259C21.4997 13.6134 21.301 13.7188 21.0938 13.7188H5.46875C5.26155 13.7188 5.06284 13.6134 4.91632 13.4259C4.76981 13.2383 4.6875 12.984 4.6875 12.7188C4.6875 12.4535 4.76981 12.1992 4.91632 12.0116C5.06284 11.8241 5.26155 11.7188 5.46875 11.7188Z" fill="#39683A"/>
<path d="M5.79261 12.5L12.2723 18.9781C12.419 19.1248 12.5014 19.3238 12.5014 19.5313C12.5014 19.7387 12.419 19.9377 12.2723 20.0844C12.1256 20.2311 11.9266 20.3135 11.7192 20.3135C11.5117 20.3135 11.3127 20.2311 11.166 20.0844L4.13479 13.0531C4.06204 12.9806 4.00432 12.8944 3.96493 12.7994C3.92555 12.7045 3.90527 12.6028 3.90527 12.5C3.90527 12.3972 3.92555 12.2955 3.96493 12.2006C4.00432 12.1057 4.06204 12.0195 4.13479 11.9469L11.166 4.91564C11.3127 4.76894 11.5117 4.68652 11.7192 4.68652C11.9266 4.68652 12.1256 4.76894 12.2723 4.91564C12.419 5.06233 12.5014 5.2613 12.5014 5.46876C12.5014 5.67622 12.419 5.87519 12.2723 6.02189L5.79261 12.5Z" fill="#39683A"/>
</svg>
