<svg width="23" height="24" viewBox="0 0 20 20" fill="none" xmlns="http://www.w3.org/2000/svg">
<path d="M9.99935 8.33335C11.8403 8.33335 13.3327 6.84097 13.3327 5.00002C13.3327 3.15907 11.8403 1.66669 9.99935 1.66669C8.1584 1.66669 6.66602 3.15907 6.66602 5.00002C6.66602 6.84097 8.1584 8.33335 9.99935 8.33335Z" stroke="#161528" stroke-width="1.5"/>
<path d="M12.4993 17.1792C11.7416 17.3849 10.894 17.5 9.99935 17.5C6.77769 17.5 4.16602 16.0076 4.16602 14.1666C4.16602 12.3257 6.77769 10.8333 9.99935 10.8333C13.221 10.8333 15.8327 12.3257 15.8327 14.1666C15.8327 14.4544 15.7688 14.7336 15.6489 15" stroke="#161528" stroke-width="1.5" stroke-linecap="round"/>
</svg>
