<svg width="120" height="120" viewBox="0 0 120 120" fill="none" xmlns="http://www.w3.org/2000/svg">
<path d="M120 74.7444C120 71.3871 119.08 68.2272 117.492 65.5633C116.448 63.8127 115.114 62.2755 113.561 61.0142C115.056 58.8239 116.071 56.2249 116.409 53.3815C116.493 52.6859 116.532 51.9923 116.532 51.3057C116.532 47.1358 115.039 43.2445 112.538 40.2753V40.2778C110.728 38.1234 108.367 36.4446 105.661 35.4816C106.232 33.6727 106.535 31.7876 106.538 29.8868V29.8756V29.8732C106.535 27.8713 106.202 25.8605 105.512 23.9417C104.825 22.0205 103.782 20.1915 102.386 18.5667C100.74 16.6457 98.7626 15.1846 96.6277 14.2107C94.5188 13.2478 92.2545 12.7565 89.9836 12.7453C89.9812 12.7453 89.9555 12.7453 89.9168 12.7453V12.7429C89.9105 12.7453 89.8521 12.7407 89.7466 12.7475C89.4795 12.7495 89.2125 12.7587 88.9453 12.7722C88.1653 9.83206 86.6637 7.1974 84.6539 5.10598C83.1436 3.53046 81.3403 2.25573 79.3369 1.37141C77.3742 0.505154 75.2135 0.0227063 72.9645 0.00244159C72.9623 0.00244159 72.9213 0.00244154 72.8503 0H72.8459H72.8243H72.822H72.8198H72.8175C72.8156 0 72.8133 0 72.8133 0C72.7831 0 72.7378 5.59369e-08 72.671 0.00244159C70.422 0.0246596 68.2655 0.507351 66.3028 1.37141C64.297 2.25549 62.4961 3.53022 60.9837 5.10598H60.986C60.6413 5.46489 60.3138 5.84211 59.9993 6.23007C59.6869 5.84186 59.3595 5.46489 59.0147 5.10598C57.5044 3.53046 55.7016 2.25573 53.6979 1.37141C51.7352 0.505154 49.5766 0.0227063 47.3252 0.00244159C47.3252 0.00244159 47.2821 0.00244154 47.2132 0H47.2087H47.1874H47.183H47.1809C47.1809 0 47.1809 0 47.1788 0C47.1764 0 47.1764 0 47.1743 0C47.1462 0 47.0988 5.59369e-08 47.0341 0.00244159C44.7851 0.0246596 42.6265 0.507351 40.6636 1.37141C38.6602 2.25549 36.8571 3.53022 35.3468 5.10598C33.3368 7.1974 31.8373 9.82987 31.0554 12.7722C30.7624 12.7541 30.4695 12.7453 30.1741 12.7453V12.7429C30.1741 12.7429 30.1526 12.7429 30.1223 12.7407C30.116 12.7429 30.0642 12.7407 29.9672 12.7453C27.7137 12.7631 25.4667 13.2524 23.3728 14.2085C21.2377 15.1824 19.26 16.6437 17.6142 18.5669C16.1946 20.2186 15.1282 22.0927 14.4213 24.063C13.7128 26.0334 13.3615 28.105 13.3615 30.1674C13.3615 30.1674 13.3615 30.2011 13.3615 30.2548H13.3636C13.3725 31.9516 13.6242 33.6414 14.1026 35.2707C12.1291 36.1909 10.3582 37.4925 8.88703 39.0883V39.0836C7.43484 40.6545 6.26508 42.5062 5.45508 44.5529C4.64508 46.5996 4.20117 48.8439 4.20117 51.1756C4.20117 51.3821 4.20563 51.5909 4.21195 51.7974C4.28977 54.1066 4.80234 56.3104 5.6618 58.3056C6.01523 59.1247 6.42891 59.9082 6.89414 60.6553C5.14688 61.9796 3.6518 63.6447 2.50805 65.5635C0.919922 68.2272 0 71.3871 0 74.7444C0 77.1437 0.469688 79.4439 1.31625 81.5334C2.16516 83.6228 3.39094 85.4989 4.90336 87.0744H4.90125C6.40922 88.6434 8.20406 89.9159 10.2009 90.7997C11.0259 91.1633 11.8856 91.4575 12.7732 91.6819C12.4437 93.0577 12.2756 94.4625 12.2733 95.863H12.2712V95.9011V95.903V95.9077C12.2712 98.3048 12.7451 100.699 13.6845 102.928C14.6236 105.154 16.0303 107.217 17.8833 108.933C19.4688 110.403 21.2634 111.51 23.1506 112.244C25.0078 112.964 26.9573 113.328 28.9027 113.337C28.9329 113.341 28.9587 113.341 28.9805 113.341C28.9847 113.341 28.9891 113.341 28.9931 113.341H28.9976C28.9976 113.341 28.9976 113.341 28.9997 113.341H29.0428V113.339C30.5637 113.337 32.0827 113.112 33.5517 112.677C34.0905 113.467 34.6891 114.21 35.3466 114.894V114.892C36.8569 116.47 38.6597 117.744 40.6634 118.629C42.6218 119.49 44.7762 119.975 47.0189 119.995C47.0662 119.998 47.1094 120 47.1783 120H47.1804C47.1825 120 47.1825 120 47.1825 120C47.2322 120 47.2556 119.998 47.2556 119.998C49.5307 119.989 51.713 119.502 53.6972 118.629C55.7009 117.744 57.5039 116.47 59.014 114.894C59.3587 114.535 59.6862 114.158 59.9986 113.767C60.3131 114.158 60.6405 114.535 60.9853 114.894C62.4954 116.47 64.2987 117.744 66.3021 118.629C68.2582 119.49 70.4126 119.975 72.6574 119.995C72.7048 119.998 72.7479 120 72.8147 120C72.8147 120 72.8147 120 72.8166 120C72.8189 120 72.8189 120 72.8189 120C72.821 120 72.821 120 72.821 120C72.8684 120 72.892 119.998 72.892 119.998C75.1671 119.989 77.3517 119.502 79.3357 118.629C81.3391 117.744 83.1424 116.47 84.6527 114.892V114.894C85.3097 114.21 85.9085 113.467 86.4473 112.677C87.9316 113.114 89.4633 113.341 91.0015 113.341C91.0015 113.341 91.0036 113.341 91.0059 113.341C91.0146 113.341 91.0165 113.341 91.023 113.341C91.0638 113.341 91.0877 113.339 91.0896 113.339C93.0352 113.328 94.9868 112.966 96.8482 112.241C98.7354 111.51 100.53 110.403 102.116 108.933C103.968 107.217 105.375 105.154 106.314 102.928C107.245 100.715 107.719 98.3428 107.726 95.9638H107.728C107.728 95.9279 107.728 95.9121 107.728 95.9121V95.903C107.728 94.4869 107.558 93.0708 107.226 91.6816C108.113 91.4572 108.973 91.163 109.798 90.7995C111.795 89.9154 113.59 88.6429 115.098 87.0742H115.096C116.608 85.4989 117.834 83.6226 118.683 81.5331C119.53 79.4437 120 77.1437 120 74.7444ZM58.2197 58.4264C56.9916 57.9889 55.7163 57.7667 54.4148 57.7667C53.2064 57.7667 52.0085 57.9574 50.8474 58.3346L50.8022 58.3527C49.2101 58.9294 47.6588 59.219 46.1897 59.219C43.5961 59.219 41.3445 58.3236 39.6792 56.6358C38.1731 55.1077 37.3116 53.016 37.3116 50.8953C37.3139 49.0055 37.9795 47.1741 39.2355 45.6032C39.8646 44.8178 39.7634 43.6464 39.0115 42.991C38.6927 42.7127 38.2877 42.5601 37.8696 42.5601C37.342 42.5601 36.8421 42.8026 36.5039 43.2245C34.7006 45.4709 33.7486 48.1236 33.7507 50.8931C33.7507 54.008 35.0044 57.0692 37.1911 59.291C39.4964 61.6385 42.6891 62.9313 46.1944 62.9313C48.0469 62.9313 49.9816 62.5722 51.9206 61.8741C52.7306 61.6095 53.5687 61.4771 54.4153 61.4771C55.7362 61.4771 57.0438 61.8116 58.2202 62.4489V78.4526H48.784C47.8015 78.4526 47.0046 79.2852 47.0046 80.3087C47.0046 81.3297 47.8015 82.1623 48.784 82.1623H58.2202V102.565C58.2202 104.095 57.9335 105.581 57.3907 106.954C57.3844 106.968 57.3776 106.977 57.3712 106.991C56.9531 108.038 56.389 109.006 55.7081 109.867C55.6929 109.89 55.6758 109.908 55.6608 109.926C55.5616 110.049 55.4627 110.17 55.3615 110.287C55.2708 110.393 55.1761 110.491 55.0812 110.592C55.0509 110.626 55.0209 110.662 54.9886 110.696L54.9863 110.698C54.9649 110.72 54.9431 110.738 54.9216 110.761C54.8161 110.871 54.7062 110.981 54.5963 111.084C54.5339 111.142 54.4711 111.198 54.4087 111.254C54.3377 111.319 54.2667 111.385 54.1936 111.447C54.0858 111.539 53.9759 111.627 53.8638 111.717C53.8359 111.739 53.808 111.762 53.7799 111.784C53.073 112.336 52.2998 112.798 51.4791 113.162C51.1516 113.306 50.8177 113.431 50.4773 113.543C50.4708 113.546 50.4687 113.546 50.4642 113.548C50.3156 113.595 50.167 113.64 50.0161 113.68C49.9859 113.689 49.958 113.698 49.9298 113.705C49.8009 113.741 49.6716 113.768 49.5422 113.799C49.4904 113.81 49.4409 113.824 49.3891 113.835C49.2792 113.857 49.1672 113.876 49.0554 113.898C48.9841 113.909 48.9152 113.925 48.8421 113.934C48.7432 113.952 48.642 113.961 48.5426 113.974C48.4608 113.986 48.3766 113.997 48.2948 114.006C48.1917 114.017 48.0905 114.024 47.9869 114.03C47.9051 114.037 47.8233 114.046 47.7412 114.051C47.5795 114.06 47.4159 114.062 47.2521 114.062C47.2282 114.062 47.2048 114.064 47.1811 114.064C47.1551 114.064 47.1272 114.062 47.0991 114.062C46.9397 114.062 46.7803 114.06 46.623 114.051C46.537 114.046 46.4529 114.037 46.3666 114.03C46.2698 114.024 46.1686 114.017 46.0692 114.006C45.9832 113.997 45.8991 113.983 45.8128 113.974C45.716 113.961 45.6169 113.95 45.5198 113.934C45.4467 113.925 45.3734 113.909 45.3002 113.896C45.1903 113.876 45.0827 113.858 44.9749 113.835C44.921 113.824 44.8671 113.808 44.8132 113.797C44.6862 113.768 44.5589 113.739 44.434 113.705C44.404 113.696 44.3716 113.687 44.3414 113.678C44.1928 113.637 44.0466 113.595 43.902 113.548C43.8935 113.546 43.8848 113.543 43.8785 113.541C43.5403 113.431 43.2084 113.305 42.8852 113.162C42.0621 112.798 41.291 112.336 40.5823 111.784C40.5523 111.761 40.5241 111.734 40.4939 111.712C40.384 111.624 40.2764 111.539 40.1707 111.447C40.091 111.377 40.0134 111.306 39.9338 111.236C39.8798 111.187 39.8217 111.137 39.7678 111.086C39.6363 110.96 39.5051 110.83 39.3757 110.697C39.3736 110.693 39.3713 110.691 39.3691 110.688C39.184 110.495 39.0052 110.294 38.8329 110.085C38.8048 110.049 38.7748 110.015 38.7466 109.979C38.193 109.293 37.7105 108.538 37.3181 107.726C37.3118 107.712 37.301 107.697 37.2923 107.681C36.5428 106.11 36.142 104.369 36.142 102.564C36.142 101.191 36.4371 99.6984 36.9759 98.3631C37.5705 96.8884 38.4495 95.6159 39.518 94.6869C39.8841 94.3705 40.1084 93.9239 40.1512 93.4302C40.1946 92.9363 40.05 92.4561 39.7462 92.0747C39.408 91.6528 38.9084 91.4106 38.3784 91.4106C37.9627 91.4106 37.5574 91.5632 37.2387 91.8393C35.7328 93.1475 34.5068 94.9093 33.6905 96.9314C32.9667 98.7335 32.5833 100.681 32.5809 102.565C32.5809 103.924 32.7555 105.271 33.098 106.579C32.9081 106.658 32.7143 106.734 32.5184 106.802C32.4687 106.819 32.415 106.838 32.3653 106.853C32.2427 106.894 32.122 106.932 31.9992 106.968C31.9219 106.99 31.8441 107.013 31.7646 107.035C31.6676 107.06 31.5705 107.085 31.4716 107.107C31.3809 107.132 31.2905 107.152 31.2002 107.17C31.1119 107.19 31.0235 107.206 30.933 107.224C30.8384 107.242 30.7437 107.257 30.6464 107.273C30.5559 107.287 30.4655 107.3 30.375 107.311C30.2845 107.322 30.192 107.336 30.1015 107.347C29.9916 107.356 29.8837 107.365 29.7762 107.372C29.7007 107.378 29.6276 107.385 29.5521 107.39C29.3691 107.399 29.1837 107.405 28.9985 107.405C26.2971 107.405 23.6923 106.371 21.6715 104.499C19.3188 102.318 17.9723 99.1847 17.9702 95.9035C17.9702 95.7306 17.9726 95.5602 17.981 95.3898C18.022 94.4069 18.188 93.4283 18.4723 92.4766C18.4849 92.4341 18.4957 92.3892 18.5112 92.3442C18.5154 92.324 18.5241 92.3037 18.5304 92.2859C18.5759 92.1423 18.6232 91.9963 18.675 91.8528C18.6771 91.8459 18.6792 91.8418 18.6834 91.8347C18.7545 91.6374 18.832 91.4421 18.9162 91.2446C18.9248 91.2267 18.9335 91.2087 18.9398 91.1909C19.028 90.9887 19.1208 90.789 19.222 90.5871C19.2244 90.5824 19.2265 90.5802 19.2265 90.5802C19.6423 89.7499 20.1551 88.9735 20.7602 88.2642C21.413 87.499 21.3462 86.3254 20.6116 85.6454C20.2863 85.3422 19.8663 85.1764 19.4309 85.1764C18.9225 85.1764 18.4357 85.4054 18.0996 85.8004C17.9941 85.9215 17.8929 86.0473 17.7916 86.173C17.6299 86.2023 17.5287 86.2179 17.4448 86.2267C17.3046 86.2404 17.1258 86.2448 16.7379 86.2448C16.7292 86.2448 16.7208 86.2448 16.7121 86.2448C16.7102 86.2448 16.7079 86.2448 16.7058 86.2448C16.5162 86.2448 16.3287 86.238 16.1412 86.2292C16.1306 86.2267 16.1175 86.2267 16.1067 86.2245C15.9323 86.2155 15.7598 86.2021 15.5897 86.1821C15.5639 86.1821 15.5358 86.1752 15.51 86.173C15.3527 86.1552 15.1976 86.1349 15.0424 86.11C15.0143 86.1056 14.9885 86.101 14.9627 86.0966C14.8055 86.0695 14.6503 86.0426 14.4973 86.0092C14.4802 86.0045 14.4649 86.0002 14.4478 85.9955C14.2819 85.9596 14.1202 85.9215 13.9587 85.8788C13.9563 85.8769 13.9542 85.8769 13.9521 85.8769C13.4285 85.7352 12.9202 85.5536 12.4268 85.3358C11.6084 84.9745 10.8391 84.5098 10.1346 83.9622C10.1044 83.94 10.0765 83.9151 10.0462 83.8904C9.93633 83.803 9.82875 83.7176 9.72516 83.6258C9.64781 83.5606 9.57234 83.491 9.49688 83.4214C9.43875 83.3721 9.38062 83.3184 9.32461 83.2666C9.19102 83.1389 9.05977 83.0107 8.9325 82.8784C8.80312 82.7436 8.6782 82.6045 8.55563 82.4653C8.52961 82.4338 8.50383 82.4023 8.4757 82.3711C8.38523 82.2631 8.29477 82.1555 8.20852 82.0478C8.13539 81.9536 8.06648 81.8593 7.99547 81.7651C7.95891 81.7157 7.92 81.6664 7.88555 81.6169C7.78617 81.4801 7.69359 81.3432 7.60102 81.2018C7.59445 81.1906 7.58836 81.1815 7.5818 81.1725C7.18523 80.5599 6.84281 79.9068 6.56484 79.2222C6.36234 78.7197 6.19219 78.2012 6.05859 77.667C6.05438 77.6491 6.04781 77.6311 6.04359 77.6132C6.00703 77.465 5.9768 77.3168 5.94445 77.1642C5.93602 77.1283 5.92711 77.0903 5.92055 77.0497C5.89477 76.9174 5.8732 76.7826 5.85164 76.6479C5.84297 76.5917 5.83008 76.538 5.82352 76.4818C5.80617 76.3561 5.79117 76.2304 5.77617 76.1049C5.76984 76.0375 5.76117 75.9747 5.75461 75.9076C5.74195 75.7772 5.73328 75.6473 5.72648 75.5169C5.72227 75.4542 5.71383 75.3914 5.71148 75.3284C5.70305 75.1378 5.69859 74.9422 5.69859 74.7449C5.69859 74.4734 5.70703 74.2019 5.72648 73.9348C5.73727 73.7532 5.75883 73.5735 5.78039 73.3938C5.7893 73.3086 5.79563 73.2256 5.80641 73.1423C5.83641 72.9067 5.87742 72.6733 5.92266 72.4423C5.92922 72.4152 5.93133 72.3884 5.93578 72.3615C5.98734 72.1147 6.04547 71.8678 6.11227 71.6276C6.11461 71.6163 6.11672 71.6027 6.11883 71.5939C6.18539 71.3536 6.25852 71.1183 6.33844 70.8824C6.34477 70.8668 6.34711 70.8531 6.35344 70.8375C6.42891 70.6153 6.51516 70.4 6.60328 70.1844C6.61641 70.1551 6.62484 70.126 6.63773 70.0992C6.72398 69.8926 6.82078 69.6907 6.92016 69.491C6.9375 69.4548 6.9525 69.4168 6.96961 69.3809C7.0882 69.1477 7.21523 68.9187 7.34883 68.6943C7.48031 68.4743 7.61836 68.2587 7.76039 68.0502C8.47148 67.0226 9.33961 66.1226 10.3284 65.3863C10.3479 65.3706 10.365 65.355 10.3845 65.3416C10.4189 65.3169 10.4555 65.2945 10.4899 65.2698C10.8647 65.0027 11.2526 64.7556 11.6576 64.5381L11.662 64.5334C11.6747 64.5269 11.6878 64.52 11.6986 64.5154C11.8343 64.4414 11.9721 64.374 12.1078 64.3091C12.1833 64.2732 12.2564 64.2373 12.3342 64.2014C12.3405 64.2014 12.3469 64.1946 12.3534 64.1924C13.7367 63.5661 15.2058 63.2453 16.7377 63.2453C19.2389 63.2453 21.5937 64.0959 23.5519 65.7049C24.0021 66.2188 25.4477 67.7988 27.6063 69.3899C29.1122 70.4988 30.6593 71.3873 32.208 72.027C34.1857 72.8461 36.168 73.2614 38.1026 73.2614C39.083 73.2614 39.8822 72.4289 39.8822 71.4054C39.8822 70.3819 39.083 69.5515 38.1026 69.5515C36.6225 69.5515 35.0822 69.2241 33.5203 68.5798C31.2623 67.6462 29.3602 66.2032 28.1625 65.1573C27.4819 64.5605 26.9517 64.0307 26.6285 63.6918C26.4562 63.508 26.3227 63.362 26.2343 63.2609L26.1225 63.1308L26.0599 63.0568C26.0318 63.0231 26.0018 62.9916 25.9671 62.9645L25.894 62.8996C23.313 60.7317 20.0644 59.5354 16.7379 59.5354C15.7256 59.5354 14.7087 59.6477 13.7112 59.8699C13.4871 59.668 13.278 59.4546 13.0734 59.237C12.998 59.1606 12.9248 59.0822 12.8515 59.0012C12.7891 58.9294 12.7289 58.8576 12.6661 58.7858C12.6122 58.7209 12.5543 58.6535 12.5002 58.5861C12.3839 58.4445 12.2719 58.2987 12.1641 58.1505C12.1425 58.1237 12.1252 58.0968 12.1059 58.0697C12.0131 57.942 11.9229 57.8117 11.8369 57.6793C11.8198 57.6547 11.8045 57.63 11.7872 57.6031C11.6991 57.4664 11.6128 57.3295 11.5287 57.1859C11.5179 57.1678 11.5071 57.15 11.4984 57.1319C11.4103 56.9815 11.3241 56.8289 11.2444 56.6741C11.238 56.6629 11.2336 56.6539 11.2273 56.6429C11.1431 56.4769 11.0613 56.3106 10.9816 56.1424C10.9816 56.1424 10.9816 56.1377 10.9793 56.1358C10.4988 55.0876 10.1693 53.9631 10.0097 52.8006C10.0078 52.7894 10.0055 52.7782 10.0055 52.7782C9.98156 52.6031 9.96656 52.4325 9.94945 52.2645C9.94711 52.2352 9.94313 52.2061 9.94078 52.1768C9.92766 52.013 9.91922 51.8492 9.91055 51.6832C9.91055 51.6517 9.90633 51.6202 9.90633 51.5887V51.5865C9.90187 51.4495 9.89977 51.3125 9.89977 51.1756C9.89977 50.9849 9.90422 50.7964 9.91289 50.6079C9.91523 50.5449 9.92156 50.48 9.92602 50.4172C9.93469 50.2937 9.94102 50.1701 9.9518 50.049C9.95836 49.9729 9.97125 49.9011 9.97758 49.8247C9.9907 49.7123 10.0034 49.6025 10.0184 49.4924C10.0273 49.4206 10.0399 49.3488 10.0507 49.2814C10.0702 49.1672 10.0873 49.0526 10.1088 48.9403C10.1194 48.8798 10.1346 48.8192 10.1475 48.7609C10.1714 48.6373 10.1972 48.516 10.2251 48.3949C10.2359 48.3502 10.2487 48.3075 10.2595 48.2626C10.294 48.1278 10.3287 47.9911 10.3673 47.8563C10.376 47.8316 10.3847 47.8026 10.3931 47.7757C10.4384 47.6251 10.4836 47.4771 10.5352 47.3289C10.5373 47.3177 10.5438 47.3067 10.5459 47.2955C10.602 47.1338 10.6603 46.9722 10.7248 46.8128L10.7269 46.8084C10.8584 46.4717 11.007 46.1462 11.1684 45.8254C11.1684 45.8254 11.1684 45.8254 11.1708 45.823C11.2505 45.6638 11.3344 45.5088 11.4206 45.3562C11.427 45.3427 11.4335 45.3315 11.4401 45.3203C11.5219 45.1789 11.606 45.0373 11.692 44.8984C11.7115 44.8693 11.733 44.8378 11.7525 44.8066C11.828 44.6899 11.9032 44.5732 11.9831 44.4587C12.0284 44.3913 12.0799 44.3263 12.1275 44.2611C12.1835 44.185 12.2374 44.1063 12.2955 44.0299C12.3902 43.9064 12.4873 43.7853 12.5864 43.6664C12.6014 43.6486 12.6145 43.6302 12.6274 43.6146C12.7458 43.4754 12.8665 43.3387 12.9893 43.2039C12.9938 43.2015 12.9959 43.1974 12.9977 43.1949C13.1595 43.0221 13.3254 42.856 13.4955 42.6944C13.5408 42.6519 13.586 42.6092 13.6334 42.5667C13.9952 42.2344 14.3766 41.9226 14.7797 41.6397C14.8055 41.624 14.8312 41.606 14.857 41.5881C15.2857 41.292 15.7359 41.0271 16.2056 40.7937C16.2101 40.7915 16.2143 40.789 16.2164 40.789C16.9425 40.4301 17.7136 40.1518 18.5173 39.9652C18.5238 39.9631 18.5299 39.9609 18.5367 39.9587C19.1916 39.8083 19.8659 39.7162 20.5488 39.6916C20.6738 39.6847 20.7966 39.6847 20.943 39.6847H20.9452C21.514 39.6847 22.0849 39.7296 22.6427 39.8195C22.7353 39.8332 22.8258 39.842 22.9163 39.842C23.8017 39.842 24.5386 39.1798 24.6764 38.2686C24.825 37.2588 24.157 36.3095 23.1877 36.1523C22.4466 36.0336 21.6947 35.9729 20.9449 35.9729C20.8221 35.9729 20.6972 35.9753 20.5744 35.9797C20.4947 35.8383 20.4216 35.6923 20.3503 35.5488C20.2706 35.3942 20.1952 35.2392 20.1241 35.0819C20.0984 35.0236 20.0726 34.9674 20.0487 34.9069C19.9753 34.7387 19.9043 34.5724 19.8396 34.402C19.8202 34.3505 19.8007 34.2965 19.7836 34.245C19.7189 34.0699 19.6587 33.8949 19.6027 33.7152C19.5853 33.6634 19.5703 33.6075 19.5553 33.556C19.5037 33.3787 19.4541 33.2034 19.4109 33.0262C19.3936 32.9612 19.3807 32.9004 19.3657 32.8355C19.3291 32.667 19.2902 32.4988 19.26 32.3284C19.2427 32.2432 19.2319 32.1599 19.2169 32.0769C19.193 31.9243 19.1695 31.7739 19.1501 31.6213C19.1351 31.4978 19.1243 31.3742 19.1135 31.2485C19.1027 31.134 19.0898 31.0195 19.0833 30.903C19.0683 30.6628 19.0596 30.4206 19.0596 30.1759V30.1713C19.0596 27.5207 19.9362 24.9669 21.5351 22.9224C21.5524 22.8977 21.5716 22.8752 21.5909 22.8528C21.6792 22.7407 21.7697 22.6284 21.8646 22.5183C21.9227 22.4509 21.9832 22.3881 22.0411 22.3232C22.1166 22.238 22.192 22.1525 22.2696 22.0717C24.3335 19.9083 27.1556 18.6785 30.1029 18.676C30.1073 18.676 30.1158 18.676 30.1221 18.676C30.312 18.6785 30.4992 18.6829 30.6888 18.6941C30.7491 18.6985 30.8095 18.7031 30.8677 18.7073C31.0118 18.7185 31.1585 18.7322 31.3029 18.7478C31.3566 18.7544 31.4105 18.7612 31.4665 18.7681C31.6561 18.7925 31.848 18.8218 32.0374 18.8555C32.0395 18.8574 32.0437 18.8574 32.0482 18.8574C32.2507 18.8955 32.4532 18.9407 32.6557 18.9922C34.3922 19.4231 36.0122 20.2896 37.3779 21.5329C37.7571 21.9816 39.3987 23.8826 41.5252 25.8466C42.9577 27.166 44.3215 28.25 45.5796 29.067C46.3704 29.5787 47.1026 29.9782 47.8155 30.288C48.66 30.6537 49.4358 30.8737 50.1874 30.9589C50.2542 30.9679 50.3189 30.9723 50.3857 30.9723C51.2948 30.9723 52.053 30.2631 52.1543 29.3206C52.2061 28.8292 52.0725 28.3445 51.7753 27.9583C51.4779 27.5701 51.0534 27.3276 50.5795 27.2739C50.1809 27.229 49.6985 27.0852 49.1812 26.8608C48.2892 26.477 47.2228 25.8148 46.0962 24.9466C44.4202 23.656 42.843 22.1052 41.8155 21.0304C41.232 20.4198 40.7578 19.8946 40.4648 19.5626C40.3055 19.3809 40.1805 19.2371 40.0964 19.1407L40.0038 19.0286L39.4695 19.5223L39.978 18.9995L39.9328 18.9456L39.8726 18.8806L39.8184 18.8313C38.7307 17.8193 37.5134 16.9865 36.1929 16.3561C36.2834 15.3348 36.503 14.3521 36.8327 13.4253C36.8435 13.396 36.8543 13.3691 36.8651 13.3401C36.9103 13.2143 36.9577 13.091 37.0071 12.9675C37.0266 12.9204 37.0481 12.8732 37.0676 12.8259C37.1107 12.7226 37.1536 12.6193 37.1988 12.5207C37.227 12.4579 37.257 12.3996 37.2851 12.3388C37.3261 12.2514 37.3669 12.1659 37.41 12.0788C37.4447 12.0114 37.4831 11.944 37.5199 11.8744C37.5588 11.8004 37.5975 11.724 37.6406 11.6498C37.6816 11.5734 37.7269 11.5018 37.77 11.4276C37.8089 11.3627 37.8455 11.2953 37.8865 11.2303C37.9359 11.1498 37.9877 11.0711 38.0393 10.9901C38.0759 10.9339 38.1124 10.8778 38.1513 10.8219C38.2095 10.7345 38.272 10.6468 38.3344 10.5592C38.3667 10.5142 38.3967 10.4695 38.4293 10.4244C38.5045 10.3257 38.58 10.2269 38.6555 10.1329C38.6812 10.1014 38.7028 10.0699 38.7265 10.0386C38.8191 9.92631 38.9119 9.81863 39.0045 9.70852C39.0176 9.69485 39.0302 9.67922 39.0434 9.66579C39.1509 9.54225 39.2609 9.42115 39.3752 9.30225C39.5046 9.16992 39.6359 9.03978 39.7695 8.91185C39.8084 8.87596 39.8491 8.84226 39.888 8.80637C39.9806 8.71897 40.0753 8.63351 40.1723 8.5483C40.2628 8.47188 40.3577 8.39571 40.4522 8.32173C40.4955 8.28584 40.5408 8.24775 40.586 8.21162C40.7152 8.11078 40.8488 8.01434 40.9823 7.91766C40.9931 7.91082 41.0018 7.90203 41.0126 7.89739C41.5985 7.48428 42.2255 7.12782 42.8848 6.83825C43.2014 6.69909 43.5288 6.57335 43.8607 6.46567C43.8757 6.45884 43.8888 6.45444 43.9015 6.4498C44.0438 6.40488 44.1881 6.3624 44.3304 6.32211C44.3648 6.31308 44.3993 6.30404 44.4359 6.29281C44.5587 6.25912 44.6836 6.23226 44.8088 6.20296C44.8645 6.19173 44.9184 6.17611 44.9747 6.16488C45.0823 6.14242 45.1901 6.12435 45.3 6.10433C45.3731 6.09114 45.4465 6.07503 45.5196 6.06404C45.6166 6.04817 45.7158 6.03914 45.8126 6.02595C45.8988 6.01472 45.983 6.00105 46.069 5.99226C46.1684 5.98323 46.2715 5.97664 46.3709 5.9698C46.4548 5.96321 46.5368 5.95417 46.6228 5.94978C46.7845 5.94099 46.946 5.93855 47.1098 5.93635C47.1337 5.93635 47.1572 5.93635 47.1811 5.93635C47.209 5.93635 47.235 5.93635 47.2629 5.93855C47.4223 5.93855 47.5816 5.94099 47.7412 5.94978C47.8273 5.95417 47.9135 5.96321 47.9977 5.9698C48.0968 5.97664 48.1957 5.98347 48.293 5.99226C48.3811 6.00349 48.4673 6.01472 48.5557 6.02595C48.6506 6.03914 48.7474 6.04817 48.8423 6.06404C48.9178 6.07503 48.993 6.0909 49.0664 6.10652C49.1742 6.12435 49.282 6.14242 49.3875 6.16488C49.4433 6.17611 49.4993 6.19173 49.5577 6.20541C49.6805 6.23226 49.8054 6.26156 49.9282 6.29306C49.9627 6.30429 49.9971 6.31332 50.0316 6.32236C50.1759 6.36264 50.318 6.40537 50.4581 6.45005C50.4731 6.45469 50.486 6.45908 50.501 6.46592C50.8329 6.57335 51.1582 6.69909 51.4793 6.8385C52.1363 7.13002 52.7632 7.48477 53.3515 7.89763C53.358 7.90227 53.3646 7.90642 53.373 7.91351C53.5088 8.0097 53.6445 8.10858 53.778 8.21406C53.8212 8.24555 53.862 8.28144 53.9051 8.31514C54 8.39351 54.0968 8.46993 54.1917 8.55075C54.2845 8.62936 54.3727 8.71238 54.4631 8.79539C54.5063 8.83592 54.5494 8.87156 54.5946 8.91209C54.7261 9.04003 54.8595 9.17016 54.9865 9.30249C55.1159 9.43727 55.241 9.57643 55.3636 9.7156C55.4154 9.77395 55.4648 9.83695 55.5145 9.89725C55.5813 9.97587 55.6481 10.0545 55.7107 10.1331C56.3916 10.995 56.9536 11.9643 57.3717 13.01C57.378 13.0212 57.3848 13.0324 57.3891 13.0461C57.9342 14.4195 58.2206 15.9051 58.2206 17.4357V58.4264H58.2197ZM114.289 75.328C114.285 75.391 114.278 75.4537 114.274 75.5143C114.267 75.6466 114.259 75.7767 114.246 75.9071C114.239 75.972 114.231 76.0348 114.224 76.1C114.209 76.2255 114.196 76.3558 114.177 76.4813C114.171 76.5351 114.16 76.589 114.151 76.643C114.13 76.7777 114.106 76.9167 114.08 77.0512C114.074 77.0871 114.065 77.1232 114.056 77.1591C114.026 77.3117 113.994 77.4643 113.955 77.6147C113.953 77.6284 113.949 77.644 113.944 77.6574C113.811 78.196 113.64 78.7166 113.436 79.2215C113.087 80.0765 112.641 80.8822 112.113 81.6183C112.089 81.652 112.061 81.6879 112.035 81.7238C111.956 81.8317 111.874 81.9416 111.79 82.0471C111.721 82.1369 111.648 82.2221 111.574 82.3098C111.531 82.3615 111.488 82.4152 111.443 82.467C111.322 82.6062 111.197 82.7429 111.07 82.8752L111.068 82.8777C111.048 82.8955 111.029 82.9136 111.01 82.9338C110.902 83.0459 110.79 83.1582 110.678 83.2637C110.62 83.3176 110.559 83.3714 110.501 83.4231C110.428 83.4925 110.353 83.5598 110.275 83.6272C110.172 83.7146 110.066 83.8001 109.961 83.8853C109.928 83.9102 109.896 83.9371 109.864 83.9639C109.726 84.0694 109.586 84.1749 109.444 84.2759C109.441 84.2759 109.441 84.2781 109.439 84.2781C108.855 84.6891 108.231 85.0458 107.573 85.3375C107.084 85.5529 106.578 85.7326 106.055 85.8739C106.05 85.8761 106.046 85.8761 106.042 85.8783C105.88 85.9211 105.719 85.9594 105.557 85.995C105.54 85.9997 105.521 86.0041 105.503 86.0087C105.35 86.0422 105.193 86.0693 105.038 86.0961C105.012 86.1005 104.986 86.1051 104.96 86.1095C104.805 86.1344 104.648 86.1545 104.491 86.1725C104.465 86.1747 104.439 86.1816 104.411 86.1816C104.241 86.2018 104.068 86.2153 103.896 86.224C103.883 86.2262 103.87 86.2262 103.859 86.2287C103.672 86.2375 103.485 86.2443 103.295 86.2443C103.293 86.2443 103.293 86.2443 103.29 86.2443C103.28 86.2443 103.271 86.2443 103.262 86.2443C103.071 86.2443 102.929 86.2443 102.825 86.2399C102.691 86.2375 102.631 86.2309 102.534 86.215C102.45 86.2016 102.342 86.1813 102.191 86.1523C102.097 86.0331 102 85.9164 101.9 85.8C101.564 85.4049 101.078 85.1759 100.569 85.1759C100.134 85.1759 99.7139 85.3419 99.3886 85.6449C98.6541 86.3249 98.5873 87.4985 99.24 88.2637C99.8454 88.973 100.356 89.7472 100.772 90.5731C100.774 90.5778 100.776 90.5822 100.778 90.5868C100.879 90.7887 100.972 90.9907 101.06 91.1926C101.069 91.2084 101.075 91.2263 101.082 91.2419C101.168 91.4416 101.248 91.6435 101.321 91.8432C101.323 91.8454 101.323 91.8501 101.325 91.8523C101.338 91.8928 101.351 91.9309 101.364 91.9714C101.408 92.0947 101.452 92.2205 101.491 92.3462V92.3486C101.851 93.502 102.03 94.7052 102.03 95.9033C102.028 98.9779 100.843 101.923 98.7619 104.075C98.6217 104.218 98.4776 104.36 98.3288 104.499C98.2017 104.616 98.0723 104.73 97.9409 104.842C95.9803 106.496 93.5351 107.405 91.0017 107.405C90.8163 107.405 90.6333 107.399 90.4481 107.389C90.3748 107.385 90.3016 107.378 90.2283 107.374C90.1184 107.365 90.0084 107.358 89.8964 107.347C89.8081 107.336 89.7218 107.322 89.6337 107.313C89.5388 107.299 89.442 107.286 89.347 107.273C89.2566 107.257 89.1661 107.241 89.0756 107.223C88.9807 107.205 88.8858 107.187 88.7932 107.169C88.7072 107.149 88.6209 107.131 88.5368 107.111C88.4313 107.084 88.3256 107.059 88.2202 107.03C88.1489 107.01 88.0779 106.99 88.009 106.97C87.8754 106.932 87.7418 106.889 87.6103 106.846C87.5693 106.83 87.5285 106.819 87.4875 106.804C87.2916 106.736 87.0956 106.66 86.9016 106.579C87.2442 105.271 87.4186 103.924 87.4186 102.564C87.4162 101.087 87.173 99.5297 86.712 98.0596C85.9235 95.5529 84.5576 93.4007 82.7609 91.8386C81.7352 90.9477 80.5784 90.2565 79.3202 89.785C77.9759 89.2826 76.5066 89.0267 74.9555 89.0267C73.973 89.0267 73.1738 89.8571 73.1738 90.8803C73.1738 91.9035 73.973 92.7339 74.9531 92.7339C76.4461 92.7361 77.7989 93.0484 78.9797 93.6632C80.5092 94.462 81.7781 95.7997 82.6507 97.5369C83.4199 99.0629 83.8591 100.894 83.857 102.564C83.857 104.368 83.4565 106.11 82.7067 107.681C82.698 107.694 82.6894 107.712 82.6809 107.726C82.2888 108.538 81.8063 109.295 81.2527 109.981C81.2245 110.015 81.1966 110.049 81.1664 110.082C80.9941 110.293 80.813 110.499 80.6257 110.695C80.6234 110.695 80.6234 110.695 80.6234 110.695V110.697C80.6018 110.719 80.5802 110.737 80.5587 110.76C80.4509 110.87 80.3433 110.98 80.2313 111.083C80.1708 111.141 80.1061 111.197 80.0437 111.253C79.9727 111.318 79.9036 111.384 79.8305 111.446C79.7205 111.538 79.6106 111.626 79.5009 111.716C79.4728 111.738 79.4449 111.761 79.417 111.783C78.7083 112.335 77.937 112.797 77.1141 113.161C76.7864 113.305 76.4527 113.43 76.1123 113.542C76.1079 113.545 76.1037 113.545 76.0992 113.547C75.9527 113.594 75.802 113.639 75.6511 113.679C75.623 113.688 75.5951 113.697 75.567 113.704C75.4376 113.74 75.3084 113.767 75.1791 113.798C75.1275 113.809 75.0759 113.823 75.0262 113.834C74.9142 113.856 74.8022 113.875 74.6923 113.897C74.6213 113.908 74.5502 113.924 74.4792 113.933C74.3798 113.951 74.2809 113.96 74.1797 113.973C74.0958 113.985 74.0137 113.996 73.9298 114.005C73.8286 114.016 73.7273 114.023 73.6242 114.029C73.5422 114.036 73.4602 114.045 73.3765 114.05C73.2148 114.059 73.0533 114.061 72.8895 114.061C72.866 114.061 72.8423 114.063 72.8184 114.063C72.7903 114.063 72.7645 114.061 72.7366 114.061C72.577 114.061 72.4155 114.059 72.2583 114.05C72.1744 114.045 72.0881 114.036 72.0042 114.029C71.9053 114.023 71.8059 114.016 71.7068 114.005C71.6208 113.996 71.5345 113.982 71.4504 113.973C71.3513 113.96 71.2542 113.949 71.1574 113.933C71.0843 113.924 71.0109 113.908 70.9376 113.895C70.8279 113.875 70.7198 113.857 70.6099 113.834C70.556 113.823 70.5045 113.807 70.4505 113.796C70.3235 113.767 70.1963 113.738 70.0713 113.704C70.039 113.695 70.009 113.686 69.9787 113.677C69.8302 113.636 69.6813 113.594 69.5372 113.547C69.5306 113.545 69.5222 113.542 69.5156 113.54C69.1753 113.43 68.8455 113.304 68.5202 113.161C67.6995 112.797 66.926 112.335 66.2194 111.783C66.1891 111.76 66.1591 111.733 66.1289 111.711C66.0213 111.623 65.9114 111.538 65.8057 111.446C65.726 111.377 65.6484 111.305 65.5709 111.235C65.517 111.186 65.4588 111.136 65.4049 111.085C65.2711 110.959 65.1398 110.829 65.0126 110.696C64.8832 110.562 64.7585 110.425 64.6355 110.284C64.5645 110.203 64.4955 110.115 64.4266 110.032C64.3814 109.976 64.3338 109.92 64.2888 109.866C63.608 109.004 63.0457 108.035 62.6278 106.989C62.6215 106.975 62.6147 106.967 62.6084 106.953C62.0655 105.58 61.7789 104.094 61.7789 102.563V56.6021C64.0561 56.6917 66.0445 56.9657 67.6927 57.4144C69.2716 57.8407 70.5492 58.4198 71.5941 59.1784C72.3783 59.7483 73.0139 60.4082 73.5438 61.2005C74.3065 62.3383 74.8493 63.7612 75.3019 65.8123C75.4528 66.4901 75.5822 67.1723 75.7177 67.895C75.8447 68.5639 75.9762 69.2595 76.1245 69.9439C76.4091 71.2477 76.6978 72.2309 77.0597 73.1374C77.4042 74.0037 77.8029 74.7579 78.2812 75.4378C79.0955 76.6071 80.1492 77.5542 81.4137 78.2544C82.7623 79.0039 84.3457 79.493 86.2566 79.7488C86.3341 79.7601 86.4096 79.7669 86.4872 79.7669C87.3769 79.7669 88.1353 79.0711 88.2495 78.1465C88.312 77.6572 88.1848 77.1679 87.8941 76.7775C87.6035 76.3847 87.183 76.1356 86.7134 76.0704C85.0029 75.8414 83.6735 75.3949 82.6505 74.7125C81.907 74.2141 81.3405 73.6084 80.8709 72.8051C80.5045 72.1767 80.1987 71.4178 79.9338 70.4798C79.6495 69.4856 79.4405 68.3837 79.2209 67.2167C79.0936 66.5455 78.9623 65.8499 78.8093 65.1475C78.5402 63.9089 78.1352 62.2816 77.3834 60.6971C76.8124 59.4988 76.0905 58.4347 75.2332 57.5348C73.7834 56.0066 71.8444 54.8462 69.4725 54.0834C67.3223 53.3944 64.8019 53.0016 61.7794 52.8939V39.5045H72.1052C73.0877 39.5045 73.887 38.6695 73.887 37.6485C73.887 36.6252 73.0877 35.7927 72.1052 35.7927H61.7794V17.4348C61.7794 15.9042 62.066 14.4185 62.6088 13.0451C62.6152 13.0315 62.622 13.0202 62.6283 13.009C63.0462 11.963 63.6084 10.9937 64.2893 10.1321C64.3259 10.087 64.3648 10.0423 64.4013 9.99735C64.4789 9.90311 64.5565 9.80643 64.6383 9.71243C64.733 9.60231 64.83 9.49904 64.9289 9.39356C64.957 9.36426 64.9828 9.33301 65.013 9.30127C65.1403 9.16699 65.2737 9.03661 65.4073 8.91087C65.4462 8.87498 65.4848 8.84129 65.5237 8.8054C65.6184 8.71799 65.7131 8.63254 65.808 8.54733C65.9009 8.47091 65.9934 8.39473 66.0879 8.32075C66.1331 8.28486 66.1765 8.24677 66.2215 8.21064C66.353 8.1098 66.4842 8.01336 66.6202 7.91668C66.6307 7.90984 66.6394 7.90105 66.648 7.89641C67.2363 7.48331 67.863 7.12684 68.5202 6.83728C68.839 6.69811 69.1664 6.57237 69.498 6.4647C69.5133 6.45786 69.5262 6.45347 69.5414 6.44883C69.6792 6.4039 69.8236 6.36142 69.9677 6.32114C70.0024 6.3121 70.0369 6.30307 70.0713 6.29184C70.1963 6.25814 70.3212 6.23129 70.4461 6.20199C70.5 6.19076 70.556 6.17513 70.6097 6.1639C70.7196 6.14144 70.8295 6.12337 70.9373 6.10335C71.0107 6.09017 71.0838 6.07405 71.1572 6.06307C71.254 6.0472 71.351 6.03816 71.4502 6.02498C71.5343 6.01375 71.6205 6.00007 71.7066 5.99128C71.8057 5.98225 71.9069 5.97566 72.0082 5.96882C72.0923 5.96223 72.1741 5.9532 72.258 5.9488C72.4198 5.94001 72.5834 5.93757 72.7472 5.93537C72.7709 5.93537 72.7945 5.93537 72.8182 5.93537C72.844 5.93537 72.8721 5.93537 72.9 5.93757C73.0594 5.93757 73.219 5.94001 73.3762 5.9488C73.4623 5.9532 73.5485 5.96223 73.6345 5.96882C73.7339 5.97566 73.8328 5.98249 73.9296 5.99128C74.0159 6.00251 74.1042 6.01375 74.1926 6.02498C74.2873 6.03816 74.3843 6.0472 74.4769 6.06307C74.5542 6.07405 74.6276 6.08992 74.703 6.10555C74.8088 6.12337 74.9163 6.14144 75.0218 6.1639C75.0799 6.17513 75.1362 6.19076 75.192 6.20443C75.3148 6.23129 75.4397 6.26059 75.5625 6.29208C75.5991 6.30331 75.6335 6.31235 75.668 6.32138C75.8102 6.36166 75.9546 6.40439 76.0945 6.44907C76.1074 6.45371 76.1227 6.45811 76.1353 6.46494C76.4693 6.57237 76.7967 6.69811 77.1134 6.83752C77.7727 7.12904 78.3996 7.4838 78.9877 7.89666C78.994 7.9013 79.0005 7.90545 79.0071 7.91253C79.1449 8.00872 79.2806 8.10761 79.4145 8.21308C79.4552 8.24458 79.4984 8.28047 79.5391 8.31416C79.6359 8.39253 79.7332 8.46895 79.8258 8.54977C79.9184 8.62839 80.0088 8.7114 80.0993 8.79441C80.1424 8.83494 80.1874 8.87059 80.2287 8.91112C80.3623 9.03905 80.4935 9.16919 80.6229 9.30152C80.7373 9.42066 80.8469 9.54176 80.9569 9.66506C80.959 9.66726 80.959 9.6697 80.9611 9.6719C81.0668 9.79056 81.1702 9.9141 81.2693 10.0376C81.2906 10.0645 81.3101 10.0914 81.3295 10.116C81.4113 10.2171 81.4913 10.3204 81.5686 10.4236C81.6009 10.4686 81.6291 10.5135 81.6612 10.556C81.7235 10.6436 81.7863 10.731 81.8466 10.8209C81.8855 10.877 81.922 10.9354 81.9586 10.9913C82.0102 11.0699 82.0622 11.1485 82.1114 11.2291C82.1524 11.2941 82.1911 11.3614 82.23 11.4288C82.2731 11.5006 82.3163 11.5748 82.357 11.6488C82.4002 11.723 82.4388 11.7992 82.4798 11.8776C82.5164 11.943 82.553 12.0102 82.5877 12.0775C82.6308 12.165 82.6716 12.2548 82.7147 12.3422C82.7428 12.4006 82.7709 12.4589 82.7988 12.5195C82.8441 12.6205 82.8874 12.7238 82.9303 12.8293C82.9498 12.874 82.9713 12.9191 82.9905 12.9682C83.0402 13.0896 83.0876 13.2153 83.1349 13.341C83.1436 13.3703 83.1544 13.3972 83.1652 13.4241C83.4947 14.3509 83.7145 15.3338 83.805 16.3573C82.4845 16.988 81.2672 17.8183 80.1771 18.8303C79.4445 19.5125 79.3821 20.6886 80.0348 21.4518C80.373 21.8447 80.8556 22.0712 81.364 22.0712C81.8013 22.0712 82.2216 21.9028 82.549 21.6C83.9213 20.3229 85.5607 19.4366 87.3209 18.9966C87.724 18.8977 88.1309 18.8216 88.5382 18.7678C88.5855 18.761 88.6331 18.7566 88.6805 18.752C88.8312 18.7319 88.984 18.7185 89.137 18.7095C89.1909 18.7048 89.2491 18.7005 89.3051 18.6958C89.4945 18.6868 89.6862 18.678 89.8779 18.678C89.8842 18.678 89.891 18.678 89.8952 18.678C92.8425 18.6802 95.6667 19.908 97.7285 22.0712C97.8663 22.2148 98.002 22.3652 98.1359 22.52C98.2458 22.6499 98.3534 22.7803 98.4567 22.9104C98.5538 23.0361 98.6484 23.1619 98.7389 23.2898C98.7455 23.2986 98.752 23.3054 98.7584 23.3142C98.8425 23.4334 98.922 23.552 99.0019 23.6734C99.0148 23.6934 99.03 23.7137 99.0427 23.7339C99.1137 23.8418 99.1784 23.9495 99.2428 24.0594C99.2667 24.0953 99.288 24.129 99.3096 24.1673C99.3635 24.2591 99.4153 24.3533 99.4669 24.45C99.495 24.504 99.5271 24.5579 99.555 24.6119C99.596 24.6881 99.6326 24.7667 99.6715 24.8451C99.7081 24.9171 99.747 24.9933 99.7814 25.0672C99.8093 25.1278 99.8374 25.1905 99.8653 25.2513C99.904 25.3431 99.9471 25.4354 99.9839 25.5297C100.005 25.5812 100.025 25.6329 100.046 25.6845C100.087 25.7877 100.128 25.8908 100.165 25.9941C100.182 26.0434 100.197 26.0929 100.216 26.1423C100.253 26.2497 100.287 26.3552 100.322 26.4631C100.337 26.5124 100.35 26.562 100.365 26.6113C100.397 26.7189 100.43 26.8266 100.458 26.9367C100.473 26.9951 100.486 27.0534 100.501 27.1115C100.527 27.2104 100.55 27.3093 100.572 27.4101C100.589 27.491 100.606 27.574 100.621 27.657C100.637 27.7336 100.652 27.8098 100.667 27.8882C100.686 28.0073 100.703 28.1284 100.721 28.2498C100.727 28.2879 100.733 28.3304 100.74 28.3709C100.804 28.8668 100.837 29.3717 100.837 29.8859C100.837 30.1215 100.828 30.3571 100.813 30.5951C100.811 30.6466 100.807 30.6982 100.804 30.7521C100.787 30.9767 100.766 31.2033 100.735 31.4301C100.729 31.4816 100.72 31.5332 100.714 31.5847C100.688 31.7734 100.658 31.9595 100.621 32.146C100.611 32.2065 100.6 32.2671 100.589 32.3276C100.544 32.5364 100.494 32.7449 100.443 32.9537C100.423 33.0323 100.402 33.1109 100.38 33.1895C100.328 33.3736 100.275 33.5552 100.214 33.7371C100.19 33.8133 100.163 33.8897 100.139 33.9662C100.078 34.141 100.014 34.3119 99.9471 34.4823C99.919 34.5541 99.8911 34.6259 99.8609 34.6952C99.777 34.8996 99.6865 35.1061 99.5916 35.308C99.5658 35.3617 99.5377 35.4154 99.5098 35.4716C99.4151 35.6669 99.3117 35.8644 99.206 36.0573C98.9388 36.5376 98.6459 37.0044 98.3187 37.4532C98.2755 37.5049 98.2345 37.5611 98.198 37.617C97.8684 38.0547 97.5234 38.4654 97.1726 38.8334C96.5304 39.5089 95.6236 40.2004 94.553 40.8352C92.9501 41.7844 91.2052 42.4847 90.022 42.9022C89.348 43.1424 88.7834 43.3175 88.4302 43.423C88.2384 43.4767 88.0875 43.5218 87.9841 43.5487L87.8463 43.5846C86.892 43.827 86.3039 44.8324 86.5343 45.8244C86.7284 46.6616 87.4392 47.2427 88.2642 47.2427C88.4062 47.2427 88.5485 47.2249 88.6866 47.191C88.8738 47.1439 90.5866 46.6973 92.7452 45.813C94.0552 45.2746 95.2552 44.6842 96.3108 44.0602C97.7004 43.2389 98.8078 42.3816 99.7017 41.4436C99.9841 41.1494 100.26 40.8352 100.527 40.51C100.798 40.5146 101.072 40.5324 101.346 40.5551C101.356 40.5595 101.369 40.5617 101.382 40.5617C101.524 40.5749 101.623 40.5839 101.681 40.5886C101.686 40.591 101.69 40.591 101.692 40.591C101.71 40.591 101.725 40.5954 101.731 40.5954H101.733H101.735C101.794 40.6044 101.852 40.6135 101.91 40.6225C102.009 40.6381 102.11 40.6494 102.209 40.6674C104.062 40.9995 105.786 41.8457 107.205 43.1114C107.22 43.1246 107.233 43.1383 107.248 43.1515C107.337 43.2301 107.423 43.3131 107.509 43.3961C107.539 43.4254 107.571 43.4544 107.604 43.4837C107.669 43.5487 107.733 43.6185 107.798 43.6879C107.845 43.735 107.893 43.7823 107.938 43.8339C107.974 43.8719 108.007 43.9125 108.041 43.9506C108.112 44.0292 108.184 44.1078 108.252 44.1884V44.1906C108.435 44.4059 108.608 44.6305 108.774 44.8615C108.791 44.8884 108.81 44.913 108.832 44.9401C108.892 45.0275 108.95 45.1196 109.011 45.2072C109.039 45.2497 109.069 45.2949 109.097 45.3396C109.146 45.4182 109.194 45.4965 109.243 45.5774C109.278 45.6357 109.312 45.6919 109.346 45.7478C109.388 45.8198 109.424 45.8913 109.465 45.9612C109.502 46.0308 109.543 46.1003 109.579 46.1699C109.612 46.2329 109.64 46.2957 109.672 46.3584C109.711 46.4395 109.754 46.5203 109.793 46.6031C109.816 46.6548 109.838 46.7085 109.862 46.7622C109.905 46.8565 109.948 46.951 109.987 47.0452C110.004 47.0877 110.019 47.1304 110.038 47.1729C110.079 47.2808 110.122 47.3885 110.163 47.4984C110.174 47.5299 110.185 47.5657 110.198 47.5972C110.239 47.7164 110.28 47.8351 110.318 47.9564C110.327 47.9811 110.334 48.0057 110.34 48.0326C110.381 48.1605 110.42 48.2906 110.454 48.4208C110.459 48.441 110.463 48.4589 110.467 48.4791C110.504 48.6161 110.538 48.7509 110.568 48.8898C110.573 48.9079 110.575 48.9257 110.579 48.9435C110.609 49.0827 110.637 49.224 110.663 49.3635C110.667 49.3881 110.669 49.4106 110.674 49.4328C110.695 49.5676 110.719 49.7043 110.736 49.8415C110.741 49.8774 110.743 49.9133 110.749 49.947C110.764 50.0727 110.777 50.1982 110.79 50.324C110.794 50.3845 110.798 50.4453 110.801 50.5056C110.809 50.6091 110.818 50.71 110.822 50.8108C110.829 50.9746 110.833 51.1384 110.833 51.3047C110.833 51.5269 110.824 51.7513 110.812 51.9756C110.798 52.1978 110.779 52.4244 110.753 52.6488C110.751 52.6581 110.749 52.6647 110.749 52.6737C110.73 52.8441 110.704 53.0148 110.676 53.1808C110.671 53.2076 110.665 53.2326 110.661 53.257C110.635 53.4142 110.605 53.569 110.57 53.7238C110.57 53.7306 110.568 53.7372 110.566 53.7416C110.137 55.6763 109.202 57.4537 107.873 58.8698C107.86 58.8832 107.849 58.8945 107.836 58.9079C107.735 59.0158 107.629 59.1232 107.522 59.2268C107.496 59.2514 107.47 59.2758 107.442 59.3029C107.199 59.532 106.946 59.7539 106.682 59.9626C105.555 59.6775 104.407 59.5339 103.258 59.5339C99.9342 59.5339 96.6855 60.7303 94.1046 62.8981C93.342 63.54 93.2212 64.7114 93.8374 65.5059C94.1777 65.9459 94.6821 66.1971 95.2247 66.1971C95.6297 66.1971 96.0262 66.0511 96.3429 65.7862C98.3205 64.1233 100.714 63.2436 103.26 63.2436C104.103 63.2436 104.939 63.3422 105.751 63.5397C106.061 63.7912 106.453 63.9348 106.852 63.9348C106.901 63.9348 106.951 63.9323 107.003 63.9282C107.464 64.1008 107.901 64.2983 108.306 64.5161C108.315 64.5207 108.323 64.5251 108.33 64.5298L108.336 64.5317V64.5339L108.341 64.5364C108.746 64.7539 109.133 65.0008 109.508 65.2681C109.543 65.2928 109.579 65.3152 109.614 65.3399C109.633 65.3533 109.65 65.3714 109.67 65.3846C110.859 66.2713 111.876 67.3954 112.65 68.6928C112.783 68.9175 112.908 69.1462 113.026 69.3794C113.05 69.4243 113.07 69.4717 113.091 69.5186C113.186 69.7093 113.276 69.8999 113.36 70.0931C113.373 70.1265 113.386 70.1624 113.399 70.1939C113.485 70.4073 113.569 70.6182 113.645 70.8358C113.651 70.8538 113.655 70.8739 113.662 70.8919C113.742 71.1231 113.815 71.3544 113.88 71.5922C113.882 71.6058 113.884 71.619 113.888 71.6327C113.953 71.8729 114.011 72.1154 114.063 72.3598C114.067 72.3891 114.071 72.4159 114.076 72.445C114.121 72.674 114.162 72.9074 114.192 73.1406C114.203 73.2238 114.209 73.3066 114.218 73.3921C114.239 73.5715 114.261 73.7512 114.272 73.9331C114.291 74.2002 114.3 74.4717 114.3 74.7432C114.302 74.9417 114.298 75.1373 114.289 75.328Z" fill="#2F5233"/>
</svg>
