<svg width="33" height="34" viewBox="0 0 35 26" fill="none" xmlns="http://www.w3.org/2000/svg">
<path d="M34.0347 10.6484L34.0257 10.6401L34.033 10.6473C33.8764 10.4879 33.7008 10.3436 33.5073 10.215C33.4407 10.2145 33.3736 10.2011 33.3093 10.1731C33.2054 10.1289 33.1242 10.0545 33.0688 9.96557C32.7596 9.81853 32.4358 9.72398 32.1075 9.67757C31.8206 9.63792 31.6226 9.37337 31.6629 9.08701C31.7025 8.8012 31.9672 8.60214 32.2524 8.64179C32.5795 8.68827 32.9045 8.77215 33.2194 8.89349C33.2691 8.6653 33.2971 8.43268 33.2971 8.19663C33.2966 7.68209 33.1758 7.16194 32.9179 6.67372V6.67317C32.6232 6.11393 32.1937 5.67827 31.6881 5.37906C31.2457 5.11731 30.7469 4.96234 30.2334 4.92823C30.196 5.39355 30.0847 5.86059 29.8901 6.31135C29.776 6.57645 29.4684 6.69942 29.2027 6.58533C28.9376 6.47124 28.8146 6.16369 28.9287 5.89798C29.1149 5.46403 29.2027 5.01546 29.2039 4.57201C29.2039 4.50823 29.2011 4.44507 29.1983 4.38184C29.1636 3.76783 28.9589 3.17331 28.6122 2.66827C28.2648 2.16269 27.7789 1.74768 27.1732 1.48716C26.7392 1.29979 26.2896 1.21194 25.8466 1.21194C24.9982 1.21194 24.1761 1.53856 23.5564 2.11511C23.6727 2.50995 23.737 2.92715 23.737 3.35891C23.737 3.64745 23.5027 3.88124 23.2141 3.88124C22.9249 3.88124 22.6906 3.64745 22.6906 3.35891C22.6906 2.93501 22.6126 2.5334 22.4705 2.15988L22.4708 2.16036C22.2297 1.52954 21.8027 0.988682 21.2572 0.606211C20.7119 0.223672 20.0517 0 19.3339 0C18.7092 0 18.1281 0.168848 17.6284 0.46416C17.2288 0.700137 16.8835 1.01842 16.6128 1.3931C17.1421 2.11962 17.4545 3.01663 17.4542 3.98303C17.4542 4.27164 17.2201 4.50536 16.9312 4.50536C16.6418 4.50536 16.4078 4.27157 16.4078 3.98303C16.4075 3.13291 16.0948 2.36004 15.5759 1.76941L15.5751 1.76887C14.9579 1.06531 14.0575 0.624668 13.0495 0.624053C12.349 0.6246 11.7031 0.836582 11.1647 1.20183C10.6273 1.567 10.2003 2.08435 9.94725 2.6911C9.78305 3.08766 9.69083 3.52502 9.69083 3.98303C9.69083 4.27164 9.45704 4.50536 9.16788 4.50536C8.87899 4.50536 8.64473 4.27157 8.64473 3.98303C8.64473 3.55852 8.70652 3.14747 8.81836 2.75823C8.42434 2.59827 7.99846 2.51098 7.56 2.51098C7.31199 2.51098 7.05975 2.53948 6.80723 2.59711C6.06259 2.76828 5.43758 3.17092 4.98292 3.71396C4.65438 4.10601 4.41889 4.57133 4.29584 5.0724C5.37776 5.09257 6.45825 5.50977 7.29128 6.3257C7.49759 6.52757 7.50128 6.85863 7.29907 7.06501C7.09721 7.27132 6.76587 7.27474 6.55942 7.07335C5.90481 6.43303 5.05894 6.11481 4.20998 6.11372C4.05788 6.11372 3.90626 6.12493 3.7558 6.14448L3.75389 6.14503H3.75307H3.75252C3.03967 6.24237 2.35437 6.56674 1.80961 7.12147C1.16895 7.77636 0.851553 8.62032 0.851348 9.46982C0.851348 9.95695 0.956758 10.4446 1.16703 10.8943C1.33287 11.2489 1.56324 11.5799 1.85965 11.8707L1.8602 11.8713C2.19721 12.2024 2.58528 12.4456 2.99886 12.6062C3.26813 12.7096 3.40204 13.0128 3.29772 13.2823C3.19341 13.5518 2.89058 13.6861 2.62131 13.5815C2.07936 13.3723 1.56789 13.0508 1.12697 12.6179C0.933721 12.4277 0.760908 12.2242 0.609355 12.01C0.213965 12.5762 0 13.2535 0 13.9425C0.000273438 14.4766 0.127559 15.0163 0.397646 15.5224C0.701299 16.0895 1.14085 16.5313 1.6571 16.8339C2.06616 17.0738 2.5228 17.2231 2.99291 17.2757L2.99202 17.2455C2.99202 16.9686 3.01779 16.6968 3.0664 16.434C3.11896 16.1499 3.39192 15.9625 3.67575 16.0145C3.96013 16.0666 4.14777 16.3406 4.09548 16.6247C4.05802 16.826 4.03813 17.0334 4.03813 17.2454C4.03813 17.326 4.0412 17.4065 4.04681 17.487C4.05296 17.5726 4.06191 17.6542 4.07483 17.732L4.07538 17.7359L4.07593 17.7398C4.31532 19.3823 5.7333 20.6078 7.39457 20.6078C7.474 20.6078 7.55453 20.6043 7.6354 20.5987H7.63622C8.37279 20.5456 9.0341 20.261 9.5576 19.8192C9.92729 19.5071 10.2276 19.1184 10.4348 18.6799C10.5581 18.4188 10.8702 18.3069 11.1314 18.4305C11.3925 18.5541 11.5041 18.8656 11.3807 19.1268C11.1578 19.5983 10.8528 20.0233 10.4846 20.3868C10.6903 21.0177 11.0765 21.5618 11.5799 21.9651C12.1584 22.4276 12.8859 22.6994 13.6712 22.6994C13.7506 22.6994 13.8305 22.6972 13.9122 22.691H13.913C14.4113 22.6547 14.8722 22.5126 15.2807 22.2895C15.2164 21.988 15.1808 21.6798 15.1808 21.3689C15.1808 20.7269 15.3226 20.0737 15.6196 19.4584C15.7449 19.1973 16.0578 19.0887 16.3179 19.2141C16.5779 19.3393 16.6875 19.652 16.562 19.9121C16.3343 20.3852 16.2269 20.8801 16.2269 21.3689C16.2269 21.7118 16.2801 22.0517 16.3821 22.3761L16.3824 22.3767C16.6503 23.2312 17.256 23.9762 18.1278 24.3962C18.599 24.6237 19.0939 24.7311 19.583 24.7311C20.3582 24.7311 21.1171 24.4599 21.7169 23.9678L21.7188 23.9667C22.0838 23.6658 22.3908 23.2855 22.61 22.8313L22.6105 22.8296C22.8158 22.4051 22.9226 21.96 22.9422 21.5159C22.955 21.2274 23.1994 21.0036 23.4886 21.0159C23.7766 21.0294 24.0002 21.2732 23.9879 21.5618C23.9617 22.1434 23.8213 22.7307 23.5523 23.2855L23.5528 23.2849C23.3364 23.7334 23.0534 24.1288 22.7212 24.4655C23.338 25.3524 24.3643 25.9095 25.4738 25.909C25.6802 25.909 25.8894 25.8893 26.1008 25.8502C26.9078 25.6975 27.589 25.2714 28.0733 24.6825C28.5571 24.0936 28.8384 23.3452 28.8384 22.555C28.8384 22.5304 28.8378 22.5064 28.8372 22.4834V22.4801C28.8344 22.3012 28.8154 22.1155 28.7796 21.9287C28.6962 21.4841 28.5263 21.0808 28.2942 20.7229C27.9564 20.4248 27.5795 20.0367 27.2255 19.6038C26.8491 19.1425 26.5001 18.6386 26.2663 18.1302C26.1125 17.7896 26.0029 17.4467 26.0007 17.0838C26.0007 16.9233 26.0248 16.7572 26.0835 16.5967C26.1427 16.4362 26.2389 16.2818 26.3665 16.1554V16.156C26.5706 15.9513 26.9017 15.9513 27.1059 16.156C27.31 16.3596 27.31 16.6918 27.1059 16.8953C27.0857 16.9166 27.0756 16.9322 27.0656 16.9585C27.0555 16.9854 27.0471 17.0251 27.0471 17.0838C27.0449 17.2151 27.0992 17.439 27.2178 17.6945C27.3347 17.9501 27.5086 18.237 27.7128 18.5205C28.1182 19.0887 28.6444 19.6469 29.0404 19.9858L29.0942 20.0322L29.1339 20.0903C29.4582 20.573 29.6942 21.1283 29.8083 21.7351V21.7357C29.8246 21.8224 29.8352 21.9084 29.8463 21.9957C29.8978 21.998 29.9504 22.0024 30.0029 22.0024C30.6668 22.0019 31.334 21.8056 31.9212 21.3928C32.3882 21.0651 32.7433 20.6429 32.9844 20.1692C33.2254 19.6949 33.3507 19.1697 33.3501 18.6413C33.3501 18.1463 33.2394 17.6503 33.0157 17.1878C32.8104 17.2544 32.6013 17.307 32.3882 17.3438C32.1035 17.3931 31.8328 17.2017 31.7831 16.9166C31.735 16.6319 31.9262 16.3618 32.2109 16.3126C33.1376 16.1526 33.9849 15.6136 34.5106 14.7472C34.8428 14.2019 34.9994 13.6019 35 13.0074C35 12.1361 34.6605 11.2816 34.0347 10.6484ZM10.0617 6.65533C10.5622 6.06471 11.226 5.64471 11.9391 5.37011C12.6536 5.09551 13.4211 4.96296 14.1566 4.96296C14.8727 4.96351 15.5595 5.0871 16.1442 5.35555C16.4062 5.47641 16.5209 5.7873 16.4 6.04967C16.2787 6.31244 15.9678 6.4266 15.7055 6.30574C15.3009 6.11728 14.7492 6.00824 14.1566 6.00879C13.5481 6.00879 12.8977 6.12172 12.3152 6.34655C11.7316 6.57022 11.2199 6.90525 10.86 7.33086V7.33141C10.6738 7.55118 10.3436 7.57921 10.1229 7.39238C9.90254 7.20563 9.87492 6.87565 10.0617 6.65533ZM21.9697 19.0251C21.3618 19.0262 20.8096 18.9574 20.3054 18.8405C20.3193 18.9843 20.3288 19.1436 20.3288 19.3143C20.3288 19.6559 20.2925 20.0457 20.1843 20.4552C20.0764 20.864 19.8954 21.2935 19.6099 21.7062C19.4455 21.9434 19.1198 22.0026 18.8817 21.8382C18.6444 21.6738 18.5851 21.3483 18.7498 21.1101C18.9595 20.807 19.0915 20.4943 19.1728 20.1879C19.2539 19.8814 19.2827 19.5817 19.2827 19.3143C19.283 18.9457 19.2276 18.6398 19.1877 18.4676C18.9324 18.3518 18.695 18.221 18.4758 18.0778C17.6002 17.5096 17.0141 16.7613 16.6453 16.0482C16.3989 15.5723 16.2473 15.1103 16.1677 14.7098C16.1218 14.4817 16.0992 14.273 16.0992 14.0846C16.0992 13.7955 16.3332 13.5612 16.6226 13.5612C16.9115 13.5612 17.1456 13.7955 17.1456 14.0846C17.1447 14.2379 17.1774 14.4918 17.2605 14.7804C17.3429 15.0706 17.4746 15.4012 17.6651 15.7333C18.0468 16.3989 18.6536 17.0666 19.5887 17.5001C20.2136 17.7898 20.9912 17.9782 21.9697 17.9788C22.2586 17.9788 22.493 18.2131 22.493 18.5017C22.493 18.7908 22.2586 19.0251 21.9697 19.0251ZM25.6531 15.2048C25.5451 15.4727 25.2409 15.6035 24.9724 15.4956C24.7051 15.3888 24.5749 15.0862 24.6805 14.8177V14.8172L24.6839 14.8094C24.6872 14.8004 24.6922 14.7848 24.6995 14.7635C24.7135 14.7221 24.733 14.6561 24.7527 14.5744C24.7929 14.4094 24.8326 14.1762 24.8326 13.9201L24.8309 13.8826C24.1145 14.1265 23.4468 14.2378 22.8324 14.2378C21.9041 14.2389 21.1015 13.9844 20.4477 13.598C19.7928 13.2115 19.2839 12.6998 18.9036 12.1814C18.4713 11.5914 17.9037 11.0633 17.2541 10.6887C16.6037 10.3139 15.8755 10.0914 15.102 10.0909C14.4231 10.0925 13.7036 10.2614 12.9505 10.6736C12.2372 11.0662 11.7767 11.5886 11.4799 12.1613C11.185 12.7334 11.0616 13.3609 11.0619 13.9308C11.0605 14.4593 11.1713 14.9369 11.3166 15.2395C11.4402 15.5012 11.3287 15.8128 11.0675 15.9369C10.8066 16.0599 10.4945 15.9492 10.3706 15.6875C10.1441 15.2049 10.0171 14.5986 10.0157 13.9309C10.016 13.2681 10.148 12.5445 10.4699 11.8515C9.8214 11.9986 9.21881 12.0641 8.66879 12.0634C8.37211 12.064 8.09279 12.0434 7.82653 12.0109C7.80808 12.0802 7.77595 12.1473 7.72755 12.2061L7.72728 12.2066H7.72673L7.72058 12.2145C7.71497 12.2223 7.7052 12.2346 7.69234 12.2508C7.66685 12.2844 7.62884 12.3364 7.58105 12.4041C7.48597 12.5388 7.35376 12.739 7.21082 12.9913C6.92446 13.4947 6.59928 14.2032 6.44014 15.0002C6.38395 15.2837 6.10798 15.4677 5.8247 15.4107C5.54142 15.3541 5.35773 15.079 5.41447 14.7949C5.6041 13.8486 5.97652 13.0461 6.30062 12.475C6.46919 12.178 6.62409 11.9448 6.73743 11.7849C6.31073 11.6568 5.94132 11.5002 5.6402 11.3408C4.95168 10.975 4.59184 10.6076 4.56272 10.578C4.36222 10.3699 4.36844 10.0389 4.57618 9.83869C4.78365 9.63847 5.11362 9.64462 5.31378 9.85045L5.31433 9.8499L5.31939 9.85496L5.35158 9.88572C5.38234 9.91368 5.43238 9.95675 5.50061 10.0105C5.63705 10.1184 5.84794 10.2666 6.12979 10.4154C6.6943 10.714 7.53826 11.0166 8.66879 11.0178C9.46244 11.0178 10.4003 10.8661 11.4886 10.4478C11.7649 10.1912 12.082 9.9562 12.4477 9.75659C13.3422 9.26502 14.2452 9.04463 15.102 9.04524C16.079 9.04524 16.9895 9.3288 17.7766 9.78291C18.5646 10.2381 19.2333 10.8623 19.7472 11.5624C20.059 11.9875 20.4703 12.3974 20.9787 12.6967C21.4884 12.9959 22.0933 13.191 22.8323 13.1916C23.3376 13.1916 23.9092 13.0983 24.554 12.8717C24.398 12.6178 24.1625 12.3734 23.7761 12.1531C23.5244 12.011 23.4361 11.6911 23.5781 11.44C23.7202 11.1883 24.0395 11.0999 24.2907 11.2415C24.9097 11.5905 25.3242 12.0524 25.5641 12.5345C25.8063 13.0166 25.8789 13.5048 25.8789 13.9204C25.8768 14.6449 25.6665 15.1673 25.6531 15.2048ZM25.4573 8.79505C24.2348 8.7956 23.1654 8.46562 22.3003 7.96619C22.1792 8.1362 22.0153 8.34764 21.8047 8.57972C21.3316 9.0987 20.6354 9.70888 19.7045 10.0433C19.4324 10.1406 19.1332 9.99858 19.0358 9.72624C18.9388 9.4539 19.0805 9.15517 19.3526 9.05789C20.0386 8.8146 20.6129 8.33253 21.0117 7.89688C21.1954 7.69781 21.3391 7.51099 21.4434 7.36559C20.9262 6.92938 20.5192 6.43275 20.2407 5.92273C19.9745 5.4317 19.8207 4.92721 19.8193 4.43509C19.8193 4.14654 20.0534 3.91275 20.3422 3.91275C20.6311 3.91275 20.8654 4.14654 20.8654 4.43509C20.864 4.69964 20.9569 5.05251 21.1593 5.4222C21.3609 5.79298 21.667 6.17996 22.0659 6.52559C22.8644 7.21793 24.0194 7.74867 25.4572 7.74867C25.7459 7.74867 25.9802 7.98301 25.9802 8.2721C25.9803 8.56133 25.7459 8.79505 25.4573 8.79505ZM29.5813 16.1617C29.3968 16.3842 29.0668 16.4155 28.8442 16.2316C28.6217 16.0476 28.5903 15.7176 28.7743 15.495C29.3436 14.8016 29.555 14.1047 29.5567 13.4364C29.5578 12.8285 29.3727 12.2407 29.0808 11.7469C28.7905 11.2519 28.3924 10.8571 28.0087 10.6373C27.7532 10.4891 27.5099 10.4214 27.3174 10.4219C27.0283 10.4219 26.794 10.1881 26.794 9.89898C26.794 9.61044 27.0283 9.3761 27.3174 9.3761C27.6363 9.3761 27.9472 9.4539 28.2425 9.58412C28.5372 9.71387 28.8168 9.8968 29.0763 10.1205C29.5937 10.5679 30.0338 11.178 30.3095 11.8922C30.4935 12.3682 30.6037 12.8905 30.6037 13.4363C30.6053 14.3346 30.2989 15.2953 29.5813 16.1617Z" fill="#39683A"/>
</svg>
