<svg width="20" height="20" viewBox="0 0 20 20" fill="none" xmlns="http://www.w3.org/2000/svg">
<path fill-rule="evenodd" clip-rule="evenodd" d="M3 1V2.34708C2.35095 2.54034 1.77636 2.8406 1.30848 3.30848C0.74209 3.87488 0.42133 4.59764 0.23866 5.41959C0.0585201 6.23018 0 7.19557 0 8.312V13.688C0 14.8044 0.0585201 15.7698 0.23866 16.5804C0.42133 17.4024 0.74209 18.1251 1.30848 18.6915C1.87488 19.2579 2.59764 19.5787 3.41959 19.7613C4.23018 19.9415 5.19557 20 6.312 20H13.688C14.8044 20 15.7698 19.9415 16.5804 19.7613C17.4024 19.5787 18.1251 19.2579 18.6915 18.6915C19.2579 18.1251 19.5787 17.4024 19.7613 16.5804C19.9415 15.7698 20 14.8044 20 13.688V8.312C20 7.19557 19.9415 6.23018 19.7613 5.41959C19.5787 4.59764 19.2579 3.87488 18.6915 3.30848C18.2236 2.8406 17.6491 2.54034 17 2.34708V1C17 0.44772 16.5523 0 16 0C15.4477 0 15 0.44772 15 1V2.03477C14.5889 2.01008 14.1515 2 13.688 2H6.312C5.84855 2 5.41113 2.01008 5 2.03477V1C5 0.44772 4.55228 0 4 0C3.44772 0 3 0.44772 3 1ZM4 7C4 6.44772 4.44772 6 5 6H15C15.5523 6 16 6.44772 16 7C16 7.55228 15.5523 8 15 8H5C4.44772 8 4 7.55228 4 7Z" fill="#39683A"/>
</svg>
