<svg width="13" height="13" viewBox="0 0 13 13" fill="none" xmlns="http://www.w3.org/2000/svg">
<path fill-rule="evenodd" clip-rule="evenodd" d="M2.125 0.875V1.71693C1.71934 1.83771 1.36022 2.02537 1.0678 2.3178C0.713806 2.6718 0.513331 3.12352 0.399163 3.63724C0.286575 4.14386 0.25 4.74723 0.25 5.445V8.805C0.25 9.50275 0.286575 10.1061 0.399163 10.6127C0.513331 11.1265 0.713806 11.5782 1.0678 11.9322C1.4218 12.2862 1.87352 12.4867 2.38724 12.6008C2.89386 12.7134 3.49723 12.75 4.195 12.75H8.805C9.50275 12.75 10.1061 12.7134 10.6127 12.6008C11.1265 12.4867 11.5782 12.2862 11.9322 11.9322C12.2862 11.5782 12.4867 11.1265 12.6008 10.6127C12.7134 10.1061 12.75 9.50275 12.75 8.805V5.445C12.75 4.74723 12.7134 4.14386 12.6008 3.63724C12.4867 3.12352 12.2862 2.6718 11.9322 2.3178C11.6397 2.02537 11.2807 1.83771 10.875 1.71693V0.875C10.875 0.529825 10.5952 0.25 10.25 0.25C9.90481 0.25 9.625 0.529825 9.625 0.875V1.52173C9.36806 1.5063 9.09469 1.5 8.805 1.5H4.195C3.90534 1.5 3.63196 1.5063 3.375 1.52173V0.875C3.375 0.529825 3.09517 0.25 2.75 0.25C2.40482 0.25 2.125 0.529825 2.125 0.875ZM2.75 4.625C2.75 4.27982 3.02982 4 3.375 4H9.625C9.97019 4 10.25 4.27982 10.25 4.625C10.25 4.97017 9.97019 5.25 9.625 5.25H3.375C3.02982 5.25 2.75 4.97017 2.75 4.625Z" fill="#99A794"/>
</svg>
