<svg width="26" height="12" viewBox="0 0 26 12" fill="none" xmlns="http://www.w3.org/2000/svg">
<path d="M8 8.84775V8.07713C8 8.07713 8 6.24538 13 6.24538C18 6.24538 18 8.07713 18 8.07713V8.5625C18 9.758 18.9034 10.774 20.1255 10.9531L22.6255 11.3195C24.1381 11.5411 25.5 10.4084 25.5 8.92863V6.27287C25.5 5.53912 25.2702 4.81775 24.7129 4.32001C23.287 3.04665 19.776 0.75 13 0.75C5.81426 0.75 2.30034 3.97836 1.05104 5.48613C0.655875 5.963 0.5 6.56563 0.5 7.17675V9.58037C0.5 11.2029 2.11951 12.365 3.72496 11.8945L6.22496 11.1619C7.27911 10.8529 8 9.91312 8 8.84775Z" fill="white"/>
</svg>
