<svg width="20" height="20" viewBox="0 0 19 19" fill="none" xmlns="http://www.w3.org/2000/svg">
<path fill-rule="evenodd" clip-rule="evenodd" d="M2.04969 2.65291C3.11952 1.52787 3.4976 1.21233 3.9535 1.06548C4.269 0.98295 4.59988 0.978363 4.91756 1.05213C5.33577 1.17349 5.4464 1.26573 6.81769 2.62985C8.02246 3.82771 8.14282 3.95757 8.25831 4.1918C8.47921 4.60296 8.51373 5.08867 8.35314 5.5268C8.23157 5.86055 8.05893 6.08143 7.32829 6.81325L6.85173 7.29027C6.72663 7.41722 6.69721 7.60994 6.77878 7.76845C7.83767 9.57166 9.33981 11.0755 11.1432 12.1375C11.3509 12.2485 11.6065 12.2127 11.7754 12.0489L12.2337 11.5987C12.517 11.3087 12.817 11.0357 13.1321 10.7807C13.6272 10.4773 14.2439 10.4502 14.7636 10.7091C15.0177 10.8304 15.1016 10.9057 16.344 12.1436C17.6254 13.4191 17.6619 13.4592 17.8029 13.7517C18.0683 14.2358 18.0655 14.8222 17.7956 15.3039C17.6582 15.5758 17.5743 15.6741 16.8534 16.4095C16.4182 16.8537 16.0085 17.2591 15.9429 17.3185C15.3481 17.8101 14.5851 18.0512 13.8154 17.9909C12.4071 17.8627 11.0439 17.4281 9.82172 16.7178C7.11457 15.2858 4.80985 13.1996 3.1183 10.6496C2.74987 10.1159 2.42231 9.55516 2.13843 8.97237C1.37688 7.66929 0.983624 6.18452 1.00052 4.67604C1.05866 3.88689 1.43775 3.15587 2.04969 2.65291Z" stroke="#161528" stroke-width="1.5" stroke-linecap="round" stroke-linejoin="round"/>
</svg>
