<svg width="23" height="34" viewBox="0 0 32 34" fill="none" xmlns="http://www.w3.org/2000/svg">
<path fill-rule="evenodd" clip-rule="evenodd" d="M9.6 7C6.5072 7 4 9.3505 4 12.25V22.75C4 25.6494 6.5072 28 9.6 28H19.4C22.4927 28 25 25.6494 25 22.75V22.4158L27.3269 24.3791C29.1287 25.8995 32 24.7006 32 22.428V12.5721C32 10.2994 29.1287 9.10059 27.3269 10.6209L25 12.5842V12.25C25 9.3505 22.4927 7 19.4 7H9.6Z" fill="black"/>
<path fill-rule="evenodd" clip-rule="evenodd" d="M9.6 7C6.5072 7 4 9.3505 4 12.25V22.75C4 25.6494 6.5072 28 9.6 28H19.4C22.4927 28 25 25.6494 25 22.75V22.4158L27.3269 24.3791C29.1287 25.8995 32 24.7006 32 22.428V12.5721C32 10.2994 29.1287 9.10059 27.3269 10.6209L25 12.5842V12.25C25 9.3505 22.4927 7 19.4 7H9.6Z" fill="#161528"/>
<rect width="40.5102" height="3.46268" rx="1.73134" transform="matrix(0.644765 -0.764381 0.74483 0.667254 0 30.9653)" fill="#161528"/>
<rect width="39.8506" height="2.30845" rx="1.15423" transform="matrix(0.644765 -0.764381 0.74483 0.667254 1.58594 32.2083)" fill="white"/>
</svg>
