<svg width="25" height="25" viewBox="0 0 25 25" fill="none" xmlns="http://www.w3.org/2000/svg">
<path d="M2.25282 8.854C2.08398 10.0038 2.08398 11.5101 2.08398 13.5418C2.08398 17.4702 2.08398 19.4344 3.30437 20.6547C4.52477 21.8752 6.48894 21.8752 10.4173 21.8752H14.584C18.5123 21.8752 20.4766 21.8752 21.6969 20.6547C22.9173 19.4344 22.9173 17.4702 22.9173 13.5418C22.9173 11.5103 22.9173 10.004 22.7485 8.85421C20.377 10.3957 18.857 11.3788 17.4487 11.9842V12.5003C17.4487 12.9317 17.0989 13.2815 16.6674 13.2815C16.2417 13.2815 15.8954 12.9409 15.8864 12.5173C13.6673 13.1023 11.3342 13.1023 9.11514 12.5173C9.10608 12.9409 8.75985 13.2815 8.33408 13.2815C7.9026 13.2815 7.55283 12.9317 7.55283 12.5003V11.9841C6.14444 11.3787 4.62441 10.3955 2.25282 8.854Z" fill="#39683A"/>
<path fill-rule="evenodd" clip-rule="evenodd" d="M11.0221 2.34375H11.0008C10.8825 2.34373 10.7905 2.34372 10.7034 2.34899C9.59882 2.4159 8.63153 3.11308 8.21876 4.13986C8.18604 4.22124 8.1322 4.38288 8.09379 4.49818L8.08975 4.5103C7.98235 4.80189 7.78843 5.05442 7.56393 5.23473C7.32697 5.2424 7.10066 5.25229 6.88432 5.26505C5.17186 5.36609 4.08514 5.64711 3.30351 6.42873C3.04866 6.68359 2.84702 6.97088 2.6875 7.30172C2.74747 7.32219 2.80591 7.35034 2.86147 7.38645C5.04927 8.80851 6.42384 9.698 7.566 10.2686C7.63522 9.90798 7.95239 9.63551 8.33322 9.63551C8.76469 9.63551 9.11447 9.98529 9.11447 10.4168V10.8938C11.3222 11.56 13.6775 11.56 15.8853 10.8938V10.4168C15.8853 9.98529 16.2351 9.63551 16.6666 9.63551C17.0474 9.63551 17.3646 9.90802 17.4337 10.2687C18.5759 9.69807 19.9505 8.80858 22.1384 7.38645C22.194 7.3504 22.2523 7.32228 22.3122 7.30183C22.1526 6.97094 21.9509 6.68361 21.696 6.42873C20.9145 5.64711 19.8277 5.36609 18.1153 5.26505C17.9099 5.25294 17.6955 5.24341 17.4717 5.23592C17.4575 5.22443 17.4433 5.21256 17.4292 5.20033C17.1784 4.9837 16.9824 4.69803 16.8835 4.43009L16.8803 4.42025C16.8429 4.30809 16.8139 4.22078 16.7812 4.13986C16.3685 3.11308 15.4012 2.4159 14.2967 2.34899C14.2096 2.34372 14.1175 2.34373 13.9993 2.34375H11.0221ZM15.4348 5.01635L15.4301 5.00516L15.425 4.99256L15.4203 4.98012L15.4165 4.96976L15.4146 4.96454L15.4102 4.9518L15.4062 4.94004L15.4041 4.93351L15.4011 4.92483L15.3989 4.91749L15.397 4.91156C15.356 4.78863 15.3434 4.75213 15.3316 4.72266C15.144 4.25595 14.7043 3.93904 14.2022 3.90864C14.1685 3.90661 14.1274 3.90625 13.978 3.90625H11.0221C10.8727 3.90625 10.8315 3.90661 10.7979 3.90864C10.2959 3.93904 9.85626 4.25585 9.66858 4.72244L9.66583 4.72971L9.65753 4.75255C9.65062 4.77192 9.64221 4.79614 9.6325 4.82454C9.61529 4.87494 9.59596 4.93277 9.57636 4.99152L9.57446 4.99768L9.57213 5.00501L9.56928 5.01369L9.5671 5.02022L9.56311 5.03199L9.5587 5.04474L9.55684 5.04996L9.55305 5.06033L9.54828 5.07278L9.54321 5.08541L9.53886 5.09573L9.53819 5.09725C9.52368 5.1346 9.50831 5.17186 9.49211 5.209C9.78755 5.20834 10.0954 5.20834 10.4165 5.20834H14.5831C14.9076 5.20834 15.2186 5.20834 15.517 5.20902C15.4873 5.14538 15.4599 5.08109 15.4348 5.01635Z" fill="#39683A"/>
</svg>
