<svg width="15" height="15" viewBox="0 0 13 13" fill="none" xmlns="http://www.w3.org/2000/svg">
<path fill-rule="evenodd" clip-rule="evenodd" d="M1.95 0.65V1.5256C1.52812 1.65122 1.15463 1.84639 0.850512 2.15051C0.482359 2.51867 0.273865 2.98847 0.155129 3.52273C0.0380381 4.04962 0 4.67712 0 5.4028V8.8972C0 9.62286 0.0380381 10.2504 0.155129 10.7773C0.273865 11.3116 0.482359 11.7813 0.850512 12.1495C1.21867 12.5176 1.68847 12.7262 2.22273 12.8448C2.74962 12.962 3.37712 13 4.1028 13H8.8972C9.62286 13 10.2504 12.962 10.7773 12.8448C11.3116 12.7262 11.7813 12.5176 12.1495 12.1495C12.5176 11.7813 12.7262 11.3116 12.8448 10.7773C12.962 10.2504 13 9.62286 13 8.8972V5.4028C13 4.67712 12.962 4.04962 12.8448 3.52273C12.7262 2.98847 12.5176 2.51867 12.1495 2.15051C11.8453 1.84639 11.4719 1.65122 11.05 1.5256V0.65C11.05 0.291018 10.759 0 10.4 0C10.041 0 9.75 0.291018 9.75 0.65V1.3226C9.48278 1.30655 9.19847 1.3 8.8972 1.3H4.1028C3.80156 1.3 3.51723 1.30655 3.25 1.3226V0.65C3.25 0.291018 2.95898 0 2.6 0C2.24102 0 1.95 0.291018 1.95 0.65ZM2.6 4.55C2.6 4.19102 2.89102 3.9 3.25 3.9H9.75C10.109 3.9 10.4 4.19102 10.4 4.55C10.4 4.90898 10.109 5.2 9.75 5.2H3.25C2.89102 5.2 2.6 4.90898 2.6 4.55Z" fill="#8A98A1"/>
</svg>
