<svg width="18" height="18" viewBox="0 0 18 18" fill="none" xmlns="http://www.w3.org/2000/svg">
<path fill-rule="evenodd" clip-rule="evenodd" d="M8.99935 17.3334C13.6017 17.3334 17.3327 13.6024 17.3327 9.00002C17.3327 4.39765 13.6017 0.666687 8.99935 0.666687C4.39697 0.666687 0.666016 4.39765 0.666016 9.00002C0.666016 10.3331 0.979032 11.593 1.53557 12.7104C1.68347 13.0074 1.73269 13.3468 1.64695 13.6672L1.15061 15.5223C0.935141 16.3275 1.67186 17.0642 2.47714 16.8488L4.33217 16.3524C4.65262 16.2667 4.99202 16.3159 5.28896 16.4638C6.40632 17.0204 7.66627 17.3334 8.99935 17.3334ZM5.66602 10.0417C5.32084 10.0417 5.04102 10.3215 5.04102 10.6667C5.04102 11.0119 5.32084 11.2917 5.66602 11.2917H10.2493C10.5945 11.2917 10.8743 11.0119 10.8743 10.6667C10.8743 10.3215 10.5945 10.0417 10.2493 10.0417H5.66602ZM5.04102 7.75002C5.04102 7.40485 5.32084 7.12502 5.66602 7.12502H12.3327C12.6778 7.12502 12.9577 7.40485 12.9577 7.75002C12.9577 8.09519 12.6778 8.37502 12.3327 8.37502H5.66602C5.32084 8.37502 5.04102 8.09519 5.04102 7.75002Z" fill="#1C274C"/>
</svg>
