<svg width="16" height="17" viewBox="0 0 16 17" fill="none" xmlns="http://www.w3.org/2000/svg">
<g clip-path="url(#clip0_832_862)">
<path fill-rule="evenodd" clip-rule="evenodd" d="M8.00065 2.76587C4.5949 2.76587 1.83398 5.52678 1.83398 8.93254C1.83398 9.91994 2.06567 10.8517 2.47718 11.6779C2.64234 12.0095 2.70594 12.4061 2.60174 12.7955L2.20466 14.2795C2.13174 14.5521 2.38109 14.8015 2.65364 14.7285L4.13767 14.3315C4.52714 14.2273 4.92366 14.2909 5.25526 14.456C6.08146 14.8675 7.01325 15.0992 8.00065 15.0992C11.4064 15.0992 14.1673 12.3383 14.1673 8.93254C14.1673 5.52678 11.4064 2.76587 8.00065 2.76587ZM0.833984 8.93254C0.833984 4.9745 4.04261 1.76587 8.00065 1.76587C11.9587 1.76587 15.1673 4.9745 15.1673 8.93254C15.1673 12.8906 11.9587 16.0992 8.00065 16.0992C6.85512 16.0992 5.771 15.8301 4.80942 15.3511C4.66592 15.2797 4.51941 15.2645 4.39614 15.2975L2.91212 15.6945C1.89623 15.9663 0.966831 15.0369 1.23865 14.0211L1.63572 12.5371C1.6687 12.4138 1.65354 12.2673 1.58207 12.1238C1.10312 11.1622 0.833984 10.0781 0.833984 8.93254ZM4.83398 7.93254C4.83398 7.6564 5.05784 7.43254 5.33398 7.43254H10.6673C10.9435 7.43254 11.1673 7.6564 11.1673 7.93254C11.1673 8.20867 10.9435 8.43254 10.6673 8.43254H5.33398C5.05784 8.43254 4.83398 8.20867 4.83398 7.93254ZM4.83398 10.2659C4.83398 9.98974 5.05784 9.76587 5.33398 9.76587H9.00065C9.27678 9.76587 9.50065 9.98974 9.50065 10.2659C9.50065 10.542 9.27678 10.7659 9.00065 10.7659H5.33398C5.05784 10.7659 4.83398 10.542 4.83398 10.2659Z" fill="white"/>
</g>
<defs>
<clipPath id="clip0_832_862">
<rect width="16" height="16" fill="white" transform="translate(0 0.932495)"/>
</clipPath>
</defs>
</svg>
