<svg width="35" height="20" viewBox="0 0 35 20" fill="none" xmlns="http://www.w3.org/2000/svg">
<path fill-rule="evenodd" clip-rule="evenodd" d="M24.4867 0.350336C25.1108 0.86614 25.175 1.76325 24.6301 2.35408L8.91578 19.3955C8.63092 19.7043 8.21891 19.8816 7.78579 19.8816C7.35265 19.8816 6.94067 19.7043 6.6558 19.3955L0.370047 12.579C-0.174777 11.988 -0.110536 11.0909 0.513547 10.5751C1.13761 10.0593 2.0852 10.1201 2.63002 10.7111L7.78579 16.3021L22.3701 0.486194C22.9149 -0.104648 23.8625 -0.165467 24.4867 0.350336Z" fill="#181D17"/>
<path fill-rule="evenodd" clip-rule="evenodd" d="M34.5348 0.510237C35.1346 1.05115 35.1578 1.95004 34.5864 2.51799L17.4429 19.5593C17.1399 19.8606 16.7127 20.0208 16.2741 19.9978C15.8355 19.9749 15.4295 19.7712 15.1632 19.4402L14.3066 18.3751C13.8048 17.7512 13.9322 16.8602 14.5912 16.3851C15.1574 15.9768 15.9319 16.0083 16.4571 16.4209L32.4139 0.559183C32.9853 -0.0087483 33.9348 -0.0306745 34.5348 0.510237Z" fill="#181D17"/>
</svg>
