<svg width="60" height="60" viewBox="0 0 70 70" fill="none" xmlns="http://www.w3.org/2000/svg">
<path opacity="0.12" d="M61.25 46.6617V29.1616C61.25 20.912 61.25 16.7872 58.6871 14.2244C56.446 11.9833 53.0104 11.7019 46.6667 11.6666H23.3333C16.9895 11.7019 13.5539 11.9833 11.3128 14.2244C8.75 16.7872 8.75 20.912 8.75 29.1616V46.6617C8.75 54.9112 8.75 59.0359 11.3128 61.5988C13.8756 64.1617 18.0004 64.1617 26.25 64.1617H43.75C51.9995 64.1617 56.1243 64.1617 58.6871 61.5988C61.25 59.0359 61.25 54.9112 61.25 46.6617Z" fill="#8A98A1"/>
<path d="M23.334 10.2084C23.334 7.79212 25.2927 5.83337 27.709 5.83337H42.2923C44.7085 5.83337 46.6673 7.79212 46.6673 10.2084V13.125C46.6673 15.5413 44.7085 17.5 42.2923 17.5H27.709C25.2927 17.5 23.334 15.5413 23.334 13.125V10.2084Z" fill="#8A98A1"/>
<path d="M18.2285 30.625C18.2285 29.4169 19.2079 28.4375 20.416 28.4375H21.8743C23.0825 28.4375 24.0618 29.4169 24.0618 30.625C24.0618 31.8331 23.0825 32.8125 21.8743 32.8125H20.416C19.2079 32.8125 18.2285 31.8331 18.2285 30.625ZM28.4368 30.625C28.4368 29.4169 29.4163 28.4375 30.6243 28.4375H49.5827C50.7908 28.4375 51.7702 29.4169 51.7702 30.625C51.7702 31.8331 50.7908 32.8125 49.5827 32.8125H30.6243C29.4163 32.8125 28.4368 31.8331 28.4368 30.625ZM18.2285 40.8333C18.2285 39.6252 19.2079 38.6458 20.416 38.6458H21.8743C23.0825 38.6458 24.0618 39.6252 24.0618 40.8333C24.0618 42.0414 23.0825 43.0208 21.8743 43.0208H20.416C19.2079 43.0208 18.2285 42.0414 18.2285 40.8333ZM28.4368 40.8333C28.4368 39.6252 29.4163 38.6458 30.6243 38.6458H49.5827C50.7908 38.6458 51.7702 39.6252 51.7702 40.8333C51.7702 42.0414 50.7908 43.0208 49.5827 43.0208H30.6243C29.4163 43.0208 28.4368 42.0414 28.4368 40.8333ZM18.2285 51.0417C18.2285 49.8336 19.2079 48.8542 20.416 48.8542H21.8743C23.0825 48.8542 24.0618 49.8336 24.0618 51.0417C24.0618 52.2497 23.0825 53.2292 21.8743 53.2292H20.416C19.2079 53.2292 18.2285 52.2497 18.2285 51.0417ZM28.4368 51.0417C28.4368 49.8336 29.4163 48.8542 30.6243 48.8542H49.5827C50.7908 48.8542 51.7702 49.8336 51.7702 51.0417C51.7702 52.2497 50.7908 53.2292 49.5827 53.2292H30.6243C29.4163 53.2292 28.4368 52.2497 28.4368 51.0417Z" fill="#8A98A1"/>
</svg>
