<svg width="22" height="30" viewBox="0 0 26 31" fill="none" xmlns="http://www.w3.org/2000/svg">
<path d="M5.48454 30.4572C3.15121 30.4572 4.17788 24.2272 3.47788 18.7905C3.24454 17.0172 1.14455 15.3139 0.864545 13.9839C-0.0221214 9.45719 -1.44545 1.15052 3.85121 0.123857C9.14788 -0.90281 9.31121 4.79052 12.9045 4.79052C16.4979 4.79052 16.5679 -0.716143 21.8879 0.123857C27.2079 0.963857 25.5979 9.22386 24.8979 13.8905C24.6645 14.9405 22.3312 17.3439 22.1445 18.6972C21.3745 24.2972 22.8912 30.3639 20.2779 30.3639C18.1079 30.3639 17.1979 24.0172 15.6112 19.8639C14.9812 17.9272 14.1179 16.4572 12.9045 16.4572C9.31121 16.4572 8.72788 30.4572 5.48454 30.4572Z" fill="#39683A"/>
</svg>
