<svg width="160" height="160" viewBox="0 0 160 160" fill="none" xmlns="http://www.w3.org/2000/svg">
<path fill-rule="evenodd" clip-rule="evenodd" d="M55.4967 31.0859C55.546 30.8684 55.6053 30.6072 55.6807 30.2865C56.03 28.7996 56.605 26.6144 57.788 24.4606C58.9933 22.2668 60.8637 20.0433 63.796 18.5807C66.7183 17.1231 70.3833 16.5769 74.913 17.1808C79.9123 17.8474 89.957 19.5011 98.8287 24.0141C107.754 28.5545 116.112 36.362 116.112 49.369C116.112 56.0887 113.51 63.2987 110.995 67.9993C109.784 70.2613 108.345 72.42 106.907 73.5847C106.578 73.8517 106.11 74.1827 105.522 74.419C102.201 85.3653 92.031 93.333 80 93.333C68.8893 93.333 59.3657 86.538 55.358 76.877L55.2763 76.8883L54.0937 75.4523C54.0947 75.4537 54.0937 75.4523 56.6667 73.333L54.0937 75.4523L54.0893 75.447L54.083 75.4393L54.0653 75.4177L54.0097 75.3487C53.9643 75.2917 53.9017 75.2127 53.8237 75.112C53.6677 74.911 53.4507 74.6247 53.1867 74.2597C52.6597 73.531 51.9427 72.485 51.155 71.1803C49.5887 68.586 47.6957 64.8927 46.4887 60.5837C45.281 56.2727 44.726 51.22 45.9937 46.008C47.228 40.933 50.136 35.9377 55.4067 31.4803C55.4337 31.3644 55.463 31.2347 55.4967 31.0859ZM61.0957 73.212C63.8067 81.043 71.2467 86.6663 80 86.6663C89.7567 86.6663 97.8817 79.68 99.645 70.437L100.019 70.5617C100.005 70.365 100 70.1767 100 69.9997C100 64.4793 99.2343 60.6277 98.5193 58.231C98.3607 57.6987 98.204 57.237 98.058 56.8433L97.919 56.8483L97.786 56.8527C96.013 56.904 93.4963 56.8133 90.3473 56.2817C84.6247 55.3153 76.873 52.902 67.748 47.3127C67.5483 47.76 67.348 48.2623 67.1497 48.8227C66.4943 50.674 65.9573 52.87 65.4927 55.188C65.0827 57.232 64.745 59.287 64.4277 61.2177L64.3027 61.9763C63.9613 64.045 63.6173 66.0717 63.216 67.5433C62.519 70.0983 61.804 71.9113 61.0957 73.212ZM56.4313 67.0043C55.1723 64.818 53.801 61.9717 52.9083 58.7853C51.9133 55.2337 51.547 51.3847 52.4717 47.5833C53.3713 43.8837 55.5493 39.992 60.0277 36.307C60.833 35.761 61.2007 35.0267 61.2997 34.829L61.3013 34.8253C61.513 34.4027 61.6423 33.9757 61.719 33.703C61.826 33.3218 61.943 32.806 62.0503 32.3344C62.0923 32.1498 62.1327 31.972 62.1703 31.8117C62.486 30.4696 62.8977 29.0057 63.631 27.6706C64.3427 26.3757 65.319 25.271 66.7717 24.5464C68.234 23.8169 70.4923 23.3171 74.032 23.789C78.8767 24.4349 87.9857 25.9779 95.806 29.9561C103.573 33.907 109.446 39.8853 109.445 49.369C109.445 53.7373 107.977 58.701 106.212 62.621C105.879 60.0673 105.401 57.979 104.908 56.3253C104.456 54.8103 103.993 53.6667 103.623 52.8693C103.438 52.471 103.276 52.1597 103.15 51.9323C103.087 51.8187 103.034 51.7263 102.991 51.6543L102.934 51.562L102.913 51.5277L102.904 51.513L102.897 51.5037C102.897 51.502 102.896 51.5007 100.094 53.3063L102.896 51.5007L101.664 49.5893L99.4563 50.0343L99.41 50.0423C99.3517 50.0517 99.2437 50.0677 99.088 50.086C98.7767 50.123 98.274 50.169 97.5927 50.1887C96.2307 50.2283 94.1517 50.163 91.4573 49.708C86.082 48.8003 78.183 46.3287 68.587 39.9377L66.2547 38.3843L64.3237 40.4153C62.7327 42.0887 61.6523 44.374 60.865 46.5983C60.0573 48.8807 59.4473 51.4273 58.956 53.8773C58.5217 56.0443 58.164 58.2203 57.8483 60.1403L57.725 60.8903C57.367 63.06 57.0767 64.7163 56.784 65.7893C56.6637 66.2313 56.5457 66.6353 56.4313 67.0043Z" fill="#2F5233"/>
<path fill-rule="evenodd" clip-rule="evenodd" d="M59.7137 96.1833C59.0083 94.7766 58.1377 93.0403 56.6667 93.3753C38.6527 97.4776 20 109.315 20 121.899V140H140V121.899C140 111.987 128.427 102.538 114.709 96.9673C114.704 96.9569 114.699 96.9466 114.694 96.9359C114.679 96.9046 114.664 96.8733 114.648 96.8423L114.537 96.8979C110.892 95.4283 107.099 94.2326 103.333 93.3753C101.657 92.9936 99.925 95.3003 99.1643 96.7456H85.617C82.661 96.7459 81.1527 96.7456 79.674 96.7456H79.5897C78.079 96.7453 76.5683 96.7449 73.5463 96.7456H60C59.907 96.5689 59.812 96.3793 59.7137 96.1833ZM104.676 100.586C106.133 100.988 107.583 101.441 109.014 101.942C109.054 103.082 108.968 104.428 108.781 105.799C108.592 107.185 108.311 108.515 107.998 109.587C107.956 109.732 107.914 109.87 107.872 110H103.333C102.071 110 100.917 110.713 100.352 111.842L97.0187 118.509C96.787 118.972 96.6667 119.482 96.6667 120V126.666C96.6667 128.507 98.159 130 100 130H106.667V123.333H103.333V120.787L105.393 116.666H114.607L116.667 120.787V123.333H113.333V130H120C121.841 130 123.333 128.507 123.333 126.666V120C123.333 119.482 123.213 118.972 122.981 118.509L119.648 111.842C119.083 110.713 117.929 110 116.667 110H114.779C115.025 108.95 115.232 107.828 115.386 106.7C115.478 106.023 115.553 105.331 115.606 104.638C118.856 106.175 121.878 107.935 124.492 109.842C130.901 114.518 133.333 118.89 133.333 121.899V133.333H26.6667V121.899C26.6667 118.89 29.0991 114.518 35.5077 109.842C38.7283 107.492 42.5683 105.366 46.6903 103.606C46.7333 104.638 46.8327 105.687 46.971 106.7C47.1987 108.37 47.5427 110.026 47.959 111.454L47.9867 111.548C45.19 113.321 43.3333 116.443 43.3333 120C43.3333 125.523 47.8103 130 53.3333 130C58.8563 130 63.3333 125.523 63.3333 120C63.3333 114.874 59.477 110.649 54.507 110.068C54.4583 109.918 54.4087 109.758 54.359 109.587C54.0463 108.515 53.7653 107.185 53.5763 105.799C53.387 104.409 53.301 103.045 53.3443 101.896C53.3547 101.617 53.372 101.369 53.394 101.15C53.794 101.027 54.1947 100.907 54.596 100.792L55.9757 103.412H73.548C76.6373 103.412 78.125 103.412 79.632 103.412C81.1043 103.412 82.595 103.413 85.617 103.412H103.189L104.676 100.586ZM53.3333 123.382C55.128 123.382 56.6667 121.914 56.6667 120C56.6667 118.086 55.128 116.617 53.3333 116.617C51.5387 116.617 50 118.086 50 120C50 121.914 51.5387 123.382 53.3333 123.382Z" fill="#2F5233"/>
</svg>
