<svg width="60" height="60" viewBox="0 0 25 25" fill="none" xmlns="http://www.w3.org/2000/svg">
<path fill-rule="evenodd" clip-rule="evenodd" d="M3.49782 13.3112C2.86221 14.2918 3.12454 15.6554 3.6492 18.3823C4.02688 20.3455 4.21572 21.3269 4.87003 21.9783C5.03979 22.1473 5.22973 22.2971 5.43604 22.4247C6.2312 22.9166 7.28687 22.9166 9.3982 22.9166H16.6434C18.7548 22.9166 19.8105 22.9166 20.6056 22.4247C20.812 22.2971 21.0019 22.1473 21.1717 21.9783C21.8259 21.3269 22.0148 20.3455 22.3925 18.3823C22.9171 15.6554 23.1795 14.2918 22.5439 13.3112C22.3817 13.0609 22.1816 12.8344 21.9501 12.6388C21.0428 11.8724 19.5764 11.8724 16.6434 11.8724H9.3982C6.46528 11.8724 4.99883 11.8724 4.09158 12.6388C3.86006 12.8344 3.66003 13.0609 3.49782 13.3112ZM10.0991 17.8965C10.0991 17.4807 10.4558 17.1435 10.8959 17.1435H15.1456C15.5856 17.1435 15.9424 17.4807 15.9424 17.8965C15.9424 18.3123 15.5856 18.6495 15.1456 18.6495H10.8959C10.4558 18.6495 10.0991 18.3123 10.0991 17.8965Z" fill="#8A98A1"/>
<path opacity="0.5" d="M3.72464 13.0048C3.83558 12.8736 3.95812 12.7511 4.09101 12.6388C4.99826 11.8724 6.46471 11.8724 9.39763 11.8724H16.6429C19.5758 11.8724 21.0422 11.8724 21.9495 12.6388C22.0828 12.7514 22.2056 12.8742 22.3168 13.006V10.1623C22.3168 9.21553 22.3168 8.43003 22.228 7.80375C22.1342 7.14279 21.9297 6.55689 21.441 6.07551C21.3613 5.99699 21.2771 5.92246 21.189 5.8522C20.6559 5.42736 20.0168 5.25363 19.2934 5.17304C18.5964 5.0954 17.7184 5.09543 16.642 5.09544H16.2746C15.2516 5.09544 14.8848 5.08949 14.5527 5.00559C14.3574 4.95631 14.1703 4.88749 13.9944 4.80085C13.6984 4.6549 13.4404 4.43506 12.7158 3.79308L12.2219 3.35554C12.0145 3.1718 11.8731 3.04639 11.7214 2.93499C11.0707 2.45711 10.2784 2.16808 9.44886 2.09935C9.2557 2.08335 9.05859 2.08336 8.76355 2.08339L8.64228 2.08338C7.97492 2.08327 7.53448 2.0832 7.15205 2.14712C5.48033 2.42657 4.12851 3.59528 3.79924 5.14145C3.72433 5.49321 3.72445 5.89624 3.72463 6.47768L3.72464 13.0048Z" fill="#8A98A1"/>
</svg>
