<svg width="50" height="50" viewBox="0 0 70 70" fill="none" xmlns="http://www.w3.org/2000/svg">
<g clip-path="url(#clip0_124_737)">
<mask id="mask0_124_737" style="mask-type:luminance" maskUnits="userSpaceOnUse" x="0" y="0" width="70" height="70">
<path d="M35 70C54.33 70 70 54.33 70 35C70 15.67 54.33 0 35 0C15.67 0 0 15.67 0 35C0 54.33 15.67 70 35 70Z" fill="white"/>
</mask>
<g mask="url(#mask0_124_737)">
<path d="M0 17.5L35 13.125L70 17.5V52.5L35 56.875L0 52.5V17.5Z" fill="#FFDA44"/>
<path d="M0 0H70V17.5H0V0ZM0 52.5H70V70H0V52.5Z" fill="#D80027"/>
<path d="M19.6875 41.5625H17.5V30.625H19.6875V41.5625ZM37.1875 41.5625H39.375V30.625H37.1875V41.5625Z" fill="#EEEEEE"/>
<path d="M28.4375 44.8438C32.0619 44.8438 35 42.885 35 40.4688C35 38.0525 32.0619 36.0938 28.4375 36.0938C24.8131 36.0938 21.875 38.0525 21.875 40.4688C21.875 42.885 24.8131 44.8438 28.4375 44.8438Z" fill="#EEEEEE"/>
<path d="M19.6875 27.3438C19.6875 26.7397 19.1978 26.25 18.5938 26.25C17.9897 26.25 17.5 26.7397 17.5 27.3438V28.4375C17.5 29.0416 17.9897 29.5312 18.5938 29.5312C19.1978 29.5312 19.6875 29.0416 19.6875 28.4375V27.3438Z" fill="#D80027"/>
<path d="M39.375 27.3438C39.375 26.7397 38.8853 26.25 38.2812 26.25C37.6772 26.25 37.1875 26.7397 37.1875 27.3438V28.4375C37.1875 29.0416 37.6772 29.5312 38.2812 29.5312C38.8853 29.5312 39.375 29.0416 39.375 28.4375V27.3438Z" fill="#D80027"/>
<path d="M28.4375 37.1875V40.4688C28.4375 41.339 28.7832 42.1736 29.3986 42.7889C30.0139 43.4043 30.8485 43.75 31.7188 43.75C32.589 43.75 33.4236 43.4043 34.0389 42.7889C34.6543 42.1736 35 41.339 35 40.4688V37.1875H31.7188H28.4375Z" fill="#D80027"/>
<path d="M19.6875 28.4375H17.5C16.8959 28.4375 16.4062 28.9272 16.4062 29.5312C16.4062 30.1353 16.8959 30.625 17.5 30.625H19.6875C20.2916 30.625 20.7812 30.1353 20.7812 29.5312C20.7812 28.9272 20.2916 28.4375 19.6875 28.4375Z" fill="#FF9811"/>
<path d="M39.375 28.4375H37.1875C36.5834 28.4375 36.0938 28.9272 36.0938 29.5312C36.0938 30.1353 36.5834 30.625 37.1875 30.625H39.375C39.9791 30.625 40.4688 30.1353 40.4688 29.5312C40.4688 28.9272 39.9791 28.4375 39.375 28.4375Z" fill="#FF9811"/>
<path d="M19.6875 41.5625H17.5C16.8959 41.5625 16.4062 42.0522 16.4062 42.6562C16.4062 43.2603 16.8959 43.75 17.5 43.75H19.6875C20.2916 43.75 20.7812 43.2603 20.7812 42.6562C20.7812 42.0522 20.2916 41.5625 19.6875 41.5625Z" fill="#FF9811"/>
<path d="M39.375 41.5625H37.1875C36.5834 41.5625 36.0938 42.0522 36.0938 42.6562C36.0938 43.2603 36.5834 43.75 37.1875 43.75H39.375C39.9791 43.75 40.4688 43.2603 40.4688 42.6562C40.4688 42.0522 39.9791 41.5625 39.375 41.5625Z" fill="#FF9811"/>
<path d="M21.875 37.1875V40.4688C21.875 41.5625 22.4219 42.3828 23.1055 43.0664L23.7891 42.2461L24.4727 43.6133C24.9217 43.7234 25.3908 43.7234 25.8398 43.6133L26.5234 42.2461L27.207 43.0664C28.0273 42.3828 28.4375 41.5625 28.4375 40.4688V37.1875H27.207L26.5234 38.2812L25.8398 37.1875H24.4727L23.7891 38.2812L23.1055 37.1875H21.875Z" fill="#FF9811"/>
<path d="M16.6797 34.4531H40.1953ZM16.6797 37.7344H20.5078ZM36.3672 37.7344H40.1953Z" fill="black"/>
<path d="M16.6797 33.9062C16.5346 33.9062 16.3955 33.9639 16.293 34.0664C16.1904 34.169 16.1328 34.3081 16.1328 34.4531C16.1328 34.5982 16.1904 34.7373 16.293 34.8398C16.3955 34.9424 16.5346 35 16.6797 35H40.1953C40.3404 35 40.4795 34.9424 40.582 34.8398C40.6846 34.7373 40.7422 34.5982 40.7422 34.4531C40.7422 34.3081 40.6846 34.169 40.582 34.0664C40.4795 33.9639 40.3404 33.9062 40.1953 33.9062H16.6797ZM16.6797 37.1875C16.5346 37.1875 16.3955 37.2451 16.293 37.3477C16.1904 37.4502 16.1328 37.5893 16.1328 37.7344C16.1328 37.8794 16.1904 38.0185 16.293 38.1211C16.3955 38.2236 16.5346 38.2812 16.6797 38.2812H20.5078C20.6529 38.2812 20.792 38.2236 20.8945 38.1211C20.9971 38.0185 21.0547 37.8794 21.0547 37.7344C21.0547 37.5893 20.9971 37.4502 20.8945 37.3477C20.792 37.2451 20.6529 37.1875 20.5078 37.1875H16.6797ZM36.3672 37.1875C36.2221 37.1875 36.083 37.2451 35.9805 37.3477C35.8779 37.4502 35.8203 37.5893 35.8203 37.7344C35.8203 37.8794 35.8779 38.0185 35.9805 38.1211C36.083 38.2236 36.2221 38.2812 36.3672 38.2812H40.1953C40.3404 38.2812 40.4795 38.2236 40.582 38.1211C40.6846 38.0185 40.7422 37.8794 40.7422 37.7344C40.7422 37.5893 40.6846 37.4502 40.582 37.3477C40.4795 37.2451 40.3404 37.1875 40.1953 37.1875H36.3672Z" fill="#D80027"/>
<path d="M26.7969 22.9688C25.8398 22.9688 25.0195 23.6523 24.7461 24.4727L24.0625 24.3359C22.832 24.3359 21.875 25.293 21.875 26.5234C21.875 27.7539 22.832 28.7109 24.0625 28.7109C25.0195 28.7109 25.8398 28.1641 26.1133 27.207C26.512 27.3509 26.944 27.3758 27.3566 27.2787C27.7692 27.1816 28.1447 26.9667 28.4375 26.6602C28.7303 26.9667 29.1058 27.1816 29.5184 27.2787C29.931 27.3758 30.363 27.3509 30.7617 27.207C30.8944 27.6211 31.1474 27.9863 31.4886 28.2559C31.8298 28.5255 32.2435 28.6873 32.6771 28.7207C33.1106 28.7541 33.5443 28.6575 33.9227 28.4432C34.3011 28.229 34.607 27.9069 34.8015 27.5179C34.9959 27.129 35.0701 26.691 35.0144 26.2597C34.9588 25.8284 34.7759 25.4236 34.4891 25.0967C34.2022 24.7699 33.8245 24.536 33.4041 24.4248C32.9838 24.3137 32.5398 24.3303 32.1289 24.4727C31.9971 24.1182 31.7756 23.804 31.486 23.5607C31.1965 23.3174 30.8489 23.1533 30.477 23.0844C30.1051 23.0155 29.7218 23.0443 29.3643 23.1678C29.0069 23.2913 28.6875 23.5053 28.4375 23.7891C28.0273 23.2422 27.4805 22.9688 26.7969 22.9688ZM26.7969 24.0625C27.4805 24.0625 27.8906 24.6094 27.8906 25.1562C27.8906 25.8398 27.4805 26.25 26.7969 26.25C26.25 26.25 25.7031 25.8398 25.7031 25.1562C25.7031 24.6094 26.25 24.0625 26.7969 24.0625ZM30.0781 24.0625C30.7617 24.0625 31.1719 24.6094 31.1719 25.1562C31.1719 25.8398 30.7617 26.25 30.0781 26.25C29.5312 26.25 28.9844 25.8398 28.9844 25.1562C28.9844 24.6094 29.5312 24.0625 30.0781 24.0625ZM24.0625 25.4297L24.6094 25.5664L25.1562 26.6602C25.1562 27.207 24.6094 27.6172 24.0625 27.6172C23.5156 27.6172 22.9688 27.207 22.9688 26.5234C22.9688 25.9766 23.5156 25.4297 24.0625 25.4297ZM32.8125 25.4297C33.4961 25.4297 33.9062 25.9766 33.9062 26.5234C33.9062 27.207 33.4961 27.6172 32.8125 27.6172C32.2656 27.6172 31.7188 27.207 31.7188 26.6602L32.2656 25.5664L32.8125 25.4297Z" fill="#EEEEEE"/>
<path d="M27.3438 21.875H29.5312V26.25H27.3438V21.875Z" fill="#FF9811"/>
<path d="M28.4375 30.625H35V37.1875H28.4375V30.625Z" fill="#EEEEEE"/>
<path d="M33.9062 28.4375L32.8125 29.5312H24.0625L22.9688 28.4375C22.9688 26.6602 25.4297 25.1562 28.4375 25.1562C31.4453 25.1562 33.9062 26.6602 33.9062 28.4375ZM21.875 30.625H28.4375V37.1875H21.875V30.625Z" fill="#D80027"/>
<path d="M33.0859 33.0859C33.0859 32.3309 32.4738 31.7188 31.7188 31.7188C30.9637 31.7188 30.3516 32.3309 30.3516 33.0859V34.7266C30.3516 35.4816 30.9637 36.0938 31.7188 36.0938C32.4738 36.0938 33.0859 35.4816 33.0859 34.7266V33.0859Z" fill="#D80027"/>
<path d="M22.9688 31.7188V32.8125H24.0625V35H22.9688V36.0938H27.3438V35H26.25V32.8125H27.3438V31.7188H22.9688ZM24.0625 29.5312H32.8125V30.625H24.0625V29.5312Z" fill="#FF9811"/>
<path d="M25.4297 28.4375C25.8827 28.4375 26.25 28.0702 26.25 27.6172C26.25 27.1641 25.8827 26.7969 25.4297 26.7969C24.9766 26.7969 24.6094 27.1641 24.6094 27.6172C24.6094 28.0702 24.9766 28.4375 25.4297 28.4375Z" fill="#FFDA44"/>
<path d="M28.4375 28.4375C28.8905 28.4375 29.2578 28.0702 29.2578 27.6172C29.2578 27.1641 28.8905 26.7969 28.4375 26.7969C27.9845 26.7969 27.6172 27.1641 27.6172 27.6172C27.6172 28.0702 27.9845 28.4375 28.4375 28.4375Z" fill="#FFDA44"/>
<path d="M31.4453 28.4375C31.8984 28.4375 32.2656 28.0702 32.2656 27.6172C32.2656 27.1641 31.8984 26.7969 31.4453 26.7969C30.9923 26.7969 30.625 27.1641 30.625 27.6172C30.625 28.0702 30.9923 28.4375 31.4453 28.4375Z" fill="#FFDA44"/>
<path d="M23.1055 37.1875V43.0664C23.5139 43.3499 23.9814 43.5369 24.4727 43.6133V37.1875H23.1055ZM25.8398 37.1875V43.6133C26.3311 43.5369 26.7986 43.3499 27.207 43.0664V37.1875H25.8398Z" fill="#D80027"/>
<path d="M28.4375 39.375C29.6456 39.375 30.625 38.3956 30.625 37.1875C30.625 35.9794 29.6456 35 28.4375 35C27.2294 35 26.25 35.9794 26.25 37.1875C26.25 38.3956 27.2294 39.375 28.4375 39.375Z" fill="#338AF3"/>
<path d="M39.375 43.75H37.1875C36.5834 43.75 36.0938 44.2397 36.0938 44.8438C36.0938 45.4478 36.5834 45.9375 37.1875 45.9375H39.375C39.9791 45.9375 40.4688 45.4478 40.4688 44.8438C40.4688 44.2397 39.9791 43.75 39.375 43.75Z" fill="#338AF3"/>
<path d="M19.6875 43.75H17.5C16.8959 43.75 16.4062 44.2397 16.4062 44.8438C16.4062 45.4478 16.8959 45.9375 17.5 45.9375H19.6875C20.2916 45.9375 20.7812 45.4478 20.7812 44.8438C20.7812 44.2397 20.2916 43.75 19.6875 43.75Z" fill="#338AF3"/>
</g>
</g>
<defs>
<clipPath id="clip0_124_737">
<rect width="70" height="70" fill="white"/>
</clipPath>
</defs>
</svg>
