<svg width="40" height="40" viewBox="0 0 60 60" fill="none" xmlns="http://www.w3.org/2000/svg">
<g clip-path="url(#clip0_653_584)">
<path d="M38.3151 0C30.1435 0 21.6735 2.76101 22.5347 14.5793C20.2061 13.7031 17.4659 11.8542 16.4291 7.95631C15.9457 6.14523 14.0892 5.07066 12.2763 5.55034C10.4671 6.0338 9.39251 7.89021 9.87786 9.69941C12.0988 18.0334 19.124 21.1759 23.9775 21.9445C25.4487 27.0492 25.222 31.2039 24.3099 34.59L24.308 34.5825C24.2872 34.675 24.2665 34.7638 24.24 34.8525C24.2343 34.8658 24.2325 34.8752 24.2306 34.8903C23.0011 39.1432 18.193 40.2801 15.6926 40.5898C10.5615 39.4832 8.09888 41.8344 7.06964 43.3886C4.2482 47.6416 6.27835 54.4534 9.6248 58.7064C10.2914 59.5581 11.2905 60.0019 12.2914 60.0019C13.0298 60.0019 13.7644 59.7658 14.382 59.2748C15.8531 58.1209 16.11 55.9888 14.9542 54.5158C12.6294 51.5527 12.1856 47.7983 12.6917 47.1543C12.8164 47.0882 13.4453 46.9749 14.7295 47.3281C16.9126 47.9211 19.0107 48.2572 20.7689 48.4498C22.3194 48.9106 24.8462 49.2052 28.7252 49.4092C41.2385 50.057 51.7462 38.4634 53.918 23.3874C56.0539 8.5663 47.939 0 38.3151 0Z" fill="#39683A"/>
</g>
<defs>
<clipPath id="clip0_653_584">
<rect width="60" height="60" fill="white"/>
</clipPath>
</defs>
</svg>
