<svg width="40" height="40" viewBox="0 0 60 60" fill="none" xmlns="http://www.w3.org/2000/svg">
<path d="M8.51995 15.9054C7.51925 16.816 7.20546 17.9266 7.81947 18.911C8.61467 20.1858 9.52127 21.2621 10.3241 22.0948C9.63456 22.1505 9.02426 22.3904 8.57041 22.8278C8.39047 23.0013 8.24404 23.1971 8.13007 23.411C7.33575 22.546 6.47427 21.478 5.6983 20.2341C4.19626 17.8261 5.34395 15.4152 6.83737 14.0564C7.59721 13.3649 8.53681 12.8396 9.49414 12.6169C10.4398 12.3969 11.5727 12.4434 12.4782 13.1693C14.4524 14.7518 15.4595 14.9614 16.1255 15.0196C16.2501 15.0305 16.3934 15.0335 16.553 15.037C17.2584 15.0523 18.2833 15.0744 19.4248 15.8063L18.0753 17.9108C17.564 17.583 17.3229 17.5753 16.767 17.5576C16.5439 17.5505 16.2701 17.5418 15.9078 17.5101C14.6341 17.3988 13.1725 16.9299 10.9145 15.1199C10.8127 15.0383 10.5603 14.9356 10.0607 15.0519C9.57279 15.1654 9.00717 15.462 8.51995 15.9054Z" fill="#39683A"/>
<path fill-rule="evenodd" clip-rule="evenodd" d="M16.1179 25.1788C18.2183 27.115 18.8042 29.761 17.4263 31.089C16.0486 32.4168 13.2288 31.924 11.1284 29.9878C9.02795 28.0518 8.44214 25.4058 9.81996 24.0778C11.1978 22.7498 14.0174 23.2428 16.1179 25.1788ZM14.3179 26.9138C15.0541 27.5923 15.4388 28.3221 15.5579 28.8603C15.6241 29.1588 15.6003 29.3173 15.5789 29.3861C15.5066 29.4077 15.3388 29.4336 15.0208 29.378C14.4472 29.2777 13.6646 28.9315 12.9284 28.253C12.1923 27.5745 11.8076 26.8447 11.6884 26.3065C11.6223 26.008 11.646 25.8493 11.6674 25.7807C11.7398 25.759 11.9075 25.7331 12.2255 25.7887C12.7992 25.889 13.5818 26.2352 14.3179 26.9138ZM15.5604 29.4271C15.5598 29.4281 15.5597 29.4286 15.5598 29.4287C15.5602 29.429 15.5627 29.4256 15.5664 29.4182C15.5654 29.4195 15.5646 29.4206 15.5638 29.4216C15.5641 29.4213 15.5636 29.422 15.5638 29.4216C15.5626 29.4236 15.5609 29.4261 15.5604 29.4271ZM15.6127 29.3736C15.6197 29.3686 15.6236 29.3667 15.6237 29.3671C15.6239 29.3675 15.6206 29.37 15.6127 29.3736ZM11.6828 25.7446C11.6857 25.7405 11.6868 25.7382 11.6865 25.7381C11.6862 25.7378 11.6836 25.7412 11.6799 25.7486C11.681 25.7471 11.682 25.7458 11.6828 25.7446ZM11.6336 25.7932C11.6267 25.7982 11.6228 25.8 11.6226 25.7997C11.6224 25.7993 11.6258 25.7968 11.6336 25.7932Z" fill="#39683A"/>
<path d="M52.1795 18.911C52.7935 17.9266 52.4797 16.816 51.479 15.9054C50.9918 15.462 50.4262 15.1654 49.9382 15.0519C49.4386 14.9356 49.1862 15.0383 49.0845 15.1199C46.8265 16.9299 45.3648 17.3988 44.0912 17.5101C43.7288 17.5418 43.4551 17.5505 43.232 17.5576C42.6761 17.5753 42.435 17.583 41.9237 17.9108L40.5742 15.8063C41.7157 15.0744 42.7406 15.0523 43.446 15.037C43.6056 15.0335 43.7488 15.0305 43.8735 15.0196C44.5395 14.9614 45.5466 14.7518 47.5208 13.1693C48.4262 12.4434 49.5592 12.3969 50.5048 12.6169C51.4622 12.8396 52.4017 13.3649 53.1616 14.0564C54.655 15.4152 55.8027 17.8261 54.3007 20.2341C53.5083 21.5043 52.627 22.5909 51.8188 23.4653C51.7012 23.2303 51.5455 23.0158 51.3505 22.8278C50.9125 22.4056 50.3287 22.1675 49.6686 22.1013C50.473 21.2678 51.3822 20.1891 52.1795 18.911Z" fill="#39683A"/>
<path fill-rule="evenodd" clip-rule="evenodd" d="M43.8022 25.1788C41.7018 27.115 41.1159 29.761 42.4938 31.089C43.8716 32.4168 46.6913 31.924 48.7917 29.9878C50.8922 28.0518 51.4779 25.4058 50.1002 24.0778C48.7223 22.7498 45.9027 23.2428 43.8022 25.1788ZM45.6022 26.9138C44.8661 27.5923 44.4813 28.3221 44.3622 28.8603C44.2961 29.1588 44.3198 29.3173 44.3412 29.3861C44.4136 29.4077 44.5813 29.4336 44.8993 29.378C45.4729 29.2777 46.2556 28.9315 46.9917 28.253C47.7278 27.5745 48.1126 26.8447 48.2317 26.3065C48.2978 26.008 48.2742 25.8493 48.2527 25.7807C48.1803 25.759 48.0127 25.7331 47.6946 25.7887C47.1209 25.889 46.3383 26.2352 45.6022 26.9138ZM44.3563 29.4216C44.3594 29.4261 44.3606 29.4286 44.3603 29.4287C44.3599 29.429 44.3574 29.4256 44.3537 29.4182C44.3547 29.4195 44.3556 29.4206 44.3563 29.4216ZM44.3019 29.3698L44.3074 29.3736L44.3037 29.3717L44.2992 29.3692C44.2972 29.3681 44.2963 29.3672 44.2964 29.3671M48.2336 25.7381C48.2332 25.7382 48.2351 25.742 48.2402 25.7486C48.2366 25.7412 48.2339 25.7378 48.2336 25.7381ZM48.2866 25.7932C48.2934 25.7982 48.2973 25.8 48.2976 25.7997C48.2978 25.7993 48.2943 25.7968 48.2866 25.7932Z" fill="#39683A"/>
<path fill-rule="evenodd" clip-rule="evenodd" d="M22.5146 15.5929C24.1693 14.3974 26.6221 13.75 30.0126 13.75C33.3851 13.75 35.8365 14.34 37.4903 15.4549C39.2148 16.6175 39.9426 18.2639 39.9966 19.9851C40.0486 21.6394 39.4843 23.3234 38.743 24.761C37.9953 26.2112 37.0106 27.5215 36.0838 28.4529C35.5098 29.0298 35.0959 29.987 34.8418 31.376C34.5908 32.7482 34.5235 34.374 34.5074 36.1364C34.5024 36.6891 34.5024 37.2595 34.5025 37.8361C34.5028 39.0522 34.5029 40.2979 34.455 41.4634C34.3843 43.1861 34.206 44.9014 33.7129 46.3373C33.6198 46.6081 33.4253 47.0164 32.9935 47.28C32.5089 47.5761 32.0124 47.5219 31.6883 47.4125C31.3939 47.3133 31.159 47.1462 31.0096 47.0286C30.8476 46.901 30.695 46.7572 30.5676 46.6326C30.4645 46.5316 30.3766 46.4431 30.2974 46.363C30.1821 46.2469 30.0849 46.1487 29.9848 46.0572C29.8549 46.1597 29.739 46.2615 29.6033 46.3807C29.4985 46.4726 29.3821 46.5749 29.2384 46.6958C28.9929 46.9024 28.5378 47.2811 28.0228 47.4294C27.7191 47.5168 27.2606 47.5639 26.7963 47.3181C26.344 47.0789 26.1139 46.6814 25.9971 46.3705C25.4651 44.9536 25.1888 43.2025 25.0155 41.4181C24.8746 39.9667 24.7961 38.4186 24.7206 36.9285L24.7205 36.9256C24.7028 36.5753 24.6851 36.2274 24.6669 35.8855C24.5698 34.0595 24.4551 32.3854 24.2183 31.0206C23.9696 29.5889 23.6293 28.7905 23.2934 28.4529C22.5348 27.6906 21.6898 26.4548 21.051 25.0498C20.4123 23.6449 19.9231 21.9471 20.01 20.2659C20.0995 18.536 20.806 16.8273 22.5146 15.5929ZM29.7508 45.8679C29.7468 45.8659 29.7461 45.8652 29.7493 45.867L29.7508 45.8679Z" fill="#39683A"/>
</svg>
