<svg width="47" height="47" viewBox="0 0 35 35" fill="none" xmlns="http://www.w3.org/2000/svg">
<path d="M14.584 4.375H17.5007V6.30279C18.4284 6.2463 19.3276 6.30031 20.1356 6.47088C16.7082 7.81987 15.1314 11.2866 14.8732 11.8544L14.8573 11.8891C14.0197 11.762 13.1124 11.6562 12.2538 11.6641C11.369 11.7395 10.5105 11.8703 9.09677 12.6666C8.89741 12.8074 8.62864 13.0385 8.2634 13.3909C8.23686 13.3717 8.20842 13.354 8.17124 13.3308C8.14149 13.3122 8.10598 13.2901 8.06135 13.2609C7.85945 13.129 7.56464 12.9505 7.20516 12.7722C6.46464 12.4048 5.55625 12.0915 4.66602 12.0915V9.26355C6.20532 9.26355 7.58929 9.78615 8.53371 10.2547C8.86132 10.4172 9.14883 10.5797 9.38676 10.7241C9.59727 10.2748 9.87501 9.85688 10.2071 9.47158L8.60538 6.95823L11.1728 5.29096L12.6504 7.6098C13.259 7.29597 13.9117 7.03555 14.584 6.83089V4.375Z" fill="#39683A"/>
<path d="M22.4271 10.7122C21.3642 11.2049 20.4441 12.0148 19.6146 13.5737C19.6146 13.5737 17.7743 12.7321 16.2812 12.2947C17.4271 9.97156 18.7606 8.66445 20.7269 7.75299C22.629 6.87131 24.8982 6.64555 27.5938 6.7387L27.4662 10.2084C24.979 10.1224 23.5542 10.1897 22.4271 10.7122Z" fill="#39683A"/>
<path d="M9.68397 14.0141C4.38827 18.7377 11.9535 30.5465 18.0058 30.5465C24.058 30.5465 32.3918 18.7482 26.3276 13.3394C26.1877 13.2145 26.0652 13.1022 25.9515 12.998C25.4502 12.5384 25.1166 12.2326 24.1918 11.6826C22.3307 11.6826 21.2092 13.5443 20.6986 14.6784C20.6727 14.736 20.6406 14.7897 20.6036 14.839L19.4266 18.1134L19.0024 19.6361C18.9577 19.7969 18.9693 19.9681 19.0356 20.1213L19.531 21.2662L22.0962 20.9685L22.2643 22.417L19.8518 22.6971L20.0085 24.9953L18.5536 25.0945L18.358 22.2276L17.6972 20.7004C17.4984 20.2408 17.4632 19.727 17.5975 19.2447L17.6102 19.1992L16.1271 19.8699L15.1574 22.3212L13.8013 21.7848L14.5693 19.8435L12.2283 19.2919L12.5627 17.8724L15.4834 18.5606L18.1496 17.3547L19.0462 14.8606C16.7362 13.7753 11.9924 11.955 9.68397 14.0141Z" fill="#39683A"/>
</svg>
