<svg width="17" height="17" viewBox="0 0 15 15" fill="none" xmlns="http://www.w3.org/2000/svg">
<path fill-rule="evenodd" clip-rule="evenodd" d="M3.75 0H5.625V1.875H9.375V3.75H8.31381C8.03506 5.31559 7.29913 6.72297 6.249 7.82917C6.99907 8.1932 7.83503 8.40789 8.71826 8.43466L9.63141 5.625H11.9311L14.978 15H13.0064L12.397 13.125H9.16544L8.55606 15H6.58453L8.1204 10.2742C6.86849 10.1517 5.70155 9.7395 4.68749 9.10543C3.46402 9.87037 2.01802 10.3125 0.46875 10.3125H0V8.4375H0.46875C1.42134 8.4375 2.32289 8.21892 3.12597 7.82917C2.51607 7.18671 2.01215 6.44264 1.64223 5.625H3.77043C4.03147 6.03273 4.33972 6.40731 4.68749 6.74104C5.51947 5.94263 6.12533 4.91041 6.39944 3.75H0V1.875H3.75V0ZM11.7877 11.25L10.7812 8.15333L9.77484 11.25H11.7877Z" fill="white"/>
</svg>
