<svg width="45" height="45" viewBox="0 0 45 45" fill="none" xmlns="http://www.w3.org/2000/svg">
<circle cx="22.5" cy="22.5" r="22.5" fill="url(#paint0_linear_198_232)"/>
<path d="M34.0936 19.7778C34.0523 18.3211 33.9138 17.3923 33.4471 16.5997C32.7833 15.4725 31.588 14.8452 29.1972 13.5906L26.975 12.4244C25.0243 11.4008 24.049 10.8889 22.9998 10.8889C21.9506 10.8889 20.9752 11.4008 19.0245 12.4244L16.8023 13.5906C14.4116 14.8452 13.2162 15.4725 12.5524 16.5997C11.8887 17.727 11.8887 19.1297 11.8887 21.935V22.065C11.8887 24.8704 11.8887 26.2731 12.5524 27.4004C13.2162 28.5276 14.4116 29.1548 16.8023 30.4095L19.0245 31.5756C20.9752 32.5993 21.9506 33.1111 22.9998 33.1111C24.049 33.1111 25.0243 32.5993 26.975 31.5756L29.1972 30.4095C31.588 29.1548 32.7833 28.5276 33.4471 27.4004C33.9138 26.6077 34.0523 25.679 34.0936 24.2222" stroke="black" stroke-width="2.66667" stroke-linecap="round"/>
<path d="M33 17L23 22M23 22L13 17M23 22V32.5556" stroke="black" stroke-width="2.66667" stroke-linecap="round"/>
<defs>
<linearGradient id="paint0_linear_198_232" x1="36.5" y1="41" x2="5.5" y2="8.5" gradientUnits="userSpaceOnUse">
<stop stop-color="#C1EFAF"/>
<stop offset="1" stop-color="#E4ECDD"/>
</linearGradient>
</defs>
</svg>
