<svg width="35" height="35" viewBox="0 0 60 60" fill="none" xmlns="http://www.w3.org/2000/svg">
<g clip-path="url(#clip0_652_570)">
<path d="M36.5546 19.955C32.9883 19.955 32.8135 18.7968 32.8135 16.5763V4.45537C32.8135 2.9045 31.5516 1.64258 30.0007 1.64258C28.4499 1.64258 27.1879 2.9045 27.1879 4.45537V16.5763C27.1879 18.7968 27.0132 19.955 23.4459 19.955C23.1867 19.955 22.9688 20.1648 22.9688 20.424V25.1121C22.9688 25.3713 23.1886 25.5811 23.4478 25.5811C26.2342 25.5811 28.4393 24.9422 29.9993 23.6813C31.5598 24.9422 33.7687 25.5811 36.5546 25.5811C36.8138 25.5811 37.0327 25.3713 37.0327 25.1121V20.424C37.0327 20.1648 36.8138 19.955 36.5546 19.955Z" fill="#39683A"/>
<path d="M24.6029 32.4704C24.2726 29.5069 23.9323 26.4412 23.9323 23.4709C23.9323 15.9326 23.1072 5.91113 15.9792 5.91113C7.31281 5.91113 0.000501338 28.9213 0.000501338 43.3698C-0.00285866 43.8258 -0.0561387 54.5754 2.8877 57.5427C3.42433 58.0832 4.03585 58.3577 4.70641 58.3577C6.47809 58.3577 7.35889 57.6809 8.57856 56.7454C10.1088 55.5709 12.2035 53.9619 17.5195 52.4293C26.532 49.8306 25.5955 41.3989 24.6029 32.4704Z" fill="#39683A"/>
<path d="M60 43.3736C60 28.9218 52.6882 5.91113 44.0223 5.91113C36.8933 5.91113 36.0696 15.9326 36.0696 23.4709C36.0696 26.4412 35.7288 29.5064 35.3996 32.4704C34.4069 41.3989 33.4695 49.8306 42.4829 52.4293C47.7979 53.9619 49.8931 55.5709 51.4229 56.7445C52.6426 57.6809 53.5234 58.3577 55.295 58.3577C55.9651 58.3577 56.5766 58.0832 57.1133 57.5427C60.0566 54.5754 60.0038 43.8263 60 43.3736Z" fill="#39683A"/>
</g>
<defs>
<clipPath id="clip0_652_570">
<rect width="60" height="60" fill="white"/>
</clipPath>
</defs>
</svg>
