<svg width="10" height="10" viewBox="0 0 10 10" fill="none" xmlns="http://www.w3.org/2000/svg">
<path fill-rule="evenodd" clip-rule="evenodd" d="M2.11183 6.38975L5 10L7.88819 6.38975C8.44606 5.69243 8.75 4.82596 8.75 3.93291V3.75C8.75 1.67893 7.07106 0 5 0C2.92893 0 1.25 1.67893 1.25 3.75V3.93291C1.25 4.82596 1.55394 5.69243 2.11183 6.38975ZM5 5C5.69036 5 6.25 4.44036 6.25 3.75C6.25 3.05964 5.69036 2.5 5 2.5C4.30964 2.5 3.75 3.05964 3.75 3.75C3.75 4.44036 4.30964 5 5 5Z" fill="#FF9A6C"/>
</svg>
