<svg width="35" height="35" viewBox="0 0 35 35" fill="none" xmlns="http://www.w3.org/2000/svg">
<path fill-rule="evenodd" clip-rule="evenodd" d="M1.34616 14.6511C2.08962 14.6511 2.69232 15.1978 2.69232 15.8721V19.1278C2.69232 26.5452 9.32194 32.5582 17.5 32.5582C25.6781 32.5582 32.3077 26.5452 32.3077 19.1278V15.8721C32.3077 15.1978 32.9103 14.6511 33.6539 14.6511C34.3972 14.6511 35 15.1978 35 15.8721V19.1278C35 27.8937 27.1651 34.9999 17.5 34.9999C7.83502 34.9999 0 27.8937 0 19.1278V15.8721C0 15.1978 0.6027 14.6511 1.34616 14.6511Z" fill="#000"/>
<path fill-rule="evenodd" clip-rule="evenodd" d="M17.4992 0C10.808 0 5.38379 4.91965 5.38379 10.9884V19.1279C5.38379 25.1967 10.808 30.1163 17.4992 30.1163C24.1904 30.1163 29.6146 25.1967 29.6146 19.1279V10.9884C29.6146 4.91967 24.1904 0 17.4992 0ZM12.9846 9.43369C12.4444 8.97045 12.4205 8.1977 12.9312 7.70772L13.9093 8.54651C12.9312 7.70772 12.9327 7.70632 12.9327 7.70632L12.9342 7.70488L12.9373 7.702L12.9437 7.69598L12.9576 7.68313C12.9673 7.67422 12.9781 7.6646 12.99 7.65434C13.0137 7.63382 13.0416 7.61075 13.0739 7.58557C13.1385 7.53515 13.2207 7.47656 13.3222 7.41323C13.5259 7.28625 13.8041 7.14245 14.1716 7.00767C14.9084 6.73745 15.9804 6.51163 17.4992 6.51163C19.018 6.51163 20.09 6.73745 20.8267 7.00767C21.1942 7.14245 21.4725 7.28625 21.6762 7.41323C21.7777 7.47656 21.8598 7.53515 21.9245 7.58557C21.9568 7.61075 21.9846 7.63382 22.0083 7.65434C22.0202 7.6646 22.0311 7.67422 22.0408 7.68313L22.0546 7.69598L22.061 7.702L22.0641 7.70488L22.0657 7.70632C22.0657 7.70632 22.0671 7.70772 21.1085 8.52971L22.0671 7.70772C22.5779 8.1977 22.554 8.97045 22.0138 9.43369C21.4923 9.88092 20.6801 9.8762 20.165 9.43446L20.1508 9.42543C20.1098 9.39981 20.0046 9.34012 19.8173 9.27141C19.4444 9.13465 18.7216 8.95349 17.4992 8.95349C16.2767 8.95349 15.554 9.13465 15.181 9.27141C14.9938 9.34012 14.8886 9.39981 14.8475 9.42543L14.8333 9.43446C14.3183 9.8762 13.5062 9.88092 12.9846 9.43369ZM12.9846 14.3175C12.4444 13.8542 12.4205 13.0814 12.9312 12.5914L13.9093 13.4302C12.9312 12.5914 12.9327 12.59 12.9327 12.59L12.9342 12.5886L12.9373 12.5857L12.9437 12.5797L12.9576 12.5669C12.9673 12.5579 12.9781 12.5483 12.99 12.5381C13.0137 12.5175 13.0416 12.4945 13.0739 12.4693C13.1385 12.4189 13.2207 12.3603 13.3222 12.297C13.5259 12.17 13.8041 12.0262 14.1716 11.8914C14.9084 11.6212 15.9804 11.3954 17.4992 11.3954C19.018 11.3954 20.09 11.6212 20.8267 11.8914C21.1942 12.0262 21.4725 12.17 21.6762 12.297C21.7777 12.3603 21.8598 12.4189 21.9245 12.4693C21.9568 12.4945 21.9846 12.5175 22.0083 12.5381C22.0202 12.5483 22.0311 12.5579 22.0408 12.5669L22.0546 12.5797L22.061 12.5857L22.0641 12.5886L22.0657 12.59C22.0657 12.59 22.0671 12.5914 21.1085 13.4134L22.0671 12.5914C22.5779 13.0814 22.554 13.8542 22.0138 14.3175C21.4923 14.7646 20.6801 14.7599 20.165 14.3182L20.1508 14.3092C20.1098 14.2835 20.0046 14.2238 19.8173 14.1551C19.4444 14.0184 18.7216 13.8372 17.4992 13.8372C16.2767 13.8372 15.554 14.0184 15.181 14.1551C14.9938 14.2238 14.8886 14.2835 14.8475 14.3092L14.8333 14.3182C14.3183 14.7599 13.5062 14.7646 12.9846 14.3175Z" fill="#000"/>
</svg>
