<svg width="170" height="170" viewBox="0 0 170 170" fill="none" xmlns="http://www.w3.org/2000/svg">
<circle cx="85" cy="85" r="85" fill="url(#paint0_linear_275_2404)"/>
<path fill-rule="evenodd" clip-rule="evenodd" d="M52.6923 79.3023C54.1792 79.3023 55.3846 80.3957 55.3846 81.7443V88.2557C55.3846 103.09 68.6439 115.116 85 115.116C101.356 115.116 114.615 103.09 114.615 88.2557V81.7443C114.615 80.3957 115.821 79.3023 117.308 79.3023C118.794 79.3023 120 80.3957 120 81.7443V88.2557C120 105.788 104.33 120 85 120C65.67 120 50 105.788 50 88.2557V81.7443C50 80.3957 51.2054 79.3023 52.6923 79.3023Z" fill="#181D17"/>
<path fill-rule="evenodd" clip-rule="evenodd" d="M85.0013 50C71.619 50 60.7705 59.8393 60.7705 71.9767V88.2557C60.7705 100.393 71.619 110.233 85.0013 110.233C98.3837 110.233 109.232 100.393 109.232 88.2557V71.9767C109.232 59.8393 98.3837 50 85.0013 50ZM75.9721 68.8674C74.8917 67.9409 74.8439 66.3954 75.8654 65.4154L77.8216 67.093C75.8654 65.4154 75.8684 65.4126 75.8684 65.4126L75.8714 65.4098L75.8775 65.404L75.8902 65.392L75.918 65.3663C75.9376 65.3484 75.9592 65.3292 75.9829 65.3087C76.0303 65.2676 76.086 65.2215 76.1507 65.1711C76.28 65.0703 76.4442 64.9531 76.6473 64.8265C77.0546 64.5725 77.6112 64.2849 78.3462 64.0153C79.8197 63.4749 81.9637 63.0233 85.0013 63.0233C88.0389 63.0233 90.1828 63.4749 91.6563 64.0153C92.3913 64.2849 92.9478 64.5725 93.3554 64.8265C93.5584 64.9531 93.7225 65.0703 93.852 65.1711C93.9166 65.2215 93.9722 65.2676 94.0196 65.3087C94.0433 65.3292 94.0651 65.3484 94.0846 65.3663L94.1122 65.392L94.125 65.404L94.1312 65.4098L94.1343 65.4126C94.1343 65.4126 94.1371 65.4154 92.2198 67.0594L94.1371 65.4154C95.1587 66.3954 95.1108 67.9409 94.0305 68.8674C92.9875 69.7618 91.3631 69.7524 90.3329 68.8689L90.3046 68.8509C90.2225 68.7996 90.0121 68.6802 89.6376 68.5428C88.8917 68.2693 87.4462 67.907 85.0013 67.907C82.5563 67.907 81.1108 68.2693 80.3649 68.5428C79.9904 68.6802 79.7801 68.7996 79.698 68.8509L79.6696 68.8689C78.6394 69.7524 77.0153 69.7618 75.9721 68.8674ZM75.9721 78.6349C74.8917 77.7083 74.8439 76.1629 75.8654 75.1829L77.8216 76.8605C75.8654 75.1829 75.8684 75.1801 75.8684 75.1801L75.8714 75.1772L75.8775 75.1714L75.8902 75.1594L75.918 75.1337C75.9376 75.1159 75.9592 75.0966 75.9829 75.0761C76.0303 75.0351 76.086 74.9889 76.1507 74.9386C76.28 74.8378 76.4442 74.7205 76.6473 74.5939C77.0546 74.3399 77.6112 74.0524 78.3462 73.7827C79.8197 73.2423 81.9637 72.7907 85.0013 72.7907C88.0389 72.7907 90.1828 73.2423 91.6563 73.7827C92.3913 74.0524 92.9478 74.3399 93.3554 74.5939C93.5584 74.7205 93.7225 74.8378 93.852 74.9386C93.9166 74.9889 93.9722 75.0351 94.0196 75.0761C94.0433 75.0966 94.0651 75.1159 94.0846 75.1337L94.1122 75.1594L94.125 75.1714L94.1312 75.1772L94.1343 75.1801C94.1343 75.1801 94.1371 75.1829 92.2198 76.8269L94.1371 75.1829C95.1587 76.1629 95.1108 77.7083 94.0305 78.6349C92.9875 79.5292 91.3631 79.5197 90.3329 78.6363L90.3046 78.6185C90.2225 78.567 90.0121 78.4477 89.6376 78.3101C88.8917 78.0368 87.4462 77.6744 85.0013 77.6744C82.5563 77.6744 81.1108 78.0368 80.3649 78.3101C79.9904 78.4477 79.7801 78.567 79.698 78.6185L79.6696 78.6363C78.6394 79.5197 77.0153 79.5292 75.9721 78.6349Z" fill="#181D17"/>
<defs>
<linearGradient id="paint0_linear_275_2404" x1="137.889" y1="154.889" x2="20.7778" y2="32.1111" gradientUnits="userSpaceOnUse">
<stop stop-color="#C1EFAF"/>
<stop offset="1" stop-color="#E4ECDD"/>
</linearGradient>
</defs>
</svg>
