<svg width="25" height="25" viewBox="0 0 20 20" fill="none" xmlns="http://www.w3.org/2000/svg">
<path d="M12.0677 9.13784V4.02345C12.0677 2.47491 11.0297 1.32812 9.53977 1.32812C8.07491 1.32812 7.00348 2.43305 7.00348 3.93137V4.0653L12.0677 9.13784ZM16.5459 16.8387C16.797 17.0899 17.2072 17.0899 17.4499 16.8387C17.7094 16.596 17.7094 16.1775 17.4499 15.9263L3.45437 1.9308C3.20327 1.6797 2.77638 1.6797 2.53363 1.9308C2.29088 2.18195 2.29088 2.60048 2.53363 2.8432L16.5459 16.8387ZM5.63073 17.4079C5.29588 17.4079 4.99455 17.7093 4.99455 18.0441C4.99455 18.3789 5.29588 18.6719 5.63073 18.6719H13.4404C13.7752 18.6719 14.0766 18.3789 14.0766 18.0441C14.0766 17.7093 13.7752 17.4079 13.4404 17.4079H10.1676V15.5748C11.2306 15.4827 12.1597 15.1395 12.9214 14.6038L12.0258 13.7082C11.3478 14.1602 10.5023 14.4197 9.53977 14.4197C6.91141 14.4197 5.07827 12.5447 5.07827 9.99166V8.0497C5.07827 7.65627 4.82716 7.41352 4.45884 7.41352C4.09052 7.41352 3.8478 7.65627 3.8478 8.0497V9.99166C3.8478 13.0553 5.8567 15.3069 8.90359 15.5748V17.4079H5.63073ZM15.2233 8.0497C15.2233 7.65627 14.9806 7.41352 14.6123 7.41352C14.244 7.41352 13.9929 7.65627 13.9929 8.0497V9.99166C13.9929 10.3264 13.9594 10.6446 13.8924 10.9626L14.9136 11.9755C15.1145 11.3644 15.2233 10.7031 15.2233 9.99166V8.0497ZM10.6949 12.3772L7.00348 8.68584V10C7.00348 11.5402 8.04145 12.6953 9.53977 12.6953C9.98338 12.6953 10.3684 12.5781 10.6949 12.3772Z" fill="#D80027"/>
</svg>
