<svg width="25" height="25" viewBox="0 0 20 20" fill="none" xmlns="http://www.w3.org/2000/svg">
<path d="M12.5368 10V4.02345C12.5368 2.47491 11.4905 1.32812 10.0006 1.32812C8.51059 1.32812 7.46427 2.47491 7.46427 4.02345V10C7.46427 11.5402 8.51059 12.6953 10.0006 12.6953C11.4905 12.6953 12.5368 11.5402 12.5368 10ZM6.09152 17.4079C5.7567 17.4079 5.46374 17.7093 5.46374 18.0441C5.46374 18.3789 5.7567 18.6719 6.09152 18.6719H13.9096C14.2444 18.6719 14.5374 18.3789 14.5374 18.0441C14.5374 17.7093 14.2444 17.4079 13.9096 17.4079H10.6283V15.5748C13.6752 15.3069 15.6925 13.0553 15.6925 9.99166V8.02455C15.6925 7.69812 15.3996 7.41352 15.0731 7.41352C14.7466 7.41352 14.4621 7.69812 14.4621 8.02455V9.99166C14.4621 12.5447 12.6205 14.4197 10.0006 14.4197C7.38059 14.4197 5.53906 12.5447 5.53906 9.99166V8.02455C5.53906 7.69812 5.25449 7.41352 4.92802 7.41352C4.60156 7.41352 4.30859 7.69812 4.30859 8.02455V9.99166C4.30859 13.0553 6.32591 15.3069 9.36441 15.5748V17.4079H6.09152Z" fill="black"/>
</svg>
