<svg width="40" height="40" viewBox="0 0 60 60" fill="none" xmlns="http://www.w3.org/2000/svg">
<g clip-path="url(#clip0_653_587)">
<path d="M28.6248 32.1363V51.6538C28.6248 52.281 28.1163 52.7895 27.4892 52.7895C26.862 52.7895 26.3535 52.281 26.3535 51.6538V32.1363C26.3535 27.4258 22.5211 23.5934 17.8106 23.5934H16.736V23.8719C16.736 24.3447 17.1204 24.7291 17.5934 24.7291C19.3185 24.7291 20.7219 26.1325 20.7219 27.8579V29.7221C20.7219 34.1234 17.1411 37.7042 12.7398 37.7042C5.71474 37.7042 0 31.9895 0 24.9648V19.9504C0 12.9257 5.71474 7.21094 12.7395 7.21094C17.1408 7.21094 20.7216 10.7917 20.7216 15.1934V17.0576C20.7216 18.7827 19.3182 20.1864 17.5931 20.1864C17.1204 20.1864 16.7357 20.5708 16.7357 21.0435V21.3221H17.8103C23.7735 21.3218 28.6248 26.1731 28.6248 32.1363ZM47.2608 7.21094C42.8592 7.21094 39.2784 10.7917 39.2784 15.1934V17.0576C39.2784 18.7827 40.6818 20.1864 42.4072 20.1864C42.8799 20.1864 43.2646 20.5708 43.2646 21.0435V21.3221H42.19C36.2271 21.3221 31.3757 26.1734 31.3757 32.1363V51.6538C31.3757 52.281 31.8842 52.7895 32.5114 52.7895C33.1386 52.7895 33.6471 52.281 33.6471 51.6538V32.1363C33.6471 27.4258 37.4795 23.5934 42.19 23.5934H43.2646V23.8719C43.2646 24.3447 42.8802 24.7291 42.4072 24.7291C40.6821 24.7291 39.2784 26.1325 39.2784 27.8579V29.7221C39.2784 34.1234 42.8592 37.7042 47.2608 37.7042C54.2853 37.7042 60 31.9895 60 24.9648V19.9504C60 12.9257 54.2853 7.21094 47.2608 7.21094Z" fill="#39683A"/>
</g>
<defs>
<clipPath id="clip0_653_587">
<rect width="60" height="60" fill="white"/>
</clipPath>
</defs>
</svg>
