<svg width="40" height="40" viewBox="0 0 60 60" fill="none" xmlns="http://www.w3.org/2000/svg">
<g clip-path="url(#clip0_653_589)">
<path d="M58.8589 28.8589H55.3237C51.9194 28.8589 48.7145 27.0472 46.959 24.1304L45.5734 21.8292C42.3457 13.9677 34.6105 8.41504 25.5994 8.41504C18.2881 8.41504 11.6227 12.1269 7.68781 17.9573C6.15652 18.6819 0 22.0605 0 29.5515C0 37.0944 6.28232 41.1905 7.66214 41.9989C8.85111 43.7744 10.3025 45.3793 11.9767 46.7431C15.8095 49.865 20.6475 51.5846 25.5997 51.5846C34.6108 51.5846 42.3457 46.0322 45.5737 38.1707L46.9592 35.8692C48.7147 32.9527 51.92 31.141 55.324 31.141H58.8592C59.4894 31.141 60.0003 30.6301 60.0003 30C60.0003 29.3698 59.4891 28.8589 58.8589 28.8589ZM2.2821 29.5515C2.2821 26.1655 3.84505 23.7952 5.45136 22.2522C5.1989 22.9083 4.97354 23.579 4.78441 24.2673C4.61753 24.8749 4.97468 25.5031 5.58258 25.67C5.7215 25.7082 5.86099 25.7159 5.99621 25.7025C5.98708 25.7718 5.97823 25.8397 5.96996 25.9053C5.82933 27.0067 5.75174 28.461 5.75174 30C5.75174 31.1841 5.79795 32.3163 5.88324 33.2782C5.7235 33.2411 5.55433 33.2348 5.38346 33.2722C4.76787 33.4068 4.37791 34.015 4.51256 34.6306C4.68029 35.3974 4.89452 36.1513 5.14498 36.8919C3.64707 35.1355 2.2821 32.68 2.2821 29.5515ZM25.5994 49.3025C17.5008 49.3025 10.2746 44.1455 7.50324 36.719C7.53776 36.7213 7.57 36.727 7.60594 36.727C8.30283 36.727 8.68252 36.2706 8.90702 35.6867C11.3206 42.4325 17.7741 47.2734 25.3395 47.2734C34.9608 47.2734 42.7881 39.4461 42.7881 29.8248C42.7881 20.2035 34.9611 12.3765 25.3398 12.3765C17.7031 12.3765 11.2011 17.3101 8.84198 24.1558C8.61063 23.6492 8.23922 23.2723 7.60622 23.2723C7.56857 23.2723 7.53491 23.278 7.49925 23.2806C10.2774 15.7948 17.4957 10.6971 25.5994 10.6971C36.2431 10.6971 44.9022 19.3563 44.9022 30C44.9022 40.6436 36.2431 49.3025 25.5994 49.3025ZM47.0776 32.1374C47.1472 31.434 47.1843 30.7211 47.1843 29.9997C47.1843 29.2782 47.1472 28.5654 47.0776 27.8619C48.013 28.738 49.081 29.4591 50.2372 29.9997C49.081 30.5405 48.0133 31.2617 47.0776 32.1374Z" fill="#39683A"/>
</g>
<defs>
<clipPath id="clip0_653_589">
<rect width="60" height="60" fill="white"/>
</clipPath>
</defs>
</svg>
