<svg width="43" height="43" viewBox="0 0 50 50" fill="none" xmlns="http://www.w3.org/2000/svg">
<g clip-path="url(#clip0_652_580)">
<path d="M21.1279 25.1368C22.554 25.2839 23.9475 24.8384 24.9999 23.9326C25.9202 24.7248 27.0896 25.1644 28.3332 25.1644C28.5115 25.1644 28.6926 25.1551 28.8714 25.1368C31.2532 24.8923 33.1726 22.9886 33.4349 20.6107C33.6179 18.9526 32.988 17.3034 31.7498 16.199C30.1748 14.7935 29.2716 12.8572 29.2716 10.8863V0.938377C29.2716 0.420158 28.8514 0 28.3332 0H21.6663C21.1481 0 20.7279 0.420158 20.7279 0.938377V10.8863C20.7279 12.8569 19.8245 14.7935 18.2494 16.199C17.0117 17.3034 16.3816 18.9526 16.5643 20.611C16.8268 22.9886 18.7458 24.8921 21.1279 25.1368Z" fill="#39683A"/>
<path d="M34.2715 27.2055C34.2705 27.1971 34.2698 27.1891 34.2691 27.1844C34.1703 26.3204 33.4328 25.6689 32.5535 25.6689C32.0904 25.6689 31.6536 25.8498 31.3235 26.1778C30.7188 26.7783 29.9293 27.156 29.1008 27.2412C28.2363 27.3296 27.3812 27.1225 26.6666 26.6512C26.1726 26.3253 25.5959 26.1531 24.9996 26.1531C24.403 26.1531 23.8266 26.3253 23.3328 26.6512C22.618 27.1223 21.7612 27.3301 20.8984 27.2412C20.0698 27.156 19.2804 26.7783 18.6756 26.1778C18.3453 25.8498 17.9083 25.6689 17.4454 25.6689C16.5662 25.6689 15.8284 26.3206 15.7275 27.2058C15.526 29.0326 16.2255 30.8429 17.5988 32.0492C19.351 33.5884 20.356 35.7154 20.356 37.8857V49.0615C20.356 49.5797 20.7762 49.9999 21.2944 49.9999H28.705C29.2232 49.9999 29.6434 49.5797 29.6434 49.0615V37.8857C29.6434 35.7157 30.6484 33.5884 32.4006 32.0492C33.7736 30.8427 34.4732 29.0321 34.2715 27.2055Z" fill="#39683A"/>
</g>
<defs>
<clipPath id="clip0_652_580">
<rect width="50" height="50" fill="white"/>
</clipPath>
</defs>
</svg>
