
<svg width="55" height="55" viewBox="0 0 80 80" fill="none" xmlns="http://www.w3.org/2000/svg">
<path fill-rule="evenodd" clip-rule="evenodd" d="M39.9755 27.4333C44.776 27.4333 48.6677 23.5307 48.6677 18.7167C48.6677 13.9026 44.776 10 39.9755 10C35.1749 10 31.2832 13.9026 31.2832 18.7167C31.2832 23.5307 35.1749 27.4333 39.9755 27.4333Z" fill="#39683A"/>
<path fill-rule="evenodd" clip-rule="evenodd" d="M20.359 25.2668L20.3425 25.2311L20.3248 25.1959C20.1928 24.9309 19.9825 24.2848 20.0012 23.5639C20.018 22.9114 20.2118 22.2998 20.7492 21.7609C21.4403 21.0679 21.9948 20.9143 22.4077 20.8888C22.8983 20.8586 23.4958 20.9993 24.1852 21.3414C24.2023 21.3524 24.3197 21.4268 24.5522 21.6529C24.8147 21.9081 25.1222 22.2546 25.5165 22.7266C25.6753 22.9168 25.8483 23.1279 26.034 23.3544C26.7057 24.1743 27.5432 25.1961 28.4748 26.1571C30.9575 28.7181 34.5662 31.3548 40 31.3548C45.4338 31.3548 49.0425 28.7181 51.5252 26.1571C52.4568 25.1961 53.2942 24.1744 53.966 23.3546C54.1515 23.1281 54.3247 22.9168 54.4835 22.7266C54.8778 22.2546 55.1853 21.9081 55.4478 21.6529C55.6803 21.4268 55.7978 21.3519 55.815 21.3409C56.5043 20.9988 57.1017 20.8586 57.5923 20.8888C58.0052 20.9143 58.5597 21.0679 59.2508 21.7609C59.7882 22.2998 59.982 22.9114 59.9988 23.5639C60.0175 24.2848 59.8072 24.9309 59.6752 25.1959L59.6575 25.2311L59.641 25.2668C57.0317 30.8736 53.9912 33.9528 50.463 35.4903L48.7158 36.2518V42.4994H31.2842V36.2518L29.537 35.4903C26.0088 33.9528 22.9683 30.8736 20.359 25.2668ZM31.2842 45.8328V47.8738C31.2842 48.9341 32.2785 51.6579 35.3293 52.9629C35.6785 53.1123 36.071 53.2996 36.4237 53.4678L36.6312 53.5666C37.0647 53.7724 37.484 53.9671 37.9082 54.1398C38.7928 54.4998 39.4828 54.6716 40 54.6716C40.5172 54.6716 41.2072 54.4998 42.0918 54.1398C42.516 53.9671 42.9353 53.7724 43.3688 53.5666L43.5763 53.4678C43.929 53.2996 44.3215 53.1123 44.6707 52.9629C47.7215 51.6579 48.7158 48.9341 48.7158 47.8738V45.8328H31.2842Z" fill="#39683A"/>
<path fill-rule="evenodd" clip-rule="evenodd" d="M30.6119 52.3018C31.2914 53.7716 32.5685 55.3276 34.6014 56.3114C34.1059 56.7258 33.6382 57.2153 33.21 57.9124C32.3764 59.2706 31.66 60.9483 31.66 62.5289C31.66 63.9739 32.2017 65.2171 32.6122 66.1588L32.6422 66.2276C33.0952 67.2681 33.3815 67.9683 33.3815 68.7086C33.3815 70.3729 32.0744 71.6659 30.5302 71.6659C29.091 71.6659 27.9522 70.6173 27.104 68.5873C26.2759 66.6049 25.957 64.1591 25.957 62.5289C25.957 58.1143 27.6189 54.8546 30.6119 52.3018Z" fill="#39683A"/>
<path fill-rule="evenodd" clip-rule="evenodd" d="M45.3984 56.3114C47.4313 55.3276 48.7084 53.7716 49.3881 52.3018C52.3809 54.8546 54.0429 58.1143 54.0429 62.5289C54.0429 64.1591 53.7241 66.6049 52.8959 68.5873C52.0478 70.6173 50.9089 71.6659 49.4698 71.6659C47.9254 71.6659 46.6183 70.3729 46.6183 68.7086C46.6183 67.9683 46.9046 67.2681 47.3578 66.2276L47.3878 66.1588C47.7981 65.2171 48.3399 63.9739 48.3399 62.5289C48.3399 60.9483 47.6236 59.2706 46.7898 57.9124C46.3618 57.2153 45.8941 56.7258 45.3984 56.3114Z" fill="#39683A"/>
</svg>
