<svg width="13" height="13" viewBox="0 0 10 10" fill="none" xmlns="http://www.w3.org/2000/svg">
<path fill-rule="evenodd" clip-rule="evenodd" d="M0.732235 0.732235C-5.96046e-08 1.46446 0 2.64298 0 5C0 7.357 -5.96046e-08 8.53555 0.732235 9.26775C1.46446 10 2.64298 10 5 10C7.357 10 8.53555 10 9.26775 9.26775C10 8.53555 10 7.357 10 5C10 2.64298 10 1.46446 9.26775 0.732235C8.53555 -5.96046e-08 7.357 0 5 0C2.64298 0 1.46446 -5.96046e-08 0.732235 0.732235ZM7.5 3.125C7.7071 3.125 7.875 3.2929 7.875 3.5V8C7.875 8.2071 7.7071 8.375 7.5 8.375C7.2929 8.375 7.125 8.2071 7.125 8V3.5C7.125 3.2929 7.2929 3.125 7.5 3.125ZM5.375 5C5.375 4.7929 5.2071 4.625 5 4.625C4.7929 4.625 4.625 4.7929 4.625 5V8C4.625 8.2071 4.7929 8.375 5 8.375C5.2071 8.375 5.375 8.2071 5.375 8V5ZM2.5 6.125C2.7071 6.125 2.875 6.2929 2.875 6.5V8C2.875 8.2071 2.7071 8.375 2.5 8.375C2.2929 8.375 2.125 8.2071 2.125 8V6.5C2.125 6.2929 2.2929 6.125 2.5 6.125Z" fill="#0F68F0"/>
</svg>
