<svg width="25" height="25" viewBox="0 0 25 25" fill="none" xmlns="http://www.w3.org/2000/svg">
<path fill-rule="evenodd" clip-rule="evenodd" d="M1.83059 1.83059C-1.19209e-07 3.66116 0 6.60744 0 12.5C0 18.3925 -1.19209e-07 21.3389 1.83059 23.1694C3.66116 25 6.60744 25 12.5 25C18.3925 25 21.3389 25 23.1694 23.1694C25 21.3389 25 18.3925 25 12.5C25 6.60744 25 3.66116 23.1694 1.83059C21.3389 -1.19209e-07 18.3925 0 12.5 0C6.60744 0 3.66116 -1.19209e-07 1.83059 1.83059ZM18.75 7.8125C19.2678 7.8125 19.6875 8.23224 19.6875 8.75V20C19.6875 20.5178 19.2678 20.9375 18.75 20.9375C18.2322 20.9375 17.8125 20.5178 17.8125 20V8.75C17.8125 8.23224 18.2322 7.8125 18.75 7.8125ZM13.4375 12.5C13.4375 11.9822 13.0178 11.5625 12.5 11.5625C11.9822 11.5625 11.5625 11.9822 11.5625 12.5V20C11.5625 20.5178 11.9822 20.9375 12.5 20.9375C13.0178 20.9375 13.4375 20.5178 13.4375 20V12.5ZM6.25 15.3125C6.76776 15.3125 7.1875 15.7322 7.1875 16.25L7.1875 20C7.1875 20.5178 6.76776 20.9375 6.25 20.9375C5.73224 20.9375 5.3125 20.5178 5.3125 20L5.3125 16.25C5.3125 15.7322 5.73224 15.3125 6.25 15.3125Z" fill="#39683A"/>
</svg>
