<svg width="25" height="25" viewBox="0 0 32 32"  xmlns="http://www.w3.org/2000/svg">
<g clip-path="url(#clip0_954_131)">
<path d="M4.55314 12.812C4.96089 12.9524 5.40577 12.7354 5.54618 12.3276C6.49732 9.56531 8.46738 7.33892 11.0933 6.05846C13.7191 4.77751 16.6864 4.59578 19.4487 5.54692C22.1748 6.4856 24.3774 8.41813 25.6656 10.9926L23.6021 10.2821C23.1943 10.1417 22.7495 10.3587 22.6091 10.7665C22.4687 11.1742 22.6856 11.6191 23.0934 11.7595L27.5255 13.2856L29.0516 8.85347C29.192 8.44572 28.975 8.00084 28.5673 7.86044C28.1595 7.72004 27.7146 7.93702 27.5742 8.34477L26.9669 10.1088C25.4825 7.25893 23.0071 5.11963 19.9574 4.06955C16.8006 2.98258 13.4092 3.19015 10.4081 4.65418C7.40729 6.11748 5.15577 8.66215 4.0688 11.8189C3.9284 12.2267 4.14538 12.6716 4.55314 12.812Z" fill="#000"/>

<path d="M21.369 27.1228C24.3698 25.6595 26.6213 23.1148 27.7083 19.9581C27.8487 19.5503 27.6317 19.1054 27.224 18.965C26.8162 18.8246 26.3713 19.0416 26.2309 19.4493C25.2798 22.2117 23.3097 24.4381 20.6838 25.7185C18.0581 26.9995 15.0907 27.1812 12.3284 26.2301C9.6023 25.2914 7.39975 23.3589 6.1115 20.7843L8.17502 21.4949C8.58277 21.6353 9.02765 21.4183 9.16805 21.0105C9.30845 20.6028 9.09147 20.1579 8.68372 20.0175L4.2516 18.4914L2.7255 22.9235C2.5851 23.3313 2.80208 23.7761 3.20983 23.9165C3.61759 24.0569 4.06247 23.84 4.20287 23.4322L4.81026 21.6682C6.29456 24.5181 8.77005 26.6573 11.8197 27.7074C14.9765 28.7944 18.3679 28.5868 21.369 27.1228Z" fill="#000"/>
</g>
<defs>
<clipPath id="clip0_954_131">
<rect width="25" height="25" fill="white" transform="translate(0 23.6379) rotate(-71)"/>
</clipPath>
</defs>
</svg>
