<svg width="50" height="50" viewBox="0 0 70 70" fill="none" xmlns="http://www.w3.org/2000/svg">
<g clip-path="url(#clip0_124_723)">
<mask id="mask0_124_723" style="mask-type:luminance" maskUnits="userSpaceOnUse" x="0" y="0" width="70" height="70">
<path d="M35 70C54.33 70 70 54.33 70 35C70 15.67 54.33 0 35 0C15.67 0 0 15.67 0 35C0 54.33 15.67 70 35 70Z" fill="white"/>
</mask>
<g mask="url(#mask0_124_723)">
<path d="M0 0H70V70H0V0Z" fill="#496E2D"/>
<path d="M19.7832 41.8359C19.7832 44.3652 21.834 46.416 24.3496 46.416H38.0488C38.0488 47.424 38.4493 48.3908 39.1621 49.1036C39.8748 49.8164 40.8416 50.2168 41.8496 50.2168H46.416C47.424 50.2168 48.3908 49.8164 49.1036 49.1036C49.8164 48.3908 50.2168 47.424 50.2168 46.416V41.8359H19.7832ZM50.5996 19.7832V30.4473C50.5996 32.1152 49.2324 33.4824 47.5508 33.4824V38.0488C51.748 38.0488 55.166 34.6309 55.166 30.4336V19.7832H50.5859H50.5996ZM17.8828 30.4473C17.8828 32.1152 16.5156 33.4824 14.834 33.4824V38.0488C19.0313 38.0488 22.4492 34.6309 22.4492 30.4336V19.7832H17.8828V30.4473Z" fill="#EEEEEE"/>
<path d="M43.75 19.7832H48.3164V30.4473H43.75V19.7832ZM36.9141 25.8672C36.9141 26.0702 36.8334 26.265 36.6898 26.4086C36.5462 26.5522 36.3515 26.6328 36.1484 26.6328C35.9454 26.6328 35.7506 26.5522 35.6071 26.4086C35.4635 26.265 35.3828 26.0702 35.3828 25.8672V19.7832H30.8164V25.8672C30.7917 26.0509 30.7012 26.2194 30.5616 26.3414C30.4221 26.4635 30.243 26.5307 30.0576 26.5307C29.8722 26.5307 29.6932 26.4635 29.5536 26.3414C29.4141 26.2194 29.3235 26.0509 29.2988 25.8672V19.7832H24.7324V25.8672C24.7324 27.2813 25.2942 28.6376 26.2941 29.6375C27.2941 30.6375 28.6503 31.1992 30.0645 31.1992C31.1504 31.1992 32.2101 30.8651 33.0996 30.2422C33.9891 30.8651 35.0488 31.1992 36.1348 31.1992C36.3672 31.1992 36.5996 31.1855 36.8184 31.1582C36.6565 31.8198 36.2777 32.4082 35.7425 32.8294C35.2072 33.2507 34.5464 33.4806 33.8652 33.4824V38.0488C38.0488 38.0488 41.4668 34.6309 41.4668 30.4336V19.7832H36.9141V25.8672Z" fill="#EEEEEE"/>
<path d="M24.7324 33.4824H31.5684V38.0488H24.7324V33.4824Z" fill="#EEEEEE"/>
</g>
</g>
<defs>
<clipPath id="clip0_124_723">
<rect width="70" height="70" fill="white"/>
</clipPath>
</defs>
</svg>
