<svg width="25" height="25" viewBox="0 0 25 25" fill="none" xmlns="http://www.w3.org/2000/svg">
<path d="M9.53519 5.63389C10.8546 3.26696 11.5143 2.0835 12.5007 2.0835C13.487 2.0835 14.1467 3.26695 15.4661 5.63388L15.8074 6.24624C16.1824 6.91884 16.3698 7.25515 16.6622 7.47705C16.9545 7.69894 17.3185 7.78131 18.0466 7.94605L18.7095 8.09603C21.2716 8.67575 22.5527 8.9656 22.8575 9.94572C23.1623 10.9258 22.289 11.9471 20.5422 13.9896L20.0903 14.5181C19.594 15.0985 19.3458 15.3887 19.2341 15.7478C19.1225 16.1068 19.16 16.494 19.235 17.2685L19.3034 17.9735C19.5674 20.6987 19.6995 22.0613 18.9016 22.667C18.1036 23.2728 16.9041 22.7205 14.5051 21.616L13.8845 21.3302C13.2028 21.0163 12.862 20.8593 12.5007 20.8593C12.1393 20.8593 11.7985 21.0163 11.1168 21.3302L10.4962 21.616C8.09719 22.7205 6.89772 23.2728 6.09977 22.667C5.30182 22.0613 5.43386 20.6987 5.69794 17.9735L5.76626 17.2685C5.84131 16.494 5.87883 16.1068 5.76717 15.7478C5.65553 15.3887 5.40735 15.0985 4.91099 14.5181L4.45909 13.9896C2.71237 11.9471 1.83901 10.9258 2.1438 9.94572C2.44859 8.9656 3.72967 8.67575 6.29184 8.09603L6.9547 7.94605C7.68279 7.78131 8.04683 7.69894 8.33913 7.47705C8.63143 7.25515 8.81891 6.91885 9.19385 6.24624L9.53519 5.63389Z" fill="#39683A"/>
</svg>
