<svg width="25" height="25" viewBox="0 0 25 25" fill="none" xmlns="http://www.w3.org/2000/svg">
<path d="M14.1373 22.1001C14.8487 22.1001 15.3615 21.5769 15.3615 20.8759V4.18711C15.3615 3.48608 14.8487 2.90015 14.1163 2.90015C13.6036 2.90015 13.2584 3.13033 12.7038 3.65349L8.08954 8.01662C8.01633 8.07943 7.92213 8.11082 7.81749 8.11082H4.70994C3.23463 8.11082 2.43945 8.91644 2.43945 10.486V14.5456C2.43945 16.1151 3.23463 16.9208 4.70994 16.9208H7.81749C7.92213 16.9208 8.01633 16.9522 8.08954 17.015L12.7038 21.42C13.206 21.8908 13.6245 22.1001 14.1373 22.1001ZM20.0803 17.1405C20.4361 17.3916 20.9488 17.3079 21.2522 16.8999C22.0684 15.8012 22.5602 14.1899 22.5602 12.5472C22.5602 10.9045 22.0579 9.30358 21.2522 8.18403C20.9488 7.776 20.4466 7.69229 20.0803 7.94336C19.62 8.2468 19.5676 8.78046 19.9024 9.24082C20.5093 10.0569 20.8755 11.3021 20.8755 12.5472C20.8755 13.7923 20.4884 15.0374 19.892 15.864C19.5781 16.3139 19.6304 16.8266 20.0803 17.1405Z" fill="black"/>
</svg>
