<svg width="25" height="25" viewBox="0 0 25 25" fill="none" xmlns="http://www.w3.org/2000/svg">
<path d="M17.4914 14.9119V3.66392C17.4914 2.96289 16.9787 2.37695 16.2463 2.37695C15.7336 2.37695 15.3883 2.60713 14.8338 3.1303L10.5438 7.19003C10.4811 7.2528 10.4183 7.29463 10.3451 7.31557L9.92653 7.34695L17.4914 14.9119ZM20.8814 22.3093C21.2058 22.6232 21.7185 22.6232 22.0219 22.3093C22.3359 21.9849 22.3464 21.4827 22.0219 21.1688L4.10898 3.25584C3.7951 2.94195 3.27193 2.94195 2.95805 3.25584C2.65461 3.55932 2.65461 4.09294 2.95805 4.39633L20.8814 22.3093ZM16.2672 21.5769C16.8845 21.5769 17.3135 21.2107 17.4496 20.5933L5.09256 8.25727C4.75773 8.65485 4.56939 9.23035 4.56939 9.96276V14.0225C4.56939 15.592 5.36456 16.3976 6.83988 16.3976H9.94747C10.0521 16.3976 10.1463 16.429 10.209 16.4918L14.8338 20.8968C15.336 21.3676 15.7545 21.5769 16.2672 21.5769Z" fill="#D80027"/>
</svg>
