<svg width="48" height="10" viewBox="0 0 47 8" fill="none" xmlns="http://www.w3.org/2000/svg">
<path d="M2.86126 1.36335C3.36792 0.454453 3.62124 0 4 0C4.37876 0 4.63207 0.454449 5.13871 1.36335L5.26979 1.59849C5.41379 1.85677 5.48575 1.98592 5.59803 2.07113C5.71027 2.15634 5.85003 2.18796 6.12963 2.25122L6.38419 2.30882C7.36803 2.53143 7.85999 2.64273 7.97703 3.0191C8.09407 3.39545 7.75871 3.78765 7.08795 4.57197L6.91443 4.77489C6.72383 4.99777 6.62851 5.10921 6.58563 5.24709C6.54279 5.38497 6.55719 5.53365 6.58599 5.83105L6.61223 6.10177C6.71363 7.14825 6.76435 7.67149 6.45795 7.90409C6.15151 8.13669 5.69091 7.92461 4.76971 7.50049L4.53139 7.39073C4.26964 7.27021 4.13876 7.20993 4 7.20993C3.86124 7.20993 3.73036 7.27021 3.4686 7.39073L3.23028 7.50049C2.30907 7.92461 1.84847 8.13669 1.54206 7.90409C1.23565 7.67149 1.28635 7.14825 1.38776 6.10177L1.41399 5.83105C1.44281 5.53365 1.45722 5.38497 1.41434 5.24709C1.37147 5.10921 1.27617 4.99777 1.08557 4.77489L0.91204 4.57197C0.2413 3.78765 -0.0940711 3.39545 0.0229688 3.0191C0.140009 2.64273 0.631944 2.53143 1.61581 2.30882L1.87035 2.25122C2.14994 2.18796 2.28973 2.15634 2.40197 2.07113C2.51422 1.98592 2.58621 1.85678 2.73019 1.59849L2.86126 1.36335Z" fill="#FFDA44"/>
<path d="M15.8613 1.36335C16.3679 0.454453 16.6212 0 17 0C17.3788 0 17.6321 0.454449 18.1387 1.36335L18.2698 1.59849C18.4138 1.85677 18.4858 1.98592 18.598 2.07113C18.7103 2.15634 18.85 2.18796 19.1296 2.25122L19.3842 2.30882C20.368 2.53143 20.86 2.64273 20.977 3.0191C21.0941 3.39545 20.7587 3.78765 20.088 4.57197L19.9144 4.77489C19.7238 4.99777 19.6285 5.10921 19.5856 5.24709C19.5428 5.38497 19.5572 5.53365 19.586 5.83105L19.6122 6.10177C19.7136 7.14825 19.7644 7.67149 19.458 7.90409C19.1515 8.13669 18.6909 7.92461 17.7697 7.50049L17.5314 7.39073C17.2696 7.27021 17.1388 7.20993 17 7.20993C16.8612 7.20993 16.7304 7.27021 16.4686 7.39073L16.2303 7.50049C15.3091 7.92461 14.8485 8.13669 14.5421 7.90409C14.2356 7.67149 14.2864 7.14825 14.3878 6.10177L14.414 5.83105C14.4428 5.53365 14.4572 5.38497 14.4143 5.24709C14.3715 5.10921 14.2762 4.99777 14.0856 4.77489L13.912 4.57197C13.2413 3.78765 12.9059 3.39545 13.023 3.0191C13.14 2.64273 13.6319 2.53143 14.6158 2.30882L14.8704 2.25122C15.1499 2.18796 15.2897 2.15634 15.402 2.07113C15.5142 1.98592 15.5862 1.85678 15.7302 1.59849L15.8613 1.36335Z" fill="#FFDA44"/>
<path d="M28.8613 1.36335C29.3679 0.454453 29.6212 0 30 0C30.3788 0 30.6321 0.454449 31.1387 1.36335L31.2698 1.59849C31.4138 1.85677 31.4858 1.98592 31.598 2.07113C31.7103 2.15634 31.85 2.18796 32.1296 2.25122L32.3842 2.30882C33.368 2.53143 33.86 2.64273 33.977 3.0191C34.0941 3.39545 33.7587 3.78765 33.088 4.57197L32.9144 4.77489C32.7238 4.99777 32.6285 5.10921 32.5856 5.24709C32.5428 5.38497 32.5572 5.53365 32.586 5.83105L32.6122 6.10177C32.7136 7.14825 32.7644 7.67149 32.458 7.90409C32.1515 8.13669 31.6909 7.92461 30.7697 7.50049L30.5314 7.39073C30.2696 7.27021 30.1388 7.20993 30 7.20993C29.8612 7.20993 29.7304 7.27021 29.4686 7.39073L29.2303 7.50049C28.3091 7.92461 27.8485 8.13669 27.5421 7.90409C27.2356 7.67149 27.2864 7.14825 27.3878 6.10177L27.414 5.83105C27.4428 5.53365 27.4572 5.38497 27.4143 5.24709C27.3715 5.10921 27.2762 4.99777 27.0856 4.77489L26.912 4.57197C26.2413 3.78765 25.9059 3.39545 26.023 3.0191C26.14 2.64273 26.6319 2.53143 27.6158 2.30882L27.8704 2.25122C28.1499 2.18796 28.2897 2.15634 28.402 2.07113C28.5142 1.98592 28.5862 1.85678 28.7302 1.59849L28.8613 1.36335Z" fill="#FFDA44"/>
<path d="M41.8613 1.36335C42.3679 0.454453 42.6212 0 43 0C43.3788 0 43.6321 0.454449 44.1387 1.36335L44.2698 1.59849C44.4138 1.85677 44.4858 1.98592 44.598 2.07113C44.7103 2.15634 44.85 2.18796 45.1296 2.25122L45.3842 2.30882C46.368 2.53143 46.86 2.64273 46.977 3.0191C47.0941 3.39545 46.7587 3.78765 46.088 4.57197L45.9144 4.77489C45.7238 4.99777 45.6285 5.10921 45.5856 5.24709C45.5428 5.38497 45.5572 5.53365 45.586 5.83105L45.6122 6.10177C45.7136 7.14825 45.7644 7.67149 45.458 7.90409C45.1515 8.13669 44.6909 7.92461 43.7697 7.50049L43.5314 7.39073C43.2696 7.27021 43.1388 7.20993 43 7.20993C42.8612 7.20993 42.7304 7.27021 42.4686 7.39073L42.2303 7.50049C41.3091 7.92461 40.8485 8.13669 40.5421 7.90409C40.2356 7.67149 40.2864 7.14825 40.3878 6.10177L40.414 5.83105C40.4428 5.53365 40.4572 5.38497 40.4143 5.24709C40.3715 5.10921 40.2762 4.99777 40.0856 4.77489L39.912 4.57197C39.2413 3.78765 38.9059 3.39545 39.023 3.0191C39.14 2.64273 39.6319 2.53143 40.6158 2.30882L40.8704 2.25122C41.1499 2.18796 41.2897 2.15634 41.402 2.07113C41.5142 1.98592 41.5862 1.85678 41.7302 1.59849L41.8613 1.36335Z" fill="#FFDA44"/>
</svg>
