<svg width="35" height="35" viewBox="0 0 35 35" fill="none" xmlns="http://www.w3.org/2000/svg">
<path d="M8.7509 7.29167C9.55633 7.29167 10.2092 6.63875 10.2092 5.83333C10.2092 5.02792 9.55633 4.375 8.7509 4.375C8.21109 4.375 7.73983 4.66827 7.48769 5.10417H7.29256C6.08444 5.10417 5.10506 6.08355 5.10506 7.29167V13.8542C4.70237 13.8542 4.37248 14.1813 4.40902 14.5824C4.57855 16.4426 5.39358 18.1942 6.72517 19.5258C7.70162 20.5022 8.90387 21.2009 10.2092 21.5709V23.3333C10.2092 24.2859 10.8181 25.0962 11.6679 25.3964C11.6989 28.2894 14.0538 30.625 16.954 30.625C19.8737 30.625 22.2405 28.2582 22.2405 25.3385V22.4219C22.2405 20.9117 23.4647 19.6875 24.9749 19.6875C26.485 19.6875 27.7092 20.9117 27.7092 22.4219V24.187C26.8596 24.4872 26.2509 25.2976 26.2509 26.25C26.2509 27.4582 27.2302 28.4375 28.4384 28.4375C29.6466 28.4375 30.6259 27.4582 30.6259 26.25C30.6259 25.2976 30.0172 24.4872 29.1676 24.187V22.4219C29.1676 20.1063 27.2904 18.2292 24.9749 18.2292C22.6593 18.2292 20.7821 20.1063 20.7821 22.4219V25.3385C20.7821 27.4528 19.0682 29.1667 16.954 29.1667C14.8591 29.1667 13.1572 27.4838 13.1263 25.3962C13.9757 25.0958 14.5842 24.2856 14.5842 23.3333V21.5709C15.8896 21.2009 17.0919 20.5022 18.0683 19.5258C19.3999 18.1942 20.2149 16.4426 20.3845 14.5824C20.4211 14.1813 20.0911 13.8542 19.6884 13.8542V7.29167C19.6884 6.08355 18.7091 5.10417 17.5009 5.10417H17.3058C17.0536 4.66827 16.5824 4.375 16.0426 4.375C15.2371 4.375 14.5842 5.02792 14.5842 5.83333C14.5842 6.63875 15.2371 7.29167 16.0426 7.29167C16.5824 7.29167 17.0536 6.9984 17.3058 6.5625H17.5009C17.9036 6.5625 18.2301 6.88896 18.2301 7.29167V13.8542H18.3828C17.9801 13.8542 17.6588 14.1822 17.6032 14.5811C17.4461 15.7067 16.9268 16.7584 16.1139 17.5714C15.128 18.5572 13.791 19.1111 12.3967 19.1111C11.0026 19.1111 9.66542 18.5572 8.67958 17.5714C7.86663 16.7584 7.34747 15.7067 7.19033 14.5811C7.13465 14.1822 6.8134 13.8542 6.41069 13.8542H6.5634V7.29167C6.5634 6.88896 6.88986 6.5625 7.29256 6.5625H7.48769C7.73983 6.9984 8.21109 7.29167 8.7509 7.29167Z" fill="#39683A"/>
</svg>
