<svg width="150" height="150" viewBox="0 0 150 150" fill="none" xmlns="http://www.w3.org/2000/svg">
<path fill-rule="evenodd" clip-rule="evenodd" d="M25 18.75C21.5482 18.75 18.75 21.5482 18.75 25V106.25C18.75 109.702 21.5482 112.5 25 112.5H71.875V125H50V131.25H100V125H78.125V112.5H125C128.452 112.5 131.25 109.702 131.25 106.25V25C131.25 21.5482 128.452 18.75 125 18.75H25ZM37.5 98.0622L37.5003 98.0119V95.9787C37.5003 88.1137 49.1581 80.7153 60.4169 78.1512C62.2447 77.735 62.0375 80.3709 62.5003 81.25H70.9669C73.5019 81.2494 75.9853 81.2506 78.5109 81.25H86.9778C87.4534 80.3469 88.5363 77.9128 89.5834 78.1512C91.9366 78.6872 94.3072 79.4344 96.5853 80.3528L96.6553 80.3181L96.6778 80.3641L96.6934 80.3966C105.267 83.8781 112.5 89.7841 112.5 95.9787L112.5 106.25H121.875V31.25H28.125V106.25H37.5V98.0622ZM48.4203 90.1263C50.0884 88.9091 52.0597 87.7844 54.1903 86.8178C54.2206 87.4016 54.2787 87.9912 54.3569 88.5628C54.4991 89.6062 54.7141 90.6416 54.9744 91.5338L54.9916 91.5925C53.2437 92.7006 52.0834 94.6522 52.0834 96.875C52.0834 100.327 54.8816 103.125 58.3334 103.125C61.785 103.125 64.5834 100.327 64.5834 96.875C64.5834 93.6712 62.1731 91.0306 59.0669 90.6675C59.0366 90.5737 59.0056 90.4737 58.9744 90.3672C58.7791 89.6972 58.6034 88.8659 58.4853 87.9997C58.3778 87.2109 58.3238 86.4359 58.3347 85.7622L58.7272 86.5078H70.9675C72.8794 86.5075 73.8097 86.5075 74.7422 86.5078H74.77C75.6903 86.5078 76.6219 86.5081 78.5106 86.5078H90.7506L91.4684 85.1441C92.0275 85.3237 92.5847 85.5159 93.1375 85.7203C93.1516 86.4038 93.0975 87.1947 92.9878 87.9997C92.8697 88.8659 92.6941 89.6972 92.4987 90.3672C92.4722 90.4575 92.4459 90.5437 92.42 90.625H89.5834C88.7944 90.625 88.0728 91.0709 87.72 91.7766L85.6366 95.9434C85.4919 96.2325 85.4166 96.5516 85.4166 96.875V101.042C85.4166 102.192 86.3494 103.125 87.5 103.125H91.6666V98.9584H89.5834V97.3669L90.8709 94.7916H96.6291L97.9166 97.3669V98.9584H95.8334V103.125H100C101.151 103.125 102.083 102.192 102.083 101.042V96.875C102.083 96.5516 102.008 96.2325 101.863 95.9434L99.78 91.7766C99.4272 91.0709 98.7056 90.625 97.9166 90.625H96.7369C96.8909 89.9691 97.0203 89.2678 97.1162 88.5628C97.1641 88.2134 97.2044 87.8572 97.2353 87.5C99.7728 88.7806 101.946 90.2456 103.549 91.7406C105.836 93.8738 106.25 95.3603 106.25 95.9787L106.25 106.25H43.75L43.7503 95.9791C43.7503 95.1234 44.5734 92.9328 48.4203 90.1263ZM60.4166 96.875C60.4166 98.0713 59.455 98.9891 58.3334 98.9891C57.2116 98.9891 56.25 98.0713 56.25 96.875C56.25 95.6787 57.2116 94.7609 58.3334 94.7609C59.455 94.7609 60.4166 95.6787 60.4166 96.875ZM75 28.125C76.7259 28.125 78.125 26.7259 78.125 25C78.125 23.2741 76.7259 21.875 75 21.875C73.2741 21.875 71.875 23.2741 71.875 25C71.875 26.7259 73.2741 28.125 75 28.125Z"
fill="#2F5233"/>
<path fill-rule="evenodd" clip-rule="evenodd" d="M75 68.75C81.9034 68.75 87.5 63.1534 87.5 56.25C87.5 49.3466 81.9034 43.75 75 43.75C68.0966 43.75 62.5 49.3466 62.5 56.25C62.5 63.1534 68.0966 68.75 75 68.75ZM75 75C85.3553 75 93.75 66.6053 93.75 56.25C93.75 45.8947 85.3553 37.5 75 37.5C64.6447 37.5 56.25 45.8947 56.25 56.25C56.25 66.6053 64.6447 75 75 75Z" fill="#2F5233"/>
</svg>
