<svg width="18" height="18" viewBox="0 0 13 13" fill="none" xmlns="http://www.w3.org/2000/svg">
<g clip-path="url(#clip0_1052_1660)">
<path d="M6.49935 0.541688C5.3209 0.541688 4.16892 0.891138 3.18908 1.54585C2.20924 2.20056 1.44554 3.13112 0.994569 4.21987C0.543597 5.30861 0.425602 6.50663 0.655506 7.66243C0.88541 8.81824 1.45289 9.87991 2.28617 10.7132C3.11946 11.5465 4.18113 12.114 5.33694 12.3439C6.49274 12.5738 7.69076 12.4558 8.77951 12.0048C9.86825 11.5538 10.7988 10.7901 11.4535 9.81029C12.1082 8.83045 12.4577 7.67847 12.4577 6.50002C12.4613 5.71656 12.3096 4.94015 12.0114 4.21563C11.7133 3.49111 11.2745 2.83285 10.7205 2.27885C10.1665 1.72485 9.50826 1.2861 8.78374 0.987936C8.05922 0.689771 7.28281 0.538102 6.49935 0.541688ZM9.6681 8.39585C9.6194 8.47525 9.55194 8.54146 9.47167 8.58869C9.39139 8.63591 9.30074 8.66269 9.20768 8.66669C9.11159 8.66543 9.01777 8.63728 8.93685 8.58544L5.95768 6.79794V3.79169C5.95768 3.64803 6.01475 3.51025 6.11633 3.40867C6.21792 3.30709 6.35569 3.25002 6.49935 3.25002C6.64301 3.25002 6.78078 3.30709 6.88237 3.40867C6.98395 3.51025 7.04102 3.64803 7.04102 3.79169V6.2021L9.47852 7.6646C9.54101 7.69817 9.59589 7.7443 9.63971 7.80009C9.68353 7.85588 9.71534 7.92012 9.73314 7.98879C9.75094 8.05746 9.75435 8.12907 9.74316 8.19912C9.73197 8.26917 9.70641 8.33615 9.6681 8.39585Z" fill="#8A98A1"/>
</g>
<defs>
<clipPath id="clip0_1052_1660">
<rect width="13" height="13" fill="white"/>
</clipPath>
</defs>
</svg>
