<svg width="17" height="17" viewBox="0 0 14 14" fill="none" xmlns="http://www.w3.org/2000/svg">
<g clip-path="url(#clip0_555_345)">
<path d="M13.4173 7.00016C13.4173 10.544 10.5445 13.4168 7.00065 13.4168C3.45683 13.4168 0.583984 10.544 0.583984 7.00016C0.583984 3.45634 3.45683 0.583496 7.00065 0.583496C10.5445 0.583496 13.4173 3.45634 13.4173 7.00016ZM1.75464 7.00016C1.75464 9.89746 4.10336 12.2462 7.00065 12.2462C9.89795 12.2462 12.2467 9.89746 12.2467 7.00016C12.2467 4.10287 9.89795 1.75415 7.00065 1.75415C4.10336 1.75415 1.75464 4.10287 1.75464 7.00016Z" fill="#181D17"/>
<path d="M7.0013 2.91699C6.67913 2.91699 6.41797 3.17816 6.41797 3.50033V7.27257C6.41797 7.27257 6.41797 7.42464 6.49188 7.53903C6.54134 7.63604 6.61846 7.72033 6.71979 7.77884L9.41467 9.33477C9.69368 9.49583 10.0504 9.40022 10.2115 9.12121C10.3726 8.8422 10.277 8.48543 9.998 8.32438L7.58464 6.93103V3.50033C7.58464 3.17816 7.32348 2.91699 7.0013 2.91699Z" fill="#181D17"/>
</g>
<defs>
<clipPath id="clip0_555_345">
<rect width="14" height="14" fill="white"/>
</clipPath>
</defs>
</svg>
