<svg width="25" height="25" viewBox="0 0 30 30" fill="none" xmlns="http://www.w3.org/2000/svg">
<path d="M11.1625 2.5H6.275C3.75 2.5 2.5 3.75 2.5 6.275V11.175C2.5 13.75 3.75 15 6.275 14.9375H11.175C13.75 15 15 13.75 14.9375 11.1625V6.275C15 3.75 13.75 2.5 11.1625 2.5ZM11.2625 12.2C10.4125 12.2 9.5875 11.875 8.9 11.3C8.125 11.8625 7.1875 12.2 6.175 12.2C5.6625 12.2 5.2375 11.775 5.2375 11.2625C5.2375 10.75 5.6625 10.325 6.175 10.325C7.45 10.325 8.5125 9.45 8.9 8.25H6.175C5.6625 8.25 5.2375 7.825 5.2375 7.3125C5.2375 6.8 5.6625 6.375 6.175 6.375H7.7875C7.8375 5.9 8.225 5.525 8.7125 5.525C9.2 5.525 9.5875 5.9 9.6375 6.375H9.9625C9.975 6.375 9.9875 6.375 9.9875 6.375H10.0125H11.25C11.7625 6.375 12.1875 6.8 12.1875 7.3125C12.1875 7.825 11.775 8.25 11.25 8.25H10.8375C10.725 8.85 10.4875 9.4125 10.175 9.925C10.5125 10.175 10.875 10.325 11.2625 10.325C11.775 10.325 12.2 10.75 12.2 11.2625C12.2 11.775 11.775 12.2 11.2625 12.2Z" fill="#161528"/>
<path d="M11.25 28.4375C5.9125 28.4375 1.5625 24.0875 1.5625 18.75C1.5625 18.2375 1.9875 17.8125 2.5 17.8125C3.0125 17.8125 3.4375 18.2375 3.4375 18.75C3.4375 22.45 6.0125 25.55 9.475 26.3625L9.1375 25.8C8.875 25.35 9.0125 24.775 9.4625 24.5125C9.9 24.25 10.4875 24.3875 10.75 24.8375L12.0625 27.025C12.2375 27.3125 12.2375 27.675 12.075 27.9625C11.9 28.25 11.5875 28.4375 11.25 28.4375Z" fill="black"/>
<path d="M27.4981 12.1875C26.9856 12.1875 26.5606 11.7625 26.5606 11.25C26.5606 7.55 23.9856 4.45 20.5231 3.6375L20.8606 4.2C21.1231 4.65 20.9856 5.225 20.5356 5.4875C20.0981 5.75 19.5106 5.6125 19.2481 5.1625L17.9356 2.975C17.7606 2.6875 17.7606 2.325 17.9231 2.0375C18.0981 1.75 18.4106 1.5625 18.7481 1.5625C24.0856 1.5625 28.4356 5.9125 28.4356 11.25C28.4356 11.7625 28.0106 12.1875 27.4981 12.1875Z" fill="black"/>
<path d="M21.1498 14.8145C17.6498 14.8145 14.7998 17.652 14.7998 21.1645C14.7998 24.6645 17.6373 27.5145 21.1498 27.5145C24.6498 27.5145 27.4998 24.677 27.4998 21.1645C27.4998 17.652 24.6623 14.8145 21.1498 14.8145ZM24.2498 24.177C23.7873 24.402 23.2248 24.227 22.9873 23.752L22.7748 23.327H19.5373L19.3248 23.752C19.1623 24.077 18.8248 24.2645 18.4873 24.2645C18.3498 24.2645 18.1998 24.227 18.0748 24.1645C17.6123 23.927 17.4248 23.3645 17.6498 22.902L20.3248 17.5645C20.4873 17.252 20.8123 17.052 21.1623 17.052C21.5123 17.052 21.8373 17.252 21.9998 17.577L24.6748 22.9145C24.8998 23.377 24.7123 23.9395 24.2498 24.177Z" fill="#161528"/>
<path d="M20.4736 21.4504H21.8361L21.1486 20.0879L20.4736 21.4504Z" fill="#161528"/>
</svg>
