<svg width="20" height="20" viewBox="0 0 20 20" fill="none" xmlns="http://www.w3.org/2000/svg">
<path fill-rule="evenodd" clip-rule="evenodd" d="M4.26314 6.45978C4.60755 6.43682 4.90537 6.69741 4.92833 7.04182L5.31161 12.7911C5.3865 13.9143 5.43985 14.6958 5.55699 15.2839C5.67061 15.8542 5.82923 16.1561 6.05707 16.3693C6.28491 16.5824 6.59671 16.7206 7.17338 16.796C7.76788 16.8738 8.55125 16.875 9.67692 16.875H10.3214C11.4471 16.875 12.2304 16.8738 12.8249 16.796C13.4016 16.7206 13.7134 16.5824 13.9413 16.3693C14.1691 16.1561 14.3277 15.8542 14.4413 15.2839C14.5585 14.6958 14.6118 13.9143 14.6867 12.7911L15.07 7.04182C15.0929 6.69741 15.3908 6.43682 15.7352 6.45978C16.0796 6.48274 16.3402 6.78056 16.3173 7.12497L15.931 12.9181C15.8598 13.987 15.8023 14.8505 15.6673 15.528C15.5269 16.2324 15.2883 16.8209 14.7953 17.2821C14.3023 17.7433 13.6993 17.9424 12.9871 18.0354C12.302 18.1251 11.4367 18.1251 10.3653 18.125H9.633C8.56167 18.1251 7.69629 18.1251 7.01125 18.0354C6.29905 17.9424 5.69609 17.7433 5.20309 17.2821C4.7101 16.8209 4.47141 16.2324 4.33108 15.528C4.1961 14.8504 4.13855 13.987 4.0673 12.9181L3.6811 7.12497C3.65814 6.78056 3.91873 6.48274 4.26314 6.45978Z" fill="#F8FBF2"/>
<path fill-rule="evenodd" clip-rule="evenodd" d="M8.62876 1.87503L8.59051 1.87502C8.41018 1.8749 8.25306 1.8748 8.10471 1.89849C7.51862 1.99207 7.01146 2.35762 6.73734 2.88403C6.66795 3.01728 6.61837 3.16637 6.56145 3.33747L6.54935 3.37382L6.46844 3.61653C6.45262 3.66401 6.44821 3.67709 6.44437 3.6877C6.29844 4.09113 5.92008 4.36382 5.49121 4.3747C5.47993 4.37498 5.46612 4.37503 5.41608 4.37503H2.91602C2.57084 4.37503 2.29102 4.65485 2.29102 5.00003C2.29102 5.34521 2.57084 5.62503 2.91602 5.62503H5.42322H5.43717H14.5617H14.5756H17.0828C17.4279 5.62503 17.7078 5.34521 17.7078 5.00003C17.7078 4.65485 17.4279 4.37503 17.0828 4.37503H14.5828C14.5327 4.37503 14.5189 4.37498 14.5076 4.3747C14.0788 4.36382 13.7004 4.09111 13.5544 3.68768C13.5507 3.67715 13.5462 3.66377 13.5304 3.61653L13.4495 3.37382L13.4373 3.33745C13.3804 3.16634 13.3308 3.01727 13.2615 2.88403C12.9873 2.35762 12.4802 1.99207 11.8941 1.89849C11.7458 1.8748 11.5887 1.8749 11.4083 1.87502L11.37 1.87503H8.62876ZM7.61983 4.1129C7.58711 4.20337 7.54907 4.29085 7.50614 4.37503H12.4927C12.4498 4.29085 12.4118 4.20337 12.379 4.11292L12.3468 4.01847L12.2636 3.7691C12.1877 3.54117 12.1702 3.49469 12.1528 3.46137C12.0614 3.28589 11.8923 3.16405 11.697 3.13285C11.6599 3.12692 11.6103 3.12503 11.37 3.12503H8.62876C8.38851 3.12503 8.33893 3.12692 8.30182 3.13285C8.10646 3.16405 7.9374 3.28589 7.84602 3.46137C7.82867 3.49469 7.81117 3.54118 7.7352 3.7691L7.65203 4.01862C7.63952 4.05618 7.62977 4.08542 7.61983 4.1129Z" fill="#F8FBF2"/>
</svg>
