<svg width="25" height="25" viewBox="0 0 25 25" fill="none" xmlns="http://www.w3.org/2000/svg">
<path d="M17.5625 13.75C17.1875 13.75 16.9062 14.0313 16.9062 14.4063V17.4688C16.9062 17.8438 16.625 18.125 16.25 18.125H9C8.625 18.125 8.34375 17.8438 8.34375 17.4688V14.4063C8.34375 14.0625 8.0625 13.75 7.6875 13.75C7.3125 13.75 7.03125 14.0625 7.03125 14.4063V17.4688C7.03125 18.5625 7.90625 19.4375 9 19.4375H16.25C17.3438 19.4375 18.2188 18.5625 18.2188 17.4688V14.4063C18.2188 14.0625 17.9375 13.75 17.5625 13.75ZM13.0938 5.78125C13.0625 5.75 12.9375 5.5625 12.625 5.5625C12.3125 5.5625 12.1875 5.75 12.1562 5.78125L9.40625 8.53125C9.15625 8.78125 9.15625 9.1875 9.40625 9.46875C9.65625 9.71875 10.0625 9.71875 10.3437 9.46875L11.9688 7.8125V14C11.9688 14.375 12.25 14.6562 12.625 14.6562C13 14.6562 13.2812 14.375 13.2812 14V7.8125L14.9062 9.4375C15.1562 9.6875 15.5625 9.6875 15.8438 9.4375C16.0938 9.1875 16.0938 8.78125 15.8438 8.5L13.0938 5.78125Z" fill="white"/>
</svg>
