<svg width="50" height="50" viewBox="0 0 70 70" fill="none" xmlns="http://www.w3.org/2000/svg">
<mask id="mask0_124_708" style="mask-type:luminance" maskUnits="userSpaceOnUse" x="0" y="0" width="70" height="70">
<path d="M35 70C54.33 70 70 54.33 70 35C70 15.67 54.33 0 35 0C15.67 0 0 15.67 0 35C0 54.33 15.67 70 35 70Z" fill="white"/>
</mask>
<g mask="url(#mask0_124_708)">
<path d="M35 0H70V8.75L65.625 13.125L70 17.5V26.25L65.625 30.625L70 35V43.75L65.625 48.125L70 52.5V61.25L35 65.625L0 61.25V52.5L4.375 48.125L0 43.75V35L35 0Z" fill="#EEEEEE"/>
<path d="M30.625 8.75H70V17.5H30.625V8.75ZM30.625 26.25H70V35H35L30.625 26.25ZM0 43.75H70V52.5H0V43.75ZM0 61.25H70V70H0V61.25Z" fill="#D80027"/>
<path d="M0 0H35V35H0V0Z" fill="#0052B4"/>
<path d="M25.5664 33.2227L33.3594 27.6172H23.7891L31.582 33.2227L28.5742 24.0625L25.5664 33.2227ZM14.4922 33.2227L22.2852 27.6172H12.7148L20.5078 33.2227L17.5 24.0625L14.4922 33.2227ZM3.41797 33.2227L11.2109 27.6172H1.64062L9.43359 33.2227L6.42578 24.0625L3.41797 33.2227ZM25.5664 22.1484L33.3594 16.543H23.7891L31.582 22.1484L28.5742 12.9883L25.5664 22.1484ZM14.4922 22.1484L22.2852 16.543H12.7148L20.5078 22.1484L17.5 12.9883L14.4922 22.1484ZM3.41797 22.1484L11.2109 16.543H1.64062L9.43359 22.1484L6.42578 12.9883L3.41797 22.1484ZM25.5664 10.9375L33.3594 5.33203H23.7891L31.582 10.9375L28.5742 1.77734L25.5664 10.9375ZM14.4922 10.9375L22.2852 5.33203H12.7148L20.5078 10.9375L17.5 1.77734L14.4922 10.9375ZM3.41797 10.9375L11.2109 5.33203H1.64062L9.43359 10.9375L6.42578 1.77734L3.41797 10.9375Z" fill="#EEEEEE"/>
</g>
</svg>
