<svg width="23" height="23" viewBox="0 0 17 17" fill="none" xmlns="http://www.w3.org/2000/svg">
<path d="M6.3763 7.08329C7.94111 7.08329 9.20964 5.81477 9.20964 4.24996C9.20964 2.68515 7.94111 1.41663 6.3763 1.41663C4.8115 1.41663 3.54297 2.68515 3.54297 4.24996C3.54297 5.81477 4.8115 7.08329 6.3763 7.08329Z" fill="#8A98A1"/>
<path d="M6.3763 14.8756C9.11471 14.8756 11.3346 13.6071 11.3346 12.0423C11.3346 10.4775 9.11471 9.20898 6.3763 9.20898C3.63789 9.20898 1.41797 10.4775 1.41797 12.0423C1.41797 13.6071 3.63789 14.8756 6.3763 14.8756Z" fill="#8A98A1"/>
<path d="M14.874 12.042C14.874 13.2156 13.4322 14.1669 11.6718 14.1669C12.1904 13.6 12.5471 12.8885 12.5471 12.0429C12.5471 11.1965 12.1896 10.4842 11.6699 9.91699C13.4303 9.91699 14.874 10.8684 14.874 12.042Z" fill="#8A98A1"/>
<path d="M12.7499 4.25049C12.7499 5.4241 11.7986 6.37549 10.6249 6.37549C10.369 6.37549 10.1237 6.33025 9.89648 6.24734C10.2316 5.65794 10.423 4.97617 10.423 4.2497C10.423 3.52377 10.2319 2.84247 9.89719 2.25337C10.1242 2.17063 10.3693 2.12549 10.6249 2.12549C11.7986 2.12549 12.7499 3.07689 12.7499 4.25049Z" fill="#8A98A1"/>
</svg>
