<svg width="25" height="25" viewBox="0 0 25 25" fill="none" xmlns="http://www.w3.org/2000/svg">
<path d="M9.37565 10.4168C11.6768 10.4168 13.5423 8.55135 13.5423 6.25016C13.5423 3.94898 11.6768 2.0835 9.37565 2.0835C7.07446 2.0835 5.20898 3.94898 5.20898 6.25016C5.20898 8.55135 7.07446 10.4168 9.37565 10.4168Z" fill="#39683A"/>
<path d="M9.37565 21.8758C13.4027 21.8758 16.6673 20.0103 16.6673 17.7091C16.6673 15.408 13.4027 13.5425 9.37565 13.5425C5.34858 13.5425 2.08398 15.408 2.08398 17.7091C2.08398 20.0103 5.34858 21.8758 9.37565 21.8758Z" fill="#39683A"/>
<path d="M21.874 17.709C21.874 19.4348 19.7537 20.8339 17.1648 20.8339C17.9275 20.0002 18.452 18.9538 18.452 17.7103C18.452 16.4655 17.9263 15.4182 17.1621 14.584C19.751 14.584 21.874 15.983 21.874 17.709Z" fill="#39683A"/>
<path d="M18.749 6.25098C18.749 7.97687 17.3499 9.37598 15.624 9.37598C15.2476 9.37598 14.8869 9.30946 14.5527 9.18752C15.0455 8.32076 15.327 7.31815 15.327 6.24982C15.327 5.18227 15.046 4.18036 14.5538 3.31404C14.8876 3.19236 15.248 3.12598 15.624 3.12598C17.3499 3.12598 18.749 4.52509 18.749 6.25098Z" fill="#39683A"/>
</svg>
