<svg width="13" height="13" viewBox="0 0 10 10" fill="none" xmlns="http://www.w3.org/2000/svg">
<path fill-rule="evenodd" clip-rule="evenodd" d="M3.7231 0.657114C4.3489 -0.219038 5.65107 -0.219038 6.27691 0.657114L6.37655 0.7966C6.48666 0.950799 6.67162 1.03336 6.85992 1.01244L7.304 0.963096C8.30347 0.85205 9.14796 1.69654 9.03691 2.69598L8.98759 3.14007C8.96666 3.3284 9.0492 3.51332 9.2034 3.62347L9.3429 3.7231C10.219 4.3489 10.219 5.65107 9.3429 6.27691L9.2034 6.37655C9.0492 6.48666 8.96666 6.67162 8.98759 6.85992L9.03691 7.304C9.14796 8.30347 8.30347 9.14796 7.304 9.03691L6.85992 8.98759C6.67162 8.96666 6.48666 9.0492 6.37655 9.2034L6.27691 9.3429C5.65107 10.219 4.34895 10.219 3.7231 9.3429L3.62347 9.2034C3.51332 9.0492 3.3284 8.96666 3.14007 8.98759L2.69598 9.03691C1.69654 9.14796 0.85205 8.30347 0.963096 7.304L1.01244 6.85992C1.03336 6.67162 0.950799 6.48666 0.7966 6.37655L0.657114 6.27691C-0.219038 5.65107 -0.219038 4.34895 0.657114 3.7231L0.7966 3.62347C0.950799 3.51332 1.03336 3.3284 1.01244 3.14007L0.963096 2.69598C0.85205 1.69654 1.69654 0.85205 2.69598 0.963096L3.14007 1.01244C3.3284 1.03336 3.51332 0.950799 3.62347 0.7966L3.7231 0.657114ZM6.93906 3.58402C7.14331 3.78829 7.14331 4.11948 6.93906 4.32374L4.94153 6.32127C4.68497 6.57788 4.26892 6.57788 4.01236 6.32127L3.06095 5.36987C2.85669 5.16561 2.85669 4.83441 3.06095 4.63015C3.26523 4.42589 3.59641 4.42589 3.80068 4.63015L4.47694 5.30642L6.19934 3.58402C6.4036 3.37975 6.7348 3.37975 6.93906 3.58402Z" fill="#0F68F0"/>
</svg>
