<svg width="25" height="25" viewBox="0 0 25 25" fill="none" xmlns="http://www.w3.org/2000/svg">
<path fill-rule="evenodd" clip-rule="evenodd" d="M3.86222 2.38835C3.45542 1.98155 2.79588 1.98155 2.38908 2.38835C1.98229 2.79515 1.98229 3.45469 2.38908 3.86149L3.62521 5.09762C2.68485 5.86158 2.08398 7.02725 2.08398 8.33325V16.6666C2.08398 18.9677 3.94946 20.8333 6.25065 20.8333H13.5423C15.1176 20.8333 16.4887 19.9591 17.197 18.6694L21.1391 22.6115C21.5459 23.0183 22.2054 23.0183 22.6122 22.6115C23.019 22.2047 23.019 21.5451 22.6122 21.1384L3.86222 2.38835ZM22.9173 16.4111C22.9173 17.1072 22.5991 17.6764 22.1311 18.0436C21.9515 18.1845 21.6993 18.142 21.5378 17.9806L8.61291 5.0557C8.2848 4.7276 8.51718 4.16659 8.98119 4.16659H13.5423C15.8435 4.16659 17.709 6.03206 17.709 8.33325V8.59852L19.4403 7.04032C20.781 5.83372 22.9173 6.78517 22.9173 8.58886V16.4111Z" fill="#D80027"/>
</svg>
