<svg width="25" height="19" viewBox="0 0 25 17" fill="none" xmlns="http://www.w3.org/2000/svg">
<path d="M17.6111 6L20.9037 4.0674C21.9171 3.47254 22.4239 3.17511 22.8408 3.21314C23.2043 3.24629 23.536 3.43 23.7521 3.71791C24 4.0481 24 4.62619 24 5.78238V11.2176C24 12.3737 24 12.9519 23.7521 13.2821C23.536 13.57 23.2043 13.7537 22.8408 13.7869C22.4239 13.8249 21.9171 13.5275 20.9037 12.9326L17.6111 11M5.08889 16H13.5222C14.9535 16 15.6691 16 16.2158 15.7275C16.6966 15.4879 17.0876 15.1054 17.3326 14.635C17.6111 14.1003 17.6111 13.4001 17.6111 12V5C17.6111 3.59987 17.6111 2.8998 17.3326 2.36503C17.0876 1.89461 16.6966 1.51216 16.2158 1.27249C15.6691 1 14.9535 1 13.5222 1H5.08889C3.65765 1 2.94202 1 2.39536 1.27249C1.91449 1.51216 1.52354 1.89461 1.27854 2.36503C1 2.8998 1 3.59986 1 5V12C1 13.4001 1 14.1003 1.27854 14.635C1.52354 15.1054 1.91449 15.4879 2.39536 15.7275C2.94202 16 3.65764 16 5.08889 16Z" stroke="#161528" stroke-width="1.5" stroke-linecap="round" stroke-linejoin="round"/>
</svg>
