<svg width="17" height="12" viewBox="0 0 17 12" fill="none" xmlns="http://www.w3.org/2000/svg">
<path d="M11.8333 4.33333L13.9807 3.04493C14.6416 2.64836 14.9721 2.45008 15.244 2.47543C15.4811 2.49753 15.6974 2.62 15.8383 2.81194C16 3.03207 16 3.41746 16 4.18825V7.81175C16 8.5825 16 8.96792 15.8383 9.18808C15.6974 9.38 15.4811 9.5025 15.244 9.52458C14.9721 9.54992 14.6416 9.35167 13.9807 8.95508L11.8333 7.66667M3.66667 11H9.16667C10.1001 11 10.5668 11 10.9233 10.8183C11.2369 10.6586 11.4919 10.4036 11.6517 10.09C11.8333 9.7335 11.8333 9.26675 11.8333 8.33333V3.66667C11.8333 2.73325 11.8333 2.26653 11.6517 1.91002C11.4919 1.59641 11.2369 1.34144 10.9233 1.18166C10.5668 1 10.1001 1 9.16667 1H3.66667C2.73325 1 2.26653 1 1.91002 1.18166C1.59641 1.34144 1.34144 1.59641 1.18166 1.91002C1 2.26653 1 2.73324 1 3.66667V8.33333C1 9.26675 1 9.7335 1.18166 10.09C1.34144 10.4036 1.59641 10.6586 1.91002 10.8183C2.26653 11 2.73324 11 3.66667 11Z" stroke="white" stroke-width="1.5" stroke-linecap="round" stroke-linejoin="round"/>
</svg>
